<?xml version="1.0" standalone="no"?>
<svg viewBox="0 0 200 200" xmlns="http://www.w3.org/2000/svg">
  <path fill="#F1C21B" d="M34.3,-41.9C49,-43.9,68.7,-42.1,69.2,-33.7C69.8,-25.3,51.3,-10.3,41.8,0.9C32.2,12.1,31.5,19.4,30.7,34.5C29.9,49.6,29,72.5,19.3,83.4C9.6,94.4,-8.8,93.4,-21.6,84.6C-34.4,75.8,-41.7,59.1,-45.2,44.9C-48.8,30.6,-48.6,18.8,-55.1,5C-61.5,-8.7,-74.6,-24.4,-73.1,-35.7C-71.6,-47,-55.4,-54,-40.7,-52C-26.1,-50,-13,-39.1,-1.6,-36.6C9.8,-34.1,19.6,-39.9,34.3,-41.9Z" transform="translate(100 100)" />
</svg>
