<svg width="728" height="152" viewBox="0 0 728 152" fill="none" xmlns="http://www.w3.org/2000/svg">
<path d="M0 36.0925C0.0581464 79.6581 0.639611 97.3722 2.26771 104.07C5.23318 116.47 11.513 127.209 20.4094 135.347C32.5038 146.363 47.0986 151.677 65.124 151.677C90.941 151.677 112.223 139.609 123.27 118.851C124.84 115.861 126.875 111.267 127.748 108.61L129.376 103.794L129.55 126.324L129.667 148.909H144.726H159.786L160.077 114.422C160.252 84.5295 160.426 79.5474 161.298 76.4474C164.031 66.3725 171.997 58.9547 182.58 56.5744C185.894 55.8548 191.883 55.1351 191.883 55.5226C191.883 55.6333 190.72 57.8476 189.325 60.394C179.672 77.6652 179.265 99.0329 188.336 116.913C194.907 129.922 207.466 141.381 221.363 146.916C239.621 154.168 259.449 153.614 276.777 145.311C282.999 142.322 287.36 139.388 292.593 134.627C301.489 126.49 307.188 117.467 310.909 105.454L311.897 102.133L312.363 106.395C313.584 118.629 318.991 129.424 328.004 137.616C334.865 143.761 342.773 147.857 352.832 150.404C360.857 152.397 372.602 152.563 379.405 150.681C385.22 149.075 391.616 145.809 396.617 141.934C398.71 140.274 400.629 138.945 400.861 138.945C401.036 138.945 401.21 141.159 401.21 143.927V148.909H416.328H431.388L431.563 113.038C431.737 81.1527 431.912 76.8903 432.784 74.0117C436.912 60.6154 447.03 53.4191 460.229 54.4155C469.125 55.0798 476.045 59.5637 479.999 67.2029C483.604 74.0671 483.72 75.8938 483.778 114.422V148.909H499.187H514.596V126.102C514.596 113.592 514.712 103.461 514.887 103.627C515.061 103.794 515.759 105.731 516.398 108.001C519.131 117.633 526.283 128.704 534.191 135.679C550.937 150.348 577.045 155.552 600.652 148.909C605.828 147.415 614.142 143.484 618.503 140.44C628.388 133.465 636.703 122.227 639.959 111.377C640.483 109.606 641.064 107.89 641.181 107.502C641.413 107.004 638.215 106.838 626.469 106.838H611.41L610.014 109.938C607.979 114.367 601.176 121.065 596.175 123.611C590.186 126.6 586.116 127.542 579.429 127.542C567.335 127.542 557.101 122.283 550.356 112.651C548.204 109.495 544.832 101.635 544.832 99.6418C544.832 98.5347 545.472 98.5347 594.838 98.5347H644.844V123.722V148.909H660.194H675.603L675.778 113.592C675.952 78.8277 676.01 78.2742 677.289 74.676C678.859 70.1368 682.523 64.8225 685.779 62.2761C691.012 58.1797 700.083 55.4119 708.398 55.3566H711.712V41.5174V27.6783H706.944C692.524 27.6783 677.871 31.4425 667.812 37.6978C663.044 40.6317 657.113 46.0013 654.322 49.8209C649.786 56.1869 646.414 64.6011 645.716 71.576C645.134 76.9456 644.844 77.001 643.332 72.0742C636.296 48.9906 618.038 33.1032 593.035 28.2318C584.43 26.5158 570.474 26.8479 562.101 28.9515C555.647 30.6122 547.332 34.155 541.866 37.6425C530.47 44.9495 521.108 57.0173 517.212 69.4725C514.828 77.0563 514.828 77.1117 514.421 72.5171C513.2 59.1762 505.525 45.4477 494.768 37.3657C490 33.8229 481.918 29.8372 476.51 28.4533C474.533 27.9551 469.765 27.4015 465.404 27.2908C458.95 27.0694 457.031 27.1801 453.019 28.1765C446.681 29.6711 440.692 32.4389 435.575 36.2585L431.446 39.3585V19.7069V-3.72103e-06H416.328H401.21V43.012C401.21 66.7047 400.92 89.1794 400.629 92.999C399.757 104.402 397.547 110.16 391.791 115.972C386.209 121.674 379.696 124.22 370.683 124.22C357.368 124.165 348.588 118.463 344.634 107.226C343.471 104.015 343.413 102.41 343.18 80.1009L343.006 56.4637H366.846H390.744V42.6246V28.7854H366.904H343.064V14.3927V-3.72103e-06H327.655H312.246V38.3067C312.246 59.3976 312.014 76.392 311.781 76.0599C311.549 75.7831 310.967 74.2885 310.56 72.7939C305.966 55.3566 290.441 38.5835 272.416 31.7193C262.589 27.9551 259.624 27.4568 247.413 27.4568C237.296 27.4568 235.9 27.5676 230.725 28.8961C219.503 31.7747 210.141 36.9782 201.361 45.0602L195.953 49.987V38.7496V27.5122L188.278 27.8443C170.078 28.564 155.949 33.6014 145.308 43.0674C136.819 50.6513 132.458 58.6226 130.306 70.5243L129.318 75.9492L128.038 71.3546C122.573 52.0905 106.699 36.2032 86.8707 30.28C77.1021 27.3461 64.0192 26.9586 54.3669 29.2836C48.0871 30.8336 39.8884 34.7639 34.7134 38.6942L30.5269 41.9603L30.3524 20.9801L30.2361 -3.72103e-06H15.1181H0V36.0925ZM587.163 52.3119C594.315 53.8619 600.652 57.6815 606.06 63.6047C608.619 66.4279 611.642 71.576 612.573 74.5653L612.921 75.8385H579.429H545.937L546.286 74.5653C546.518 73.901 547.623 71.7421 548.67 69.7493C556.287 55.7994 571.521 48.9352 587.163 52.3119ZM74.1367 56.1869C86.2893 59.1208 96.0579 68.1993 99.7793 79.9902C101.233 84.5295 101.233 94.2722 99.7793 98.8114C96.116 110.381 86.9289 119.183 74.7181 122.67C72.276 123.39 69.3687 123.667 64.8333 123.667C59.2512 123.667 57.7975 123.445 53.4947 122.006C41.691 118.076 33.2016 109.385 30.2361 98.2025C27.9684 89.733 29.1895 79.9902 33.5505 72.5724C37.9115 64.9886 47.273 58.1797 55.9369 56.1315C60.2397 55.1905 69.9501 55.1905 74.1367 56.1869ZM256.6 56.2423C266.427 58.6226 275.498 65.7636 279.626 74.2331C282.417 79.9349 283.173 83.3116 283.173 89.5669C283.173 100.583 278.231 110.381 269.567 116.636C249.157 131.361 220.491 122.615 212.816 99.365C210.897 93.6079 210.955 84.917 213.048 78.8277C216.77 67.7011 226.073 59.3422 238.11 56.1869C242.18 55.1351 252.239 55.1351 256.6 56.2423Z" fill="#0585FB"/>
<path d="M707.409 122.892C697.99 126.49 694.733 137.561 700.839 145.145C707.526 153.448 722.004 152.009 726.598 142.543C728.226 139.277 728.458 133.908 727.179 130.918C723.981 123.667 714.91 119.958 707.409 122.892ZM717.12 124.054C719.969 124.774 723.807 128.095 725.144 130.918C728.633 138.17 723.981 147.193 715.899 148.854C702.699 151.511 694.036 136.399 703.572 127.32C707.293 123.722 711.828 122.67 717.12 124.054Z" fill="#0585FB"/>
<path d="M705.898 136.177C705.898 144.647 705.956 145.034 707.06 145.034C708.107 145.034 708.223 144.647 708.223 141.436V137.782L712.41 137.949C717.062 138.115 717.062 138.115 717.818 142.931C718.108 144.591 718.399 145.034 719.329 145.034C720.202 145.034 720.434 144.757 720.26 144.038C720.085 143.54 719.795 141.934 719.562 140.495C719.387 139.111 718.864 137.616 718.399 137.284C717.643 136.731 717.701 136.454 718.748 135.679C719.387 135.181 720.027 133.907 720.202 132.856C720.841 129.036 717.701 127.375 709.851 127.32H705.898V136.177ZM717.759 131.306C718.166 132.302 718.108 133.243 717.643 134.24C717.003 135.568 716.713 135.624 712.584 135.624H708.223V132.579V129.479L712.701 129.645C717.003 129.811 717.236 129.866 717.759 131.306Z" fill="#0585FB"/>
</svg>
