<svg width="724" height="124" viewBox="0 0 724 124" fill="none" xmlns="http://www.w3.org/2000/svg">
<path d="M332.348 0.479517C325.31 1.40836 316.014 3.57566 310.02 5.74295C295.858 10.9445 287.431 18.499 284.39 28.6544C282.826 34.1036 282.74 37.4474 284.39 42.7728C286.041 48.4697 289.342 52.4947 295.685 56.7673C304.286 62.4642 316.188 66.1177 340.688 70.4523C363.537 74.5392 372.225 76.8922 377.612 80.6076C381.782 83.3322 382.998 85.3757 382.998 89.3387C382.998 93.3018 381.782 95.3452 377.612 98.1318C372.052 101.909 362.321 103.891 349.115 103.891C328.264 103.891 314.277 96.8314 312.105 85.3137L311.497 82.2176H294.555H277.614L278.135 87.1714C280.133 105.315 298.465 118.381 328.264 122.839C338.516 124.387 359.715 124.387 369.966 122.839C396.378 118.814 412.624 108.287 416.534 92.7445C420.009 78.9357 413.059 67.0465 397.247 59.9254C389.341 56.3958 383.346 54.8477 361.279 50.6989C321.748 43.2682 317.491 41.5962 317.491 33.6082C317.491 27.5398 322.791 23.1433 332.435 21.1617C339.298 19.7375 355.545 20.2329 362.147 22.0286C370.401 24.3198 375.961 29.2736 377.438 35.6517L378.046 38.2524H394.814H411.669V35.2801C411.582 19.6137 394.553 6.17641 369.098 1.71797C360.757 0.231826 339.559 -0.449324 332.348 0.479517Z" fill="#0585FB"/>
<path d="M485.342 0.789149C450.417 5.49528 428.349 25.0629 424.527 54.7239C422.094 73.6723 429.218 93.3637 442.945 105.563C451.894 113.551 465.273 119.743 479.869 122.591C485.777 123.706 488.991 123.954 501.589 123.892C515.142 123.892 516.966 123.768 524.177 122.22C537.296 119.371 544.768 116.213 554.151 109.464C570.745 97.6364 578.477 82.5272 578.477 62.0927C578.477 41.6582 570.745 26.549 554.151 14.7218C544.681 7.91027 537.209 4.75221 524.177 2.02761C514.36 -0.0777698 496.029 -0.635075 485.342 0.789149ZM513.404 21.9048C520.094 23.329 524.786 25.4344 529.998 29.5213C535.559 33.794 539.642 39.5528 542.161 46.7978C544.942 54.5381 544.942 69.6473 542.161 77.3876C539.642 84.6326 535.559 90.3914 529.998 94.6641C521.397 101.352 513.057 103.581 498.982 103.148C487.601 102.776 480.825 100.733 473.527 95.3453C453.11 80.4838 453.023 43.7636 473.353 28.9021C478.305 25.3106 484.734 22.524 490.468 21.5952C496.029 20.6664 508.279 20.8521 513.404 21.9048Z" fill="#0585FB"/>
<path d="M0.207842 3.88528C0.0340832 4.19489 -0.0527962 30.6978 0.0340832 62.7119L0.294721 120.919H61.5447H122.795L123.055 110.578L123.229 100.175L78.7468 100.051L34.1777 99.8656V85.3137V70.7619L75.706 70.5761L117.147 70.4523V60.5446V50.637L75.706 50.5131L34.1777 50.3274V37.3236V24.3198L78.7468 24.134L123.229 24.0102L123.055 13.731L122.795 3.45182L61.6316 3.3899C21.5802 3.32797 0.381601 3.45182 0.207842 3.88528Z" fill="#0585FB"/>
<path d="M137.999 62.2165V121.167L154.766 121.043L171.447 120.919L171.708 103.519L171.881 86.1187L193.862 85.7472C217.928 85.3137 226.181 84.4468 237.997 81.1649C260.151 74.9726 272.662 61.7831 272.662 44.4447C272.662 23.5767 255.199 9.33447 224.009 4.81411C215.756 3.63758 211.846 3.51373 176.486 3.38989L137.999 3.26604V62.2165ZM211.672 24.6294C223.835 26.0536 231.655 29.5213 235.998 35.404C237.997 38.1905 238.257 39.2432 238.257 44.4447C238.257 49.6462 237.997 50.6989 235.998 53.4854C231.655 59.3681 223.835 62.8358 211.672 64.26C208.631 64.5696 198.467 64.8792 189.084 64.8792H171.881V44.4447V24.0102H189.084C198.467 24.0102 208.631 24.3198 211.672 24.6294Z" fill="#0585FB"/>
<path d="M591.856 3.88527C591.683 4.19489 591.596 30.6978 591.683 62.7119L591.943 120.919H608.45H624.957L625.218 94.2925C625.305 79.6168 625.044 61.2258 624.61 53.4235C624.262 45.5593 623.915 39.1193 624.002 39.0574C624.089 38.9955 628.519 45.1258 633.906 52.6804C639.553 60.6685 653.193 77.883 666.399 93.6733L689.248 120.919H706.624H724V62.2165V3.51373H707.493L690.986 3.45181L691.073 38.3143C691.073 57.5104 691.333 76.0253 691.681 79.4311L692.289 85.6234L681.603 70.7619C672.828 58.625 629.909 5.99065 627.129 3.94719C626 3.1422 592.291 3.08028 591.856 3.88527Z" fill="#0585FB"/>
</svg>
