<svg width="456" height="200" viewBox="0 0 456 200" fill="none" xmlns="http://www.w3.org/2000/svg">
<g clip-path="url(#clip0_153_58)">
<path d="M62.1236 0.883682C47.9073 3.77001 35.2787 12.1344 24.4595 25.7414C17.4067 34.636 10.3539 48.4197 6.55058 60.7897C4.07657 68.7417 3.30113 72.8062 4.1135 73.572C4.44582 73.9253 24.1641 74.1609 53.9631 74.1021C109.979 74.1021 139.446 73.513 140.073 72.5117C141.033 70.9801 137.525 58.3745 133.427 48.5374C130.325 41.1156 121.795 27.2729 116.736 21.5592C109.794 13.7248 99.8618 6.71524 90.5196 3.18096C82.1744 0.0590187 70.6906 -0.883454 62.1236 0.883682Z" fill="#0585FB"/>
<path d="M122.275 77.7541C116.884 78.3432 103.702 79.6391 92.9198 80.5816C73.3857 82.3487 73.3488 82.3487 60.9789 81.5241C49.495 80.6993 36.4603 79.6391 22.0224 78.2843C9.5046 77.1062 3.41191 76.8706 2.85803 77.6363C2.56262 78.0487 2.11951 79.6391 1.89796 81.2884C1.12252 86.4131 0.273231 86.1775 16.8528 85.7652C24.7918 85.5296 37.4204 85.0583 44.9163 84.7049C58.6896 83.998 91.7382 84.2925 125.414 85.2939C140.184 85.7652 141.698 85.7063 142.141 84.8227C142.658 83.8213 142.474 80.8172 141.735 78.2843C141.292 76.8117 141.218 76.8117 136.676 76.7528C134.128 76.6938 127.667 77.1651 122.275 77.7541Z" fill="#0585FB"/>
<path d="M139.446 88.6515C137.747 88.9461 113.857 91.1255 101.412 92.1268C86.6792 93.3049 52.8553 93.3049 39.3775 92.1268C4.33505 89.1227 1.60256 88.9461 1.12253 90.1241C0.568641 91.5378 0.716343 96.8986 1.34408 97.7232C1.82411 98.3706 5.03664 98.3119 18.4406 97.4872C49.5689 95.5431 54.1846 95.4256 76.2662 95.3668C91.5535 95.3668 102.114 95.6616 110.423 96.309C117.032 96.8389 127.112 97.3109 132.799 97.3697L143.139 97.4284L143.249 94.3064C143.323 92.1268 143.176 90.6542 142.769 89.7117C142.215 88.2981 141.957 88.2391 139.446 88.6515Z" fill="#0585FB"/>
<path d="M125.229 101.905C93.8428 104.084 86.5684 104.32 63.8588 104.026C51.4152 103.849 34.9833 103.318 27.3767 102.789C19.77 102.259 10.7232 101.905 7.2522 101.964L0.974838 102.14V105.439C0.974838 110.269 1.41794 110.859 4.6674 110.446C6.07057 110.269 13.5665 109.563 21.2839 108.915C58.7634 105.792 78.7034 105.734 116.478 108.385C133.723 109.622 142.769 110.034 142.991 109.681C143.507 108.856 143.803 102.906 143.397 101.905C142.88 100.786 141.403 100.786 125.229 101.905Z" fill="#0585FB"/>
<path d="M4.48276 113.627L2.0826 113.921L1.97182 116.101C1.89797 117.279 2.11952 119.164 2.41492 120.342L2.96881 122.463H6.40289C8.2861 122.463 14.7481 121.933 20.73 121.284C26.7119 120.696 37.2727 119.754 44.1778 119.223C51.0829 118.752 59.8342 118.045 63.6747 117.751C71.2441 117.161 87.1225 117.986 109.351 120.106C116.146 120.754 126.079 121.579 131.433 121.991C142.769 122.816 142.215 123.052 142.326 117.102L142.4 113.333L133.907 113.391C129.254 113.45 117.844 113.921 108.576 114.452C87.6022 115.629 60.6466 115.629 34.8356 114.511C23.9425 114.04 13.1972 113.568 10.9447 113.509C8.72919 113.391 5.81208 113.45 4.48276 113.627Z" fill="#0585FB"/>
<path d="M5.11048 125.82C4.51968 125.997 4.00272 126.409 3.89194 126.822C3.78116 127.234 4.15042 129.531 4.7043 131.946C7.95377 146.378 14.5634 160.927 22.7609 171.883C47.4272 204.634 84.5007 209.288 112.047 183.135C125.193 170.646 135.236 152.504 139.631 133.183C140.959 127.293 140.996 126.232 139.926 125.761C139.003 125.408 6.77214 125.467 5.11048 125.82Z" fill="#0585FB"/>
<path d="M192.803 80.8172C190.514 81.8186 188.778 83.6446 186.895 86.8844C184.421 91.1844 183.757 94.0707 183.757 100.668C183.757 105.616 183.867 106.676 184.79 109.622C186.083 113.863 188.372 117.515 190.957 119.459C193.874 121.638 198.01 121.638 200.964 119.459C203.512 117.515 205.727 114.099 207.094 109.975C208.017 107.148 208.127 106.264 208.127 100.962C208.127 95.8379 208.017 94.6597 207.167 91.8323C204.619 83.2322 198.268 78.3432 192.803 80.8172ZM199.044 87.12C202.035 89.5351 203.623 94.1296 203.66 100.668C203.66 104.143 203.512 105.675 202.847 107.854C199.819 117.691 192.692 118.103 189.406 108.62C187.56 103.142 187.744 96.6626 189.96 91.42C192.139 86.2953 195.868 84.5281 199.044 87.12Z" fill="white"/>
<path d="M384.447 80.8172C382.158 81.8186 380.422 83.6447 378.576 86.8255C376.102 91.0666 375.437 94.0707 375.4 100.668C375.4 107.442 376.102 110.269 378.908 115.041C381.493 119.4 383.746 120.931 387.586 120.991C392.497 120.991 396.152 117.515 398.516 110.564C399.734 107.029 399.771 106.558 399.771 100.668C399.771 95.0133 399.66 94.1886 398.737 91.3612C395.931 82.8789 389.838 78.4021 384.447 80.8172ZM390.688 87.12C393.457 89.3584 395.525 95.1308 395.525 100.668C395.525 106.323 393.162 112.803 390.466 114.628C386.921 116.926 382.822 114.334 380.976 108.502C377.099 96.2503 383.82 81.4651 390.688 87.12Z" fill="white"/>
<path d="M159.939 100.962V120.696H161.97H164.001V100.962V81.2295H161.97H159.939V100.962Z" fill="white"/>
<path d="M172.457 87.8857C170.315 91.5378 168.063 95.3669 167.472 96.4863L166.439 98.4882L167.325 99.4313C170.5 102.671 176.224 113.804 177.331 118.869C177.738 120.637 177.775 120.696 180.101 120.696C181.393 120.696 182.464 120.578 182.464 120.401C182.464 120.283 182.132 118.752 181.689 117.044C180.433 111.919 178.402 107.148 175.337 102.023L172.42 97.1337L175.005 92.5981C176.445 90.0652 178.439 86.7077 179.473 85.0583C180.507 83.4679 181.356 81.9364 181.356 81.7008C181.356 81.4651 180.249 81.2295 178.882 81.2885H176.371L172.457 87.8857Z" fill="white"/>
<path d="M212.374 100.962V120.696H214.405H216.436V105.675C216.436 96.4266 216.584 90.6542 216.805 90.6542C217.507 90.6542 222.085 98.0758 224.375 102.906C225.667 105.675 227.661 110.8 228.806 114.334L230.874 120.696H232.535H234.16V100.962V81.2295H232.129H230.098V93.0693V104.909L228.548 101.198C226.331 95.9555 222.381 89.4761 218.651 84.9994C215.955 81.7596 215.291 81.2295 213.962 81.2295H212.374V100.962Z" fill="white"/>
<path d="M240.437 100.963V120.755L242.579 120.578L244.684 120.401V100.963V81.5241L242.579 81.3473L240.437 81.1707V100.963Z" fill="white"/>
<path d="M258.937 82.4076C253.029 84.8816 249.816 90.183 249.152 98.6066C248.192 110.328 253.287 118.634 262.224 120.106C266.47 120.813 267.024 120.578 267.024 117.751V115.571L264.217 115.217C256.131 114.275 251.7 104.202 254.875 94.0707C256.242 89.7117 260.451 86.5309 264.845 86.5309H267.024V83.8803V81.2296L264.365 81.2884C262.888 81.2884 260.451 81.8186 258.937 82.4076Z" fill="white"/>
<path d="M278.914 84.8227C271.159 112.331 269.239 119.341 269.239 119.989C269.239 120.518 269.793 120.696 271.159 120.578L273.079 120.401L276.403 108.149C278.212 101.434 279.837 95.9555 279.984 95.9555C280.132 95.9555 282.053 101.493 284.231 108.326L288.219 120.696H290.545C291.837 120.696 292.871 120.46 292.871 120.225C292.871 119.754 280.428 81.8186 280.132 81.2884C280.021 81.1706 279.505 82.761 278.914 84.8227Z" fill="white"/>
<path d="M309.562 82.7021C308.676 85.8241 303.211 117.986 303.211 120.106C303.211 120.46 304.097 120.696 305.353 120.696H307.531L309.266 108.208C310.227 101.316 311.076 95.6019 311.15 95.4844C311.519 94.8957 315.174 107.029 317.206 115.512C317.538 116.926 317.796 117.161 319.089 117.161C320.381 117.161 320.64 116.926 320.972 115.512C323.003 106.971 326.659 94.8957 327.028 95.4844C327.175 95.7204 330.536 119.576 330.536 120.342C330.536 120.518 331.533 120.696 332.751 120.696C334.265 120.696 334.967 120.46 334.967 119.93C334.967 117.279 329.243 84.4693 328.32 81.8775C328.098 81.2295 327.434 82.4076 325.883 86.2953C323.594 91.8913 319.458 104.379 319.458 105.734C319.458 106.205 319.31 106.558 319.089 106.558C318.904 106.558 318.719 106.205 318.719 105.734C318.719 104.262 314.769 92.1858 312.479 86.6487C311.261 83.7035 310.19 81.2295 310.116 81.2295C310.042 81.2295 309.784 81.8775 309.562 82.7021Z" fill="white"/>
<path d="M339.029 100.962V120.696H341.022H343.016L343.201 117.044C343.312 114.982 343.386 106.146 343.349 97.4285L343.275 81.5241L341.17 81.3473L339.029 81.1707V100.962Z" fill="white"/>
<path d="M349.737 100.962V120.696H351.546C352.839 120.696 353.43 120.46 353.577 119.754C353.688 119.223 353.799 112.508 353.799 104.733C353.799 94.9545 353.909 90.6542 354.205 90.6542C354.427 90.6542 355.977 92.8926 357.676 95.6019C360.999 100.962 365.172 110.505 366.907 116.749L368.015 120.637L369.788 120.696H371.523V100.962V81.2295H369.492H367.462L367.388 93.0693L367.277 104.85L365.615 100.845C363.658 96.0142 358.562 87.768 355.239 83.998C353.282 81.7596 352.469 81.2295 351.251 81.2295H349.737V100.962Z" fill="white"/>
<path d="M404.017 100.962V120.696H411.033H418.049V118.045V115.394H413.249H408.449V98.3119V81.2295H406.233H404.017V100.962Z" fill="white"/>
<path d="M416.203 83.8803V86.5309H419.342H422.48L422.554 103.437L422.665 120.401L424.807 120.578L426.912 120.754V103.613V86.5309H430.05H433.189V83.8803V81.2296H424.696H416.203V83.8803Z" fill="white"/>
<path d="M440.906 83.9392C440.463 85.5296 438.026 94.1296 435.515 102.965C433.041 111.86 430.973 119.518 430.973 119.989C430.973 120.578 431.453 120.696 432.894 120.578L434.814 120.401L438.137 108.149C439.946 101.434 441.571 95.9555 441.719 95.9555C441.866 95.9555 443.786 101.493 445.965 108.326L449.953 120.696H452.279C453.572 120.696 454.606 120.46 454.606 120.225C454.606 119.754 442.162 81.8186 441.866 81.2885C441.756 81.1706 441.312 82.3487 440.906 83.9392Z" fill="white"/>
</g>
<defs>
<clipPath id="clip0_153_58">
<rect width="454.424" height="200" fill="white" transform="translate(0.77948)"/>
</clipPath>
</defs>
</svg>
