<svg width="738" height="211" viewBox="0 0 738 211" fill="none" xmlns="http://www.w3.org/2000/svg">
<path d="M99.6249 0.932279C76.5371 3.97735 56.0279 12.8018 38.4571 27.1572C27.0032 36.541 15.5492 51.0828 9.37247 64.1331C5.35459 72.5225 4.09525 76.8105 5.41456 77.6184C5.95427 77.9912 37.9774 78.2398 86.3719 78.1777C177.344 78.1777 225.199 77.5562 226.218 76.4998C227.777 74.884 222.08 61.5851 215.424 51.207C210.387 43.3769 196.534 28.7729 188.318 22.7449C177.044 14.4797 160.913 7.08457 145.741 3.35591C132.188 0.0622589 113.538 -0.93205 99.6249 0.932279Z" fill="#0585FB"/>
<path d="M197.313 82.0306C188.558 82.6521 167.149 84.0192 149.639 85.0136C117.915 86.8779 117.855 86.8779 97.7659 86.0079C79.1157 85.1378 57.9469 84.0192 34.4992 82.5899C14.1699 81.347 4.27516 81.0985 3.37564 81.9063C2.89589 82.3414 2.17627 84.0192 1.81646 85.7593C0.557121 91.1658 -0.822153 90.9173 26.1037 90.4823C38.9969 90.2337 59.5061 89.7365 71.6796 89.3637C94.0479 88.6179 147.72 88.9286 202.411 89.9851C226.398 90.4823 228.857 90.4201 229.576 89.4879C230.416 88.4315 230.116 85.2621 228.917 82.5899C228.197 81.0363 228.077 81.0363 220.701 80.9742C216.563 80.912 206.069 81.4092 197.313 82.0306Z" fill="#0585FB"/>
<path d="M225.199 93.5273C222.44 93.8381 183.641 96.1374 163.431 97.1938C139.504 98.4367 84.5728 98.4367 62.6844 97.1938C5.77437 94.0245 1.33671 93.8381 0.557117 95.0809C-0.342409 96.5724 -0.102536 102.228 0.916927 103.098C1.69652 103.781 6.91377 103.719 28.6823 102.849C79.2357 100.798 86.7317 100.674 122.593 100.612C147.42 100.612 164.571 100.923 178.064 101.606C188.798 102.165 205.169 102.663 214.404 102.725L231.196 102.787L231.375 99.4932C231.495 97.1938 231.256 95.6402 230.596 94.6459C229.696 93.1545 229.277 93.0923 225.199 93.5273Z" fill="#0585FB"/>
<path d="M202.111 107.51C151.138 109.809 139.324 110.058 102.443 109.747C82.2341 109.561 55.5482 109.001 43.1947 108.442C30.8412 107.883 16.1489 107.51 10.5119 107.572L0.317261 107.758V111.238C0.317261 116.334 1.03688 116.956 6.3141 116.521C8.5929 116.334 20.7665 115.589 33.2999 114.905C94.1678 111.611 126.551 111.549 187.898 114.346C215.904 115.651 230.596 116.086 230.956 115.713C231.795 114.843 232.275 108.566 231.615 107.51C230.776 106.329 228.377 106.329 202.111 107.51Z" fill="#0585FB"/>
<path d="M6.01424 119.877L2.1163 120.187L1.93639 122.487C1.81646 123.729 2.17627 125.718 2.65601 126.961L3.55554 129.198H9.1326C12.191 129.198 22.6855 128.639 32.4003 127.955C42.1152 127.334 59.2662 126.34 70.4803 125.78C81.6944 125.283 95.9069 124.537 102.144 124.227C114.437 123.605 140.224 124.475 176.324 126.712C187.359 127.396 203.49 128.266 212.186 128.701C230.596 129.571 229.696 129.82 229.876 123.543L229.996 119.566L216.203 119.628C208.647 119.69 190.117 120.187 175.065 120.747C141.003 121.989 97.2262 121.989 55.3083 120.809C37.6176 120.312 20.1668 119.814 16.5087 119.752C12.9106 119.628 8.17311 119.69 6.01424 119.877Z" fill="#0585FB"/>
<path d="M7.0337 132.74C6.07421 132.927 5.23465 133.362 5.05474 133.797C4.87484 134.232 5.47452 136.655 6.37405 139.203C11.6513 154.429 22.3856 169.778 35.6986 181.337C75.7575 215.889 135.966 220.799 180.702 193.207C202.051 180.032 218.362 160.892 225.499 140.508C227.657 134.294 227.717 133.175 225.978 132.678C224.479 132.305 9.73228 132.368 7.0337 132.74Z" fill="#0585FB"/>
<path d="M311.853 85.2621C308.135 86.3186 305.316 88.245 302.258 91.663C298.24 96.1995 297.161 99.2446 297.161 106.205C297.161 111.425 297.341 112.543 298.84 115.651C300.939 120.125 304.657 123.978 308.855 126.029C313.592 128.328 320.309 128.328 325.106 126.029C329.244 123.978 332.842 120.374 335.061 116.024C336.56 113.041 336.74 112.108 336.74 106.515C336.74 101.109 336.56 99.866 335.181 96.8831C331.043 87.81 320.728 82.6521 311.853 85.2621ZM321.988 91.9116C326.845 94.4595 329.424 99.3067 329.484 106.205C329.484 109.871 329.244 111.487 328.164 113.786C323.247 124.164 311.673 124.599 306.336 114.594C303.338 108.815 303.637 101.979 307.235 96.4481C310.774 91.0415 316.83 89.1772 321.988 91.9116Z" fill="black"/>
<path d="M623.089 85.2621C619.371 86.3186 616.553 88.2451 613.554 91.6009C609.536 96.0752 608.457 99.2446 608.397 106.205C608.397 113.351 609.536 116.334 614.094 121.368C618.292 125.967 621.95 127.582 628.186 127.645C636.162 127.645 642.099 123.978 645.937 116.645C647.916 112.916 647.976 112.419 647.976 106.205C647.976 100.239 647.796 99.3689 646.297 96.386C641.739 87.4372 631.844 82.7142 623.089 85.2621ZM633.224 91.9116C637.721 94.2731 641.08 100.363 641.08 106.205C641.08 112.171 637.242 119.007 632.864 120.933C627.107 123.357 620.45 120.622 617.452 114.47C611.155 101.544 622.07 85.9457 633.224 91.9116Z" fill="black"/>
<path d="M258.481 106.515V127.334H261.779H265.078V106.515V85.6971H261.779H258.481V106.515Z" fill="black"/>
<path d="M278.81 92.7194C275.332 96.5724 271.674 100.612 270.715 101.793L269.036 103.905L270.475 104.9C275.632 108.318 284.927 120.063 286.726 125.407C287.386 127.272 287.446 127.334 291.224 127.334C293.323 127.334 295.062 127.21 295.062 127.023C295.062 126.899 294.522 125.283 293.803 123.481C291.764 118.074 288.465 113.041 283.488 107.634L278.75 102.476L282.948 97.691C285.287 95.0188 288.525 91.4766 290.204 89.7365C291.884 88.0586 293.263 86.4429 293.263 86.1943C293.263 85.9457 291.464 85.6971 289.245 85.7593H285.167L278.81 92.7194Z" fill="black"/>
<path d="M343.636 106.515V127.334H346.935H350.233V111.487C350.233 101.73 350.473 95.6402 350.833 95.6402C351.972 95.6402 359.408 103.47 363.126 108.566C365.225 111.487 368.463 116.894 370.322 120.622L373.681 127.334H376.379H379.018V106.515V85.6971H375.719H372.421V98.1881V110.679L369.903 106.764C366.304 101.233 359.888 94.3973 353.831 89.6744C349.453 86.2564 348.374 85.6971 346.215 85.6971H343.636V106.515Z" fill="black"/>
<path d="M389.212 106.516V127.396L392.69 127.21L396.109 127.023V106.516V86.0079L392.69 85.8214L389.212 85.635V106.516Z" fill="black"/>
<path d="M419.256 86.94C409.661 89.5501 404.444 95.1431 403.365 104.03C401.806 116.396 410.081 125.159 424.594 126.712C431.49 127.458 432.39 127.21 432.39 124.227V121.927L427.832 121.554C414.699 120.56 407.503 109.933 412.66 99.2446C414.879 94.6459 421.715 91.2901 428.851 91.2901H432.39V88.4937V85.6972L428.072 85.7593C425.673 85.7593 421.715 86.3186 419.256 86.94Z" fill="black"/>
<path d="M451.699 89.4879C439.106 118.509 435.988 125.905 435.988 126.588C435.988 127.147 436.887 127.334 439.106 127.21L442.224 127.023L447.622 114.097C450.56 107.013 453.199 101.233 453.438 101.233C453.678 101.233 456.797 107.075 460.335 114.284L466.811 127.334H470.589C472.688 127.334 474.367 127.085 474.367 126.837C474.367 126.34 454.158 86.3186 453.678 85.7593C453.498 85.635 452.659 87.3129 451.699 89.4879Z" fill="black"/>
<path d="M501.473 87.2507C500.034 90.5444 491.159 124.475 491.159 126.712C491.159 127.085 492.598 127.334 494.637 127.334H498.175L500.993 114.159C502.553 106.888 503.932 100.86 504.052 100.736C504.651 100.115 510.588 112.916 513.887 121.865C514.426 123.357 514.846 123.605 516.945 123.605C519.044 123.605 519.464 123.357 520.003 121.865C523.302 112.854 529.239 100.115 529.838 100.736C530.078 100.985 535.535 126.153 535.535 126.961C535.535 127.147 537.154 127.334 539.133 127.334C541.592 127.334 542.731 127.085 542.731 126.526C542.731 123.729 533.436 89.1151 531.937 86.3807C531.577 85.6971 530.498 86.94 527.979 91.0415C524.261 96.9453 517.545 110.12 517.545 111.549C517.545 112.046 517.305 112.419 516.945 112.419C516.645 112.419 516.345 112.046 516.345 111.549C516.345 109.996 509.929 97.256 506.211 91.4144C504.232 88.3072 502.493 85.6971 502.373 85.6971C502.253 85.6971 501.833 86.3807 501.473 87.2507Z" fill="black"/>
<path d="M549.328 106.515V127.334H552.566H555.804L556.104 123.481C556.284 121.306 556.404 111.984 556.344 102.787L556.224 86.0079L552.806 85.8214L549.328 85.635V106.515Z" fill="black"/>
<path d="M566.719 106.515V127.334H569.657C571.756 127.334 572.716 127.085 572.955 126.34C573.135 125.78 573.315 118.696 573.315 110.493C573.315 100.177 573.495 95.6402 573.975 95.6402C574.335 95.6402 576.853 98.0017 579.612 100.86C585.009 106.515 591.786 116.583 594.604 123.17L596.403 127.272L599.282 127.334H602.1V106.515V85.6971H598.802H595.504L595.384 98.1881L595.204 110.617L592.505 106.391C589.327 101.295 581.051 92.5952 575.654 88.6179C572.476 86.2564 571.156 85.6971 569.177 85.6971H566.719V106.515Z" fill="black"/>
<path d="M654.872 106.515V127.334H666.266H677.66V124.537V121.741H669.864H662.069V103.719V85.6971H658.47H654.872V106.515Z" fill="black"/>
<path d="M674.662 88.4937V91.2901H679.759H684.856L684.976 109.126L685.156 127.023L688.635 127.21L692.053 127.396V109.312V91.2901H697.15H702.247V88.4937V85.6972H688.455H674.662V88.4937Z" fill="black"/>
<path d="M714.781 88.5558C714.061 90.2337 710.103 99.3067 706.025 108.628C702.007 118.012 698.649 126.091 698.649 126.588C698.649 127.21 699.429 127.334 701.768 127.21L704.886 127.023L710.283 114.097C713.221 107.013 715.86 101.233 716.1 101.233C716.34 101.233 719.458 107.075 722.996 114.284L729.473 127.334H733.251C735.35 127.334 737.029 127.085 737.029 126.837C737.029 126.34 716.82 86.3186 716.34 85.7593C716.16 85.635 715.44 86.8779 714.781 88.5558Z" fill="black"/>
</svg>
