<svg id="svg" version="1.1" xmlns="http://www.w3.org/2000/svg" xmlns:xlink="http://www.w3.org/1999/xlink" width="400" height="266.6666666666667" viewBox="0, 0, 400,266.6666666666667"><g id="svgg"><path id="path0" d="M182.166 88.084 C 182.075 88.325,182.000 88.557,182.000 88.599 C 182.000 88.734,179.666 93.388,179.250 94.083 C 179.030 94.450,178.773 94.900,178.678 95.083 C 178.583 95.267,178.319 95.717,178.090 96.083 C 177.862 96.450,177.522 97.013,177.336 97.333 C 176.836 98.193,176.648 98.481,175.958 99.445 C 175.615 99.926,175.333 100.397,175.333 100.493 C 175.333 100.588,175.275 100.667,175.203 100.667 C 175.131 100.667,174.937 100.895,174.773 101.173 C 174.608 101.452,173.976 102.333,173.368 103.131 C 171.995 104.935,171.980 104.954,171.625 105.345 C 171.465 105.522,171.333 105.735,171.333 105.819 C 171.333 105.903,171.267 105.997,171.186 106.028 C 171.105 106.058,170.626 106.590,170.120 107.209 C 167.431 110.501,161.929 116.050,158.323 119.106 C 157.905 119.460,157.165 120.087,156.678 120.500 C 156.191 120.912,155.292 121.625,154.681 122.083 C 154.069 122.542,153.459 123.013,153.326 123.131 C 153.106 123.326,150.357 125.331,149.333 126.044 C 148.434 126.670,146.568 127.923,146.299 128.082 C 146.143 128.174,145.482 128.587,144.829 129.000 C 144.177 129.412,143.442 129.877,143.197 130.032 C 142.816 130.271,141.660 130.944,139.813 132.000 C 139.572 132.137,139.085 132.406,138.729 132.597 C 138.374 132.788,137.633 133.191,137.083 133.494 C 134.243 135.057,130.541 136.803,125.417 138.997 C 125.233 139.076,124.643 139.334,124.105 139.570 C 123.567 139.807,123.053 140.000,122.963 140.000 C 122.874 140.000,122.564 140.107,122.275 140.238 C 121.800 140.454,121.239 140.670,118.583 141.658 C 117.352 142.117,113.977 143.213,110.333 144.337 C 107.046 145.351,101.208 146.830,97.250 147.651 C 87.507 149.672,79.557 150.780,68.917 151.599 C 65.086 151.894,65.241 151.842,64.320 153.160 C 63.966 153.668,63.333 154.533,62.914 155.083 C 61.967 156.326,60.704 157.999,59.923 159.046 C 59.238 159.964,59.188 159.924,61.250 160.100 C 71.307 160.958,86.372 159.664,98.333 156.914 C 99.296 156.693,100.404 156.462,100.795 156.401 C 101.187 156.339,101.548 156.224,101.597 156.145 C 101.646 156.065,101.845 156.000,102.040 156.000 C 102.234 156.000,102.923 155.842,103.572 155.649 C 104.220 155.456,105.275 155.146,105.917 154.958 C 108.546 154.191,111.898 153.111,114.125 152.313 C 118.512 150.742,122.163 149.229,126.713 147.097 C 127.609 146.677,128.409 146.333,128.491 146.333 C 128.572 146.333,128.664 146.277,128.694 146.208 C 128.725 146.140,129.795 145.558,131.073 144.917 C 133.323 143.786,136.542 141.996,138.750 140.647 C 139.025 140.479,139.541 140.171,139.898 139.963 C 141.017 139.307,141.506 138.992,144.583 136.941 C 146.730 135.510,147.722 134.816,150.152 133.043 C 150.886 132.508,151.747 131.844,152.000 131.618 C 152.137 131.495,152.794 130.995,153.458 130.508 C 154.123 130.020,154.667 129.556,154.667 129.477 C 154.667 129.398,154.762 129.333,154.880 129.333 C 154.997 129.333,155.216 129.202,155.368 129.042 C 155.519 128.881,155.764 128.651,155.911 128.529 C 156.058 128.408,156.645 127.928,157.215 127.463 C 157.784 126.997,158.415 126.459,158.617 126.267 C 158.819 126.074,159.082 125.838,159.201 125.742 C 159.319 125.646,160.127 124.933,160.995 124.159 C 162.104 123.169,162.453 122.923,162.169 123.333 C 161.947 123.654,161.725 123.954,161.674 124.000 C 161.624 124.046,161.378 124.383,161.128 124.750 C 160.878 125.117,160.484 125.635,160.253 125.901 C 160.022 126.167,159.833 126.434,159.833 126.494 C 159.833 126.554,159.619 126.824,159.358 127.093 C 159.096 127.363,158.478 128.071,157.985 128.667 C 156.925 129.945,152.844 134.092,151.417 135.340 C 150.867 135.821,150.154 136.451,149.833 136.740 C 145.740 140.423,137.964 145.818,131.833 149.230 C 130.650 149.889,122.707 153.839,121.500 154.370 C 121.087 154.551,120.525 154.799,120.250 154.920 C 119.662 155.180,117.898 155.908,116.833 156.330 C 116.421 156.494,115.708 156.777,115.250 156.960 C 114.792 157.143,114.004 157.444,113.500 157.628 C 111.513 158.353,110.549 158.711,109.769 159.016 C 109.322 159.190,108.863 159.333,108.750 159.333 C 108.637 159.333,108.178 159.472,107.731 159.642 C 107.283 159.812,106.354 160.121,105.667 160.327 C 104.979 160.534,104.004 160.836,103.500 160.999 C 102.088 161.455,99.489 162.165,96.250 162.981 C 92.837 163.841,90.831 164.294,87.417 164.977 C 86.500 165.160,84.999 165.466,84.082 165.655 C 83.164 165.845,82.264 165.999,82.082 165.997 C 81.899 165.996,80.925 166.142,79.917 166.322 C 73.952 167.388,64.303 168.438,56.613 168.858 C 53.144 169.048,53.143 169.048,52.868 169.482 C 52.451 170.142,51.599 171.243,51.458 171.306 C 51.390 171.336,51.333 171.426,51.333 171.505 C 51.333 171.584,50.645 172.571,49.805 173.699 C 48.964 174.827,47.918 176.237,47.480 176.833 C 47.042 177.429,46.530 178.116,46.342 178.360 C 46.154 178.603,46.000 178.852,46.000 178.912 C 46.000 179.047,51.481 178.908,51.621 178.768 C 51.677 178.712,52.366 178.667,53.153 178.668 C 58.258 178.675,74.680 176.434,85.083 174.312 C 89.066 173.500,94.293 172.221,98.750 170.968 C 101.378 170.229,104.125 169.403,105.250 169.013 C 105.708 168.854,106.608 168.554,107.250 168.346 C 107.892 168.138,108.792 167.831,109.250 167.662 C 109.708 167.494,110.533 167.195,111.083 166.997 C 111.633 166.800,112.421 166.504,112.833 166.339 C 113.246 166.175,114.033 165.874,114.583 165.672 C 115.133 165.469,115.883 165.169,116.250 165.004 C 116.617 164.839,117.404 164.503,118.000 164.256 C 119.191 163.763,119.399 163.671,121.583 162.659 C 122.849 162.072,125.799 160.635,126.667 160.182 C 127.930 159.523,128.866 159.009,130.304 158.186 C 131.468 157.520,131.465 157.522,133.001 156.600 C 134.616 155.629,138.575 152.965,138.639 152.806 C 138.669 152.729,138.768 152.667,138.858 152.667 C 138.949 152.667,139.449 152.330,139.970 151.919 C 140.490 151.508,141.091 151.039,141.305 150.878 C 141.519 150.716,141.793 150.491,141.915 150.379 C 142.036 150.266,142.612 149.794,143.193 149.329 C 146.218 146.913,150.207 142.907,152.795 139.687 C 153.504 138.806,154.196 137.965,154.333 137.818 C 154.471 137.671,154.733 137.338,154.917 137.078 C 155.100 136.818,155.555 136.226,155.927 135.761 C 156.586 134.940,157.579 133.572,157.917 133.022 C 158.008 132.872,158.121 132.712,158.168 132.667 C 158.306 132.530,159.237 131.276,159.417 130.985 C 159.728 130.480,160.916 128.751,161.083 128.559 C 161.175 128.454,161.700 127.640,162.250 126.750 C 162.800 125.861,163.419 124.923,163.625 124.667 C 163.831 124.411,164.000 124.163,164.000 124.115 C 164.000 124.067,164.603 123.078,165.340 121.917 C 168.810 116.450,174.377 106.149,177.545 99.333 C 177.955 98.451,178.494 97.277,179.383 95.333 C 180.046 93.884,180.417 93.036,181.167 91.250 C 181.552 90.333,182.042 89.191,182.256 88.712 C 182.476 88.219,182.577 87.798,182.489 87.743 C 182.403 87.690,182.258 87.844,182.166 88.084 " stroke="none" fill="#cc3453" fill-rule="evenodd"></path><path id="path1" d="M190.833 130.153 C 190.421 130.221,189.483 130.370,188.750 130.484 C 184.719 131.112,179.869 132.515,176.583 134.003 C 175.942 134.294,175.267 134.600,175.083 134.682 C 174.900 134.765,174.375 135.052,173.917 135.321 C 173.458 135.589,172.840 135.935,172.542 136.090 C 172.244 136.245,172.000 136.438,172.000 136.519 C 172.000 136.600,171.918 136.667,171.818 136.667 C 171.262 136.667,167.859 139.582,166.080 141.583 C 165.248 142.519,163.624 144.893,163.401 145.500 C 163.350 145.637,163.239 145.881,163.155 146.042 C 161.440 149.279,160.797 152.286,160.707 157.500 C 160.621 162.472,160.920 164.102,162.524 167.417 C 163.039 168.482,163.139 168.655,163.911 169.831 C 164.878 171.301,166.495 172.949,168.000 173.995 C 168.321 174.218,168.621 174.442,168.667 174.492 C 168.924 174.774,172.019 176.323,173.212 176.766 C 176.240 177.892,179.363 178.478,183.500 178.696 C 191.298 179.108,197.444 178.523,201.420 176.989 C 201.880 176.812,202.347 176.667,202.457 176.667 C 203.206 176.667,207.719 174.279,209.667 172.853 C 211.510 171.502,215.333 167.505,215.333 166.929 C 215.333 166.884,215.528 166.564,215.766 166.216 C 216.787 164.723,217.997 161.856,218.901 158.793 C 220.332 153.939,220.371 147.191,218.987 143.580 C 218.811 143.120,218.667 142.685,218.667 142.613 C 218.667 142.541,218.370 141.888,218.007 141.161 C 215.089 135.313,209.521 131.788,201.000 130.395 C 199.113 130.087,192.230 129.923,190.833 130.153 M223.439 131.875 C 223.307 132.823,222.657 137.339,222.329 139.583 C 222.155 140.775,221.855 142.837,221.661 144.167 C 221.235 147.095,220.754 150.369,220.339 153.167 C 220.170 154.313,219.869 156.375,219.671 157.750 C 219.308 160.278,218.916 162.964,218.333 166.917 C 218.157 168.108,217.856 170.171,217.665 171.500 C 217.119 175.285,216.818 177.225,216.727 177.542 C 216.649 177.816,217.057 177.833,223.655 177.833 L 230.667 177.833 230.666 177.375 C 230.666 177.123,230.819 176.017,231.007 174.917 C 231.417 172.512,231.868 169.707,232.333 166.667 C 232.522 165.429,232.796 163.742,232.943 162.917 C 233.089 162.092,233.262 160.929,233.328 160.333 C 233.394 159.737,233.576 158.500,233.732 157.583 C 233.889 156.667,234.169 154.942,234.355 153.750 C 234.776 151.045,235.220 148.222,235.663 145.417 C 235.851 144.225,236.065 142.837,236.139 142.333 L 236.273 141.417 236.487 142.167 C 236.605 142.579,236.837 143.404,237.004 144.000 C 237.170 144.596,237.430 145.518,237.581 146.050 C 237.732 146.582,237.886 147.182,237.923 147.384 C 237.961 147.585,238.135 148.237,238.311 148.833 C 238.614 149.856,238.982 151.175,239.661 153.667 C 239.823 154.262,240.116 155.331,240.311 156.042 C 240.507 156.752,240.827 157.915,241.022 158.625 C 241.384 159.940,241.683 161.038,242.330 163.417 C 242.529 164.150,242.828 165.237,242.994 165.833 C 243.160 166.429,243.459 167.517,243.658 168.250 C 243.857 168.983,244.158 170.071,244.328 170.667 C 244.497 171.262,244.798 172.350,244.996 173.083 C 245.194 173.817,245.497 174.904,245.668 175.500 C 245.840 176.096,246.031 176.865,246.092 177.208 L 246.204 177.833 252.669 177.833 L 259.134 177.833 259.516 177.208 C 260.040 176.352,260.333 175.839,260.635 175.250 C 260.775 174.975,260.942 174.713,261.006 174.667 C 261.069 174.621,261.362 174.133,261.656 173.583 C 261.951 173.033,262.409 172.246,262.676 171.833 C 262.942 171.421,263.235 170.933,263.327 170.750 C 263.419 170.567,263.680 170.117,263.906 169.750 C 264.133 169.383,264.625 168.558,265.000 167.917 C 265.376 167.275,265.819 166.525,265.985 166.250 C 266.151 165.975,266.429 165.510,266.602 165.218 C 266.775 164.925,267.289 164.062,267.745 163.301 C 268.200 162.540,268.657 161.767,268.760 161.583 C 268.864 161.400,269.091 161.013,269.266 160.723 C 270.187 159.196,270.667 158.321,270.667 158.169 C 270.667 158.076,270.737 158.000,270.822 158.000 C 270.908 158.000,271.023 157.856,271.079 157.679 C 271.135 157.503,271.370 157.080,271.600 156.741 C 271.831 156.401,272.209 155.776,272.439 155.353 C 272.670 154.930,273.073 154.246,273.336 153.833 C 273.598 153.421,273.918 152.896,274.046 152.667 C 274.452 151.940,275.037 150.934,275.353 150.417 C 275.521 150.142,275.812 149.654,276.000 149.333 C 276.188 149.012,276.490 148.506,276.671 148.208 C 277.290 147.190,277.651 146.583,278.333 145.417 C 278.708 144.775,279.201 143.950,279.427 143.583 C 279.654 143.217,279.908 142.755,279.993 142.558 C 280.249 141.959,280.564 141.873,280.449 142.434 C 280.394 142.699,280.267 143.554,280.167 144.333 C 280.067 145.112,279.838 146.800,279.658 148.083 C 279.217 151.233,278.726 154.757,278.329 157.625 C 278.148 158.931,277.852 161.069,277.671 162.375 C 276.776 168.843,276.627 169.912,276.334 172.000 C 276.160 173.237,275.937 174.887,275.839 175.667 C 275.742 176.446,275.616 177.252,275.561 177.459 L 275.461 177.835 290.325 177.793 L 305.189 177.750 305.755 176.750 C 306.768 174.962,307.191 174.231,308.071 172.750 L 308.467 172.083 321.802 172.041 L 335.137 171.998 335.242 172.707 C 335.300 173.097,335.489 174.054,335.661 174.833 C 335.834 175.612,336.038 176.588,336.114 177.000 L 336.251 177.750 345.126 177.793 C 350.007 177.817,354.000 177.788,354.000 177.728 C 354.000 177.668,353.701 176.711,353.336 175.601 C 352.971 174.491,352.510 173.058,352.312 172.417 C 352.114 171.775,351.821 170.875,351.662 170.417 C 351.502 169.958,351.202 169.021,350.994 168.333 C 350.786 167.646,350.486 166.708,350.327 166.250 C 350.051 165.452,349.470 163.638,347.982 158.917 C 347.606 157.725,347.168 156.375,347.009 155.917 C 346.850 155.458,346.546 154.521,346.335 153.833 C 346.124 153.146,345.821 152.208,345.662 151.750 C 345.502 151.292,345.202 150.354,344.994 149.667 C 344.786 148.979,344.488 148.042,344.332 147.583 C 344.176 147.125,343.877 146.188,343.667 145.500 C 343.457 144.813,343.156 143.875,342.998 143.417 C 342.841 142.958,342.394 141.571,342.005 140.333 C 341.617 139.096,341.169 137.708,341.010 137.250 C 340.851 136.792,340.551 135.854,340.342 135.167 C 340.134 134.479,339.822 133.550,339.648 133.103 C 339.475 132.655,339.333 132.149,339.333 131.978 C 339.333 131.539,327.083 131.498,325.219 131.930 C 322.971 132.451,320.525 133.962,318.238 136.242 C 316.672 137.802,314.000 141.326,314.000 141.830 C 314.000 141.923,313.934 142.000,313.852 142.000 C 313.771 142.000,313.585 142.252,313.439 142.560 C 313.292 142.869,313.059 143.215,312.920 143.331 C 312.781 143.446,312.667 143.603,312.667 143.680 C 312.667 143.756,312.478 144.103,312.247 144.451 C 311.740 145.215,311.886 144.993,309.791 148.187 C 308.852 149.619,308.008 150.901,307.917 151.037 C 307.825 151.172,307.527 151.613,307.253 152.017 C 306.980 152.420,306.680 152.876,306.587 153.030 C 306.271 153.549,302.421 159.249,302.329 159.333 C 302.238 159.417,301.066 161.127,300.747 161.642 C 300.653 161.793,300.353 162.247,300.080 162.650 C 299.807 163.053,299.508 163.503,299.417 163.650 C 299.325 163.797,299.209 163.954,299.158 164.000 C 299.107 164.046,298.813 164.458,298.504 164.917 C 297.891 165.825,297.007 167.120,295.127 169.862 C 294.456 170.841,293.778 171.784,293.621 171.959 C 293.463 172.133,293.333 172.330,293.333 172.395 C 293.333 172.461,293.017 172.942,292.630 173.465 C 292.243 173.989,291.681 174.790,291.380 175.246 C 290.753 176.197,290.753 176.196,291.072 174.034 C 291.203 173.145,291.462 171.329,291.649 170.000 C 291.835 168.671,292.135 166.533,292.316 165.250 C 292.497 163.967,292.804 161.754,292.999 160.333 C 293.194 158.912,293.495 156.737,293.667 155.500 C 293.839 154.262,294.139 152.087,294.334 150.667 C 294.529 149.246,294.829 147.108,295.000 145.917 C 295.171 144.725,295.471 142.587,295.665 141.167 C 295.860 139.746,296.160 137.608,296.332 136.417 C 296.504 135.225,296.690 133.803,296.745 133.257 C 296.799 132.711,296.888 132.092,296.940 131.882 L 297.036 131.500 287.844 131.500 C 277.361 131.500,277.124 131.525,274.583 132.881 C 274.400 132.979,274.100 133.140,273.917 133.238 C 271.478 134.549,269.554 136.863,266.770 141.833 C 265.974 143.254,265.254 144.529,265.170 144.667 C 264.916 145.081,263.228 148.032,262.808 148.796 C 262.593 149.188,262.267 149.762,262.083 150.072 C 261.661 150.784,260.669 152.525,260.128 153.500 C 259.900 153.912,259.553 154.512,259.358 154.833 C 259.163 155.154,258.913 155.604,258.802 155.833 C 258.692 156.063,258.515 156.362,258.408 156.500 C 258.302 156.637,257.953 157.237,257.633 157.833 C 256.315 160.287,256.133 160.496,256.033 159.667 C 256.006 159.438,255.842 158.725,255.669 158.083 C 255.496 157.442,255.193 156.279,254.995 155.500 C 254.797 154.721,254.500 153.558,254.335 152.917 C 253.739 150.605,253.304 148.894,253.000 147.667 C 252.696 146.439,252.261 144.729,251.665 142.417 C 251.500 141.775,251.214 140.650,251.029 139.917 C 250.197 136.616,249.911 135.695,249.470 134.902 C 249.010 134.075,247.833 132.667,247.602 132.667 C 247.538 132.667,247.340 132.531,247.162 132.365 C 246.083 131.360,245.706 131.330,234.133 131.332 L 223.515 131.333 223.439 131.875 M194.378 139.155 C 201.177 140.824,205.099 149.771,202.311 157.250 C 202.140 157.708,202.000 158.175,202.000 158.288 C 202.000 158.513,200.532 161.576,199.982 162.500 C 199.217 163.783,197.785 165.425,196.000 167.063 C 195.152 167.841,192.934 169.043,191.167 169.682 C 188.444 170.667,183.342 169.867,181.996 168.245 C 181.884 168.110,181.731 168.000,181.655 168.000 C 181.419 168.000,179.811 166.276,179.290 165.464 C 175.929 160.226,176.223 152.549,180.012 146.667 C 180.277 146.254,180.543 145.820,180.601 145.701 C 181.005 144.886,183.913 141.990,185.106 141.215 C 188.287 139.150,191.473 138.442,194.378 139.155 M327.333 142.697 C 327.333 142.896,327.478 143.553,327.655 144.155 C 327.832 144.757,328.132 145.831,328.322 146.542 C 328.511 147.252,328.817 148.396,329.000 149.083 C 329.183 149.771,329.483 150.896,329.667 151.583 C 329.850 152.271,330.148 153.377,330.328 154.042 C 330.509 154.706,330.814 155.850,331.005 156.583 C 331.786 159.569,332.475 162.073,332.623 162.458 C 332.686 162.623,330.829 162.667,323.679 162.667 C 315.128 162.667,314.664 162.651,314.833 162.375 C 315.466 161.335,315.740 160.877,315.903 160.583 C 316.005 160.400,316.369 159.817,316.711 159.288 C 317.053 158.760,317.333 158.288,317.333 158.240 C 317.333 158.192,317.483 157.931,317.667 157.660 C 318.414 156.554,318.624 156.217,319.011 155.501 C 319.234 155.089,319.475 154.676,319.546 154.584 C 319.617 154.492,319.908 154.042,320.193 153.583 C 320.478 153.125,320.851 152.547,321.022 152.298 C 321.193 152.050,321.333 151.811,321.333 151.767 C 321.333 151.700,322.948 149.018,323.501 148.167 C 323.590 148.029,323.815 147.654,324.000 147.333 C 324.185 147.012,324.430 146.604,324.543 146.426 C 325.190 145.414,325.941 144.196,326.144 143.833 C 326.950 142.390,326.989 142.333,327.177 142.333 C 327.263 142.333,327.333 142.497,327.333 142.697 " stroke="none" fill="#5c5c5c" fill-rule="evenodd"></path></g></svg>