<svg id="svg" version="1.1" xmlns="http://www.w3.org/2000/svg" xmlns:xlink="http://www.w3.org/1999/xlink" width="400" height="400" viewBox="0, 0, 400,400"><g id="svgg"><path id="path0" d="M161.054 242.198 C 161.181 242.526,161.445 242.696,161.642 242.574 C 162.207 242.225,162.060 241.600,161.413 241.600 C 161.056 241.600,160.915 241.835,161.054 242.198 M191.200 242.200 C 191.200 242.530,191.380 242.800,191.600 242.800 C 191.820 242.800,192.000 242.530,192.000 242.200 C 192.000 241.870,191.820 241.600,191.600 241.600 C 191.380 241.600,191.200 241.870,191.200 242.200 M210.000 241.957 C 210.000 242.154,210.285 242.424,210.633 242.557 C 211.527 242.900,211.600 242.873,211.600 242.200 C 211.600 241.867,211.244 241.600,210.800 241.600 C 210.360 241.600,210.000 241.761,210.000 241.957 M121.426 243.158 C 121.304 243.355,121.456 243.613,121.763 243.731 C 122.350 243.956,122.800 243.696,122.800 243.133 C 122.800 242.687,121.705 242.706,121.426 243.158 M253.200 243.400 C 253.200 243.730,253.380 244.000,253.600 244.000 C 253.820 244.000,254.000 243.730,254.000 243.400 C 254.000 243.070,253.820 242.800,253.600 242.800 C 253.380 242.800,253.200 243.070,253.200 243.400 M165.055 243.800 C 165.182 244.130,165.334 244.400,165.394 244.400 C 165.453 244.400,165.726 244.130,166.000 243.800 C 166.416 243.299,166.360 243.200,165.662 243.200 C 165.082 243.200,164.896 243.385,165.055 243.800 M308.600 247.009 C 307.500 247.315,305.581 247.573,304.335 247.582 C 303.090 247.592,300.681 247.866,298.982 248.191 C 297.284 248.516,295.757 248.697,295.589 248.593 C 295.421 248.490,294.320 248.589,293.142 248.814 C 290.016 249.411,282.974 250.465,280.179 250.755 C 278.847 250.892,277.261 251.330,276.654 251.728 C 274.418 253.193,275.378 253.394,285.133 253.507 C 290.855 253.574,294.400 253.765,294.400 254.007 C 294.400 254.223,294.220 254.400,294.000 254.400 C 293.780 254.400,293.600 254.670,293.600 255.000 C 293.600 255.330,293.310 255.600,292.957 255.600 C 292.470 255.600,292.374 255.844,292.564 256.600 C 292.749 257.338,292.656 257.600,292.208 257.600 C 291.873 257.600,291.600 257.780,291.600 258.000 C 291.600 258.220,291.330 258.400,291.000 258.400 C 290.670 258.400,290.400 258.634,290.400 258.920 C 290.400 259.685,289.453 261.593,289.071 261.597 C 288.597 261.601,287.600 262.668,287.600 263.171 C 287.600 263.407,287.310 263.600,286.957 263.600 C 286.470 263.600,286.374 263.844,286.564 264.600 C 286.749 265.338,286.656 265.600,286.208 265.600 C 285.873 265.600,285.600 265.780,285.600 266.000 C 285.600 266.220,285.330 266.400,285.000 266.400 C 284.670 266.400,284.400 266.670,284.400 267.000 C 284.400 267.330,284.220 267.600,284.000 267.600 C 283.780 267.600,283.600 268.050,283.600 268.600 C 283.600 269.150,283.407 269.600,283.171 269.600 C 282.618 269.600,281.600 270.618,281.600 271.171 C 281.600 271.407,281.310 271.600,280.957 271.600 C 280.470 271.600,280.374 271.844,280.564 272.600 C 280.743 273.313,280.653 273.600,280.250 273.600 C 279.940 273.600,279.578 273.881,279.446 274.225 C 279.314 274.569,279.024 274.739,278.803 274.602 C 278.581 274.465,278.400 274.633,278.400 274.976 C 278.400 275.319,278.220 275.600,278.000 275.600 C 277.780 275.600,277.600 276.050,277.600 276.600 C 277.600 277.239,277.375 277.600,276.976 277.600 C 276.633 277.600,276.444 277.748,276.556 277.929 C 276.790 278.307,275.402 279.600,274.761 279.600 C 274.250 279.600,274.411 288.547,274.931 289.066 C 275.274 289.407,310.455 289.662,311.700 289.332 C 312.321 289.167,312.400 288.563,312.400 283.992 L 312.400 278.838 302.033 278.719 C 296.331 278.654,291.529 278.463,291.362 278.296 C 291.077 278.010,292.478 276.400,293.012 276.400 C 293.567 276.400,294.400 275.200,294.400 274.400 C 294.400 273.490,295.257 272.400,295.971 272.400 C 296.207 272.400,296.400 272.220,296.400 272.000 C 296.400 271.780,296.690 271.600,297.043 271.600 C 297.515 271.600,297.625 271.354,297.455 270.679 C 297.248 269.853,298.255 268.400,299.033 268.400 C 299.626 268.400,300.400 267.143,300.400 266.182 C 300.400 265.303,300.546 265.145,301.201 265.316 C 301.641 265.431,301.899 265.361,301.775 265.160 C 301.506 264.724,302.543 263.600,303.215 263.600 C 303.508 263.600,303.599 263.250,303.455 262.679 C 303.248 261.853,304.255 260.400,305.033 260.400 C 305.562 260.400,306.400 259.191,306.400 258.429 C 306.400 257.973,306.580 257.600,306.800 257.600 C 307.020 257.600,307.200 257.330,307.200 257.000 C 307.200 256.670,307.470 256.400,307.800 256.400 C 308.130 256.400,308.400 256.220,308.400 256.000 C 308.400 255.780,308.683 255.600,309.029 255.600 C 309.456 255.600,309.618 255.300,309.535 254.665 C 309.425 253.825,310.346 252.400,311.000 252.400 C 311.869 252.400,312.400 251.045,312.400 248.829 C 312.400 246.047,312.277 245.988,308.600 247.009 M130.000 248.200 C 130.000 248.718,130.465 248.898,131.455 248.766 C 131.596 248.747,131.863 248.972,132.049 249.266 C 132.327 249.704,132.389 249.705,132.394 249.271 C 132.402 248.552,131.397 247.600,130.629 247.600 C 130.283 247.600,130.000 247.870,130.000 248.200 M129.600 251.351 C 129.600 251.434,129.870 251.726,130.200 252.000 C 130.691 252.408,130.800 252.380,130.800 251.849 C 130.800 251.492,130.530 251.200,130.200 251.200 C 129.870 251.200,129.600 251.268,129.600 251.351 M211.800 252.400 C 211.664 252.620,211.934 252.800,212.400 252.800 C 212.866 252.800,213.136 252.620,213.000 252.400 C 212.864 252.180,212.594 252.000,212.400 252.000 C 212.206 252.000,211.936 252.180,211.800 252.400 M94.212 253.317 C 94.041 253.712,94.013 254.147,94.151 254.284 C 94.557 254.690,94.884 254.120,94.697 253.331 C 94.532 252.633,94.510 252.632,94.212 253.317 M148.138 254.187 C 148.392 254.730,148.662 254.994,148.738 254.774 C 148.934 254.205,148.495 253.200,148.050 253.200 C 147.841 253.200,147.879 253.635,148.138 254.187 M104.060 254.780 C 104.148 255.044,104.351 255.247,104.510 255.230 C 104.988 255.181,104.896 254.632,104.380 254.460 C 104.116 254.372,103.972 254.516,104.060 254.780 M255.826 255.033 C 255.587 255.272,254.143 255.583,252.617 255.725 C 249.488 256.018,248.973 256.372,248.585 258.500 C 248.361 259.726,248.429 260.000,248.955 260.000 C 249.422 260.000,249.600 260.376,249.600 261.357 C 249.600 262.225,249.828 262.802,250.232 262.957 C 250.703 263.138,250.797 263.504,250.600 264.400 C 250.403 265.296,250.497 265.662,250.968 265.843 C 251.394 266.007,251.600 266.593,251.600 267.643 C 251.600 268.660,251.770 269.165,252.091 269.100 C 252.360 269.045,252.637 269.360,252.705 269.800 C 252.823 270.565,252.603 270.600,247.614 270.600 C 243.044 270.600,242.400 270.519,242.400 269.943 C 242.400 269.581,242.667 269.183,242.993 269.058 C 243.418 268.895,243.517 268.487,243.344 267.621 C 243.164 266.721,243.268 266.349,243.751 266.163 C 244.173 266.001,244.400 265.440,244.400 264.557 C 244.400 263.628,244.586 263.200,244.990 263.200 C 245.438 263.200,245.520 262.898,245.328 261.940 C 245.137 260.987,245.252 260.551,245.799 260.151 C 246.692 259.499,246.139 256.884,245.167 257.162 C 244.855 257.252,243.700 257.499,242.600 257.711 C 241.500 257.923,239.657 258.369,238.505 258.701 C 236.816 259.189,236.293 259.209,235.805 258.804 C 235.307 258.391,235.200 258.417,235.200 258.951 C 235.200 259.535,234.742 259.780,233.900 259.647 C 233.735 259.621,233.600 260.140,233.600 260.800 C 233.600 261.600,233.400 262.000,233.000 262.000 C 232.600 262.000,232.400 262.400,232.400 263.200 C 232.400 263.860,232.220 264.400,232.000 264.400 C 231.780 264.400,231.600 264.863,231.600 265.429 C 231.600 265.994,231.317 266.740,230.971 267.086 C 230.574 267.483,230.430 268.066,230.581 268.666 C 230.743 269.314,230.625 269.692,230.210 269.852 C 229.865 269.984,229.600 270.570,229.600 271.200 C 229.600 271.822,229.335 272.416,229.000 272.545 C 228.670 272.671,228.400 273.231,228.400 273.787 C 228.400 274.344,228.220 274.800,228.000 274.800 C 227.780 274.800,227.600 275.520,227.600 276.400 C 227.600 277.613,227.442 278.000,226.948 278.000 C 226.428 278.000,226.341 278.279,226.517 279.369 C 226.675 280.341,226.575 280.801,226.170 280.956 C 225.821 281.090,225.600 281.740,225.600 282.630 C 225.600 283.807,225.476 284.038,224.952 283.837 C 224.432 283.637,224.344 283.793,224.503 284.626 C 224.629 285.286,224.501 285.740,224.151 285.874 C 223.814 286.004,223.600 286.690,223.600 287.643 L 223.600 289.200 226.100 289.227 C 227.475 289.241,230.355 289.343,232.500 289.453 L 236.400 289.653 236.400 287.984 C 236.400 286.664,236.526 286.363,237.000 286.545 C 237.462 286.722,237.600 286.456,237.600 285.387 C 237.600 284.624,237.780 284.000,238.000 284.000 C 238.220 284.000,238.400 283.640,238.400 283.200 C 238.400 281.914,256.190 281.953,256.526 283.240 C 256.647 283.703,256.938 283.962,257.173 283.817 C 257.448 283.647,257.600 284.115,257.600 285.134 C 257.600 286.123,257.810 286.795,258.163 286.930 C 258.539 287.075,258.681 287.620,258.592 288.578 C 258.507 289.492,258.609 289.918,258.873 289.755 C 259.101 289.614,262.237 289.525,265.843 289.558 L 272.400 289.616 272.400 288.608 C 272.400 288.037,272.170 287.600,271.869 287.600 C 271.507 287.600,271.395 287.218,271.515 286.395 C 271.660 285.412,271.573 285.235,271.046 285.438 C 270.525 285.638,270.400 285.407,270.400 284.243 C 270.400 283.255,270.219 282.800,269.825 282.800 C 269.392 282.800,269.306 282.456,269.477 281.400 C 269.659 280.279,269.574 280.000,269.052 280.000 C 268.594 280.000,268.400 279.643,268.400 278.800 C 268.400 278.140,268.220 277.600,268.000 277.600 C 267.780 277.600,267.600 276.970,267.600 276.200 C 267.600 275.222,267.419 274.800,267.000 274.800 C 266.567 274.800,266.400 274.356,266.400 273.200 C 266.400 272.137,266.222 271.600,265.869 271.600 C 265.507 271.600,265.394 271.219,265.515 270.400 C 265.648 269.490,265.535 269.200,265.045 269.200 C 264.595 269.200,264.400 268.838,264.400 268.000 C 264.400 267.340,264.220 266.800,264.000 266.800 C 263.780 266.800,263.600 266.086,263.600 265.213 C 263.600 263.966,263.471 263.675,263.000 263.855 C 262.534 264.034,262.400 263.760,262.400 262.630 C 262.400 261.709,262.181 261.091,261.803 260.946 C 261.399 260.791,261.283 260.407,261.445 259.762 C 261.612 259.097,261.490 258.733,261.042 258.561 C 260.627 258.402,260.400 257.834,260.400 256.957 C 260.400 256.017,260.215 255.600,259.800 255.600 C 259.470 255.600,259.200 255.361,259.200 255.070 C 259.200 254.421,256.472 254.391,255.826 255.033 M124.000 256.600 C 124.000 256.930,124.180 257.200,124.400 257.200 C 124.620 257.200,124.800 256.930,124.800 256.600 C 124.800 256.270,124.620 256.000,124.400 256.000 C 124.180 256.000,124.000 256.270,124.000 256.600 M102.667 256.667 C 102.206 257.127,102.375 257.600,103.000 257.600 C 103.330 257.600,103.600 257.330,103.600 257.000 C 103.600 256.375,103.127 256.206,102.667 256.667 M214.800 257.643 C 214.800 257.899,214.506 257.974,214.100 257.819 C 213.537 257.605,213.498 257.651,213.903 258.059 C 214.308 258.468,214.538 258.434,215.089 257.883 C 215.516 257.456,215.590 257.200,215.286 257.200 C 215.019 257.200,214.800 257.399,214.800 257.643 M144.800 261.353 C 144.800 261.683,144.980 262.064,145.200 262.200 C 145.420 262.336,145.600 262.177,145.600 261.847 C 145.600 261.517,145.420 261.136,145.200 261.000 C 144.980 260.864,144.800 261.023,144.800 261.353 M224.399 261.563 C 223.283 262.341,213.894 264.800,212.039 264.800 C 211.383 264.800,210.754 264.951,210.639 265.136 C 210.525 265.321,209.209 265.781,207.716 266.157 C 204.705 266.916,202.696 267.448,200.000 268.200 C 199.010 268.476,197.480 268.899,196.600 269.140 C 191.390 270.568,190.070 270.968,188.892 271.478 L 187.585 272.045 187.692 280.722 L 187.800 289.400 194.100 289.400 L 200.400 289.400 200.400 282.500 L 200.400 275.600 206.013 275.600 C 210.632 275.600,211.666 275.494,211.855 275.000 C 212.021 274.569,212.694 274.400,214.243 274.400 C 215.429 274.400,216.400 274.220,216.400 274.000 C 216.400 273.780,217.120 273.600,218.000 273.600 C 219.156 273.600,219.600 273.433,219.600 273.000 C 219.600 272.670,219.780 272.400,220.000 272.400 C 220.220 272.400,220.400 272.207,220.400 271.971 C 220.400 271.418,221.418 270.400,221.971 270.400 C 222.207 270.400,222.400 270.207,222.400 269.971 C 222.400 269.736,222.657 269.286,222.971 268.971 C 223.286 268.657,223.736 268.400,223.971 268.400 C 224.207 268.400,224.400 268.220,224.400 268.000 C 224.400 267.780,224.670 267.600,225.000 267.600 C 225.373 267.600,225.600 267.222,225.600 266.600 C 225.600 266.050,225.780 265.600,226.000 265.600 C 226.581 265.600,226.492 261.774,225.899 261.282 C 225.542 260.986,225.110 261.066,224.399 261.563 M174.800 275.169 C 174.470 275.359,172.310 276.063,170.000 276.733 C 167.690 277.404,164.559 278.414,163.041 278.977 C 161.524 279.539,159.874 280.000,159.374 280.000 C 157.859 280.000,157.200 280.437,157.200 281.443 L 157.200 282.400 162.226 282.400 C 168.230 282.400,168.731 282.586,168.577 284.760 C 168.488 285.999,168.589 286.302,169.032 286.132 C 169.470 285.964,169.600 286.319,169.600 287.680 L 169.600 289.446 174.300 289.371 C 184.229 289.215,183.600 289.280,183.600 288.400 C 183.600 287.956,183.333 287.600,183.000 287.600 C 182.581 287.600,182.400 287.178,182.400 286.200 C 182.400 285.430,182.220 284.800,182.000 284.800 C 181.780 284.800,181.600 284.086,181.600 283.213 C 181.600 281.966,181.471 281.675,181.000 281.855 C 180.537 282.033,180.400 281.766,180.400 280.686 C 180.400 279.800,180.176 279.200,179.790 279.052 C 179.363 278.888,179.256 278.516,179.433 277.813 C 179.613 277.094,179.502 276.737,179.042 276.561 C 178.689 276.425,178.400 275.974,178.400 275.557 C 178.400 274.731,176.010 274.474,174.800 275.169 M139.600 275.351 C 139.600 275.434,139.870 275.726,140.200 276.000 C 140.691 276.408,140.800 276.380,140.800 275.849 C 140.800 275.492,140.530 275.200,140.200 275.200 C 139.870 275.200,139.600 275.268,139.600 275.351 M126.984 276.027 C 126.839 276.261,126.816 276.549,126.933 276.667 C 127.220 276.953,128.000 276.448,128.000 275.976 C 128.000 275.465,127.309 275.499,126.984 276.027 M129.054 277.002 C 128.915 277.365,129.056 277.600,129.413 277.600 C 130.060 277.600,130.207 276.975,129.642 276.626 C 129.445 276.504,129.181 276.674,129.054 277.002 M148.400 282.600 C 148.400 283.150,148.559 283.600,148.753 283.600 C 148.948 283.600,149.193 283.150,149.298 282.600 C 149.426 281.929,149.310 281.600,148.945 281.600 C 148.630 281.600,148.400 282.023,148.400 282.600 M145.839 284.337 C 145.709 284.547,144.676 284.942,143.543 285.214 C 142.411 285.485,141.015 285.952,140.442 286.251 C 139.869 286.550,139.096 286.796,138.724 286.798 C 138.352 286.799,137.951 286.956,137.832 287.147 C 137.714 287.339,136.880 287.613,135.979 287.757 C 134.966 287.919,134.401 288.202,134.500 288.499 C 135.013 290.039,146.055 290.089,147.475 288.557 C 148.891 287.029,148.682 284.256,147.138 284.077 C 146.554 284.009,145.969 284.126,145.839 284.337 M117.400 288.400 C 117.264 288.620,117.534 288.800,118.000 288.800 C 118.466 288.800,118.736 288.620,118.600 288.400 C 118.464 288.180,118.194 288.000,118.000 288.000 C 117.806 288.000,117.536 288.180,117.400 288.400 M114.179 289.566 C 114.303 289.767,114.179 290.023,113.902 290.134 C 113.626 290.246,113.889 290.351,114.487 290.368 C 115.297 290.392,115.516 290.246,115.345 289.800 C 115.218 289.470,114.853 289.200,114.534 289.200 C 114.214 289.200,114.055 289.365,114.179 289.566 M296.300 299.496 C 297.675 299.574,299.925 299.574,301.300 299.496 C 302.675 299.418,301.550 299.354,298.800 299.354 C 296.050 299.354,294.925 299.418,296.300 299.496 M309.100 299.482 C 309.595 299.578,310.405 299.578,310.900 299.482 C 311.395 299.387,310.990 299.309,310.000 299.309 C 309.010 299.309,308.605 299.387,309.100 299.482 " stroke="none" fill="#464645" fill-rule="evenodd"></path><path id="path1" d="M125.600 294.557 C 125.600 294.946,126.727 295.092,127.236 294.769 C 127.647 294.509,127.501 294.411,126.700 294.406 C 126.095 294.403,125.600 294.471,125.600 294.557 M136.518 294.698 C 138.233 294.773,140.933 294.772,142.518 294.697 C 144.103 294.621,142.700 294.559,139.400 294.560 C 136.100 294.561,134.803 294.622,136.518 294.698 M152.831 294.710 C 153.144 294.771,154.840 294.975,156.600 295.164 C 158.815 295.402,154.538 295.513,142.710 295.524 C 123.120 295.543,123.875 295.413,125.300 298.536 L 125.800 299.632 132.400 299.590 C 136.030 299.568,140.800 299.598,143.000 299.657 L 147.000 299.765 141.600 300.019 C 138.630 300.159,141.420 300.190,147.800 300.087 C 154.180 299.985,159.984 299.875,160.698 299.844 C 161.411 299.812,162.057 299.969,162.133 300.193 C 162.217 300.444,162.511 300.401,162.899 300.081 C 163.308 299.743,163.617 299.704,163.781 299.969 C 163.947 300.238,170.107 300.346,181.916 300.288 L 199.800 300.200 199.669 298.532 C 199.597 297.615,199.724 296.516,199.951 296.091 C 200.314 295.413,200.249 295.340,199.418 295.499 C 198.897 295.598,198.140 295.473,197.736 295.221 C 197.064 294.802,197.076 294.782,197.866 294.997 C 198.343 295.127,198.836 295.065,198.962 294.861 C 199.102 294.635,193.612 294.475,184.977 294.452 C 173.821 294.423,170.826 294.521,171.058 294.908 C 171.289 295.292,171.224 295.295,170.763 294.923 C 170.339 294.580,167.658 294.467,161.218 294.523 C 156.292 294.565,152.518 294.650,152.831 294.710 M240.255 295.000 C 240.415 295.416,240.228 295.600,239.643 295.600 C 238.848 295.600,238.481 296.572,238.814 297.800 C 238.873 298.020,238.933 298.482,238.947 298.828 C 238.990 299.931,274.932 299.708,275.770 298.600 C 277.030 296.933,276.388 295.600,274.324 295.600 C 273.769 295.600,273.587 295.412,273.745 295.000 C 273.887 294.628,273.743 294.400,273.364 294.400 C 272.999 294.400,272.869 294.589,273.042 294.868 C 273.247 295.200,273.108 295.241,272.566 295.009 C 271.137 294.399,266.014 294.539,265.548 295.200 C 265.196 295.699,265.164 295.679,265.357 295.081 C 265.610 294.300,259.981 294.143,258.936 294.902 C 258.670 295.094,258.360 295.059,258.212 294.819 C 257.753 294.078,239.970 294.256,240.255 295.000 M89.600 297.047 C 89.600 298.086,89.618 298.092,92.227 297.926 C 96.777 297.636,96.509 296.084,91.900 296.028 C 89.679 296.001,89.600 296.036,89.600 297.047 M112.000 296.976 C 112.000 298.106,112.461 298.505,113.364 298.159 C 114.463 297.737,114.170 296.000,113.000 296.000 C 112.206 296.000,112.000 296.202,112.000 296.976 M118.151 296.480 C 117.798 297.050,118.423 297.600,119.424 297.600 C 120.097 297.600,120.400 297.377,120.400 296.880 C 120.400 296.138,118.563 295.812,118.151 296.480 M94.000 300.055 C 94.000 300.245,94.450 300.400,95.000 300.400 C 95.550 300.400,96.000 300.331,96.000 300.247 C 96.000 300.162,95.550 300.007,95.000 299.902 C 94.450 299.797,94.000 299.866,94.000 300.055 M106.800 300.100 C 106.800 300.265,107.520 300.400,108.400 300.400 C 109.280 300.400,110.000 300.265,110.000 300.100 C 110.000 299.935,109.280 299.800,108.400 299.800 C 107.520 299.800,106.800 299.935,106.800 300.100 M114.000 300.100 C 114.000 300.265,114.900 300.400,116.000 300.400 C 117.100 300.400,118.000 300.265,118.000 300.100 C 118.000 299.935,117.100 299.800,116.000 299.800 C 114.900 299.800,114.000 299.935,114.000 300.100 M276.705 300.283 C 277.202 300.379,277.922 300.375,278.305 300.275 C 278.687 300.175,278.280 300.096,277.400 300.101 C 276.520 300.105,276.207 300.187,276.705 300.283 " stroke="none" fill="#c15a4f" fill-rule="evenodd"></path><path id="path2" d="M198.546 92.198 C 198.419 92.526,198.155 92.696,197.958 92.574 C 197.761 92.452,197.600 92.813,197.600 93.376 C 197.600 94.020,197.377 94.400,197.000 94.400 C 196.670 94.400,196.400 94.648,196.400 94.951 C 196.400 95.254,196.141 95.717,195.824 95.980 C 195.507 96.243,195.358 96.747,195.493 97.099 C 195.676 97.575,195.568 97.673,195.069 97.482 C 194.631 97.314,194.400 97.428,194.400 97.813 C 194.400 98.136,194.220 98.400,194.000 98.400 C 193.780 98.400,193.600 98.940,193.600 99.600 C 193.600 100.260,193.414 100.800,193.187 100.800 C 192.961 100.800,192.659 101.115,192.517 101.500 C 192.375 101.885,191.661 102.773,190.930 103.473 C 190.099 104.268,189.600 105.132,189.600 105.773 C 189.600 106.419,189.378 106.800,189.000 106.800 C 188.670 106.800,188.400 107.081,188.400 107.424 C 188.400 107.767,188.216 107.933,187.990 107.794 C 187.765 107.655,187.606 107.689,187.637 107.870 C 187.801 108.812,187.540 109.600,187.064 109.600 C 186.504 109.600,185.600 111.217,185.600 112.219 C 185.600 112.538,185.330 112.800,185.000 112.800 C 184.667 112.800,184.400 113.156,184.400 113.600 C 184.400 114.040,184.220 114.400,184.000 114.400 C 183.780 114.400,183.600 114.670,183.600 115.000 C 183.600 115.330,183.350 115.600,183.044 115.600 C 182.739 115.600,182.497 115.825,182.507 116.100 C 182.558 117.470,182.362 117.960,181.840 117.760 C 181.533 117.642,181.145 117.766,180.979 118.035 C 180.785 118.347,180.843 118.421,181.138 118.238 C 181.392 118.081,181.600 118.143,181.600 118.376 C 181.600 118.609,181.330 118.800,181.000 118.800 C 180.670 118.800,180.421 118.935,180.447 119.100 C 180.590 120.004,180.348 120.815,180.000 120.600 C 179.766 120.455,179.600 120.870,179.600 121.600 C 179.600 122.286,179.452 122.756,179.271 122.644 C 178.904 122.417,177.600 123.790,177.600 124.405 C 177.600 124.622,177.465 124.801,177.300 124.803 C 176.832 124.808,175.993 126.864,176.273 127.318 C 176.416 127.549,176.325 127.601,176.062 127.438 C 175.764 127.254,175.598 127.481,175.594 128.076 C 175.589 128.819,175.512 128.883,175.200 128.400 C 174.863 127.878,174.811 127.885,174.806 128.451 C 174.803 128.809,174.530 129.326,174.200 129.600 C 173.870 129.874,173.600 130.725,173.600 131.492 C 173.600 132.566,173.463 132.833,173.000 132.655 C 172.567 132.489,172.400 132.699,172.400 133.413 C 172.400 133.956,172.220 134.400,172.000 134.400 C 171.780 134.400,171.600 134.670,171.600 135.000 C 171.600 135.330,171.440 135.600,171.243 135.600 C 171.047 135.600,170.774 136.050,170.636 136.600 C 170.498 137.150,170.208 137.600,169.992 137.600 C 169.777 137.600,169.600 138.050,169.600 138.600 C 169.600 139.169,169.369 139.600,169.064 139.600 C 168.769 139.600,168.290 140.320,168.000 141.200 C 167.710 142.080,167.321 142.800,167.136 142.800 C 166.951 142.800,166.800 143.250,166.800 143.800 C 166.800 144.422,166.573 144.800,166.200 144.800 C 165.651 144.800,165.416 145.288,165.563 146.130 C 165.594 146.311,165.448 146.353,165.239 146.224 C 164.779 145.940,164.244 147.425,164.600 147.999 C 164.738 148.223,164.569 148.514,164.225 148.646 C 163.881 148.778,163.600 149.297,163.600 149.800 C 163.600 150.303,163.330 150.818,163.000 150.945 C 162.670 151.071,162.400 151.541,162.400 151.987 C 162.400 152.434,162.220 152.800,162.000 152.800 C 161.780 152.800,161.600 153.138,161.600 153.551 C 161.600 153.964,161.349 154.511,161.041 154.766 C 160.734 155.021,160.568 155.556,160.672 155.955 C 160.777 156.354,160.578 156.965,160.231 157.312 C 159.884 157.659,159.600 158.316,159.600 158.771 C 159.600 159.241,159.340 159.600,159.000 159.600 C 158.670 159.600,158.400 159.881,158.400 160.224 C 158.400 160.567,158.220 160.736,158.000 160.600 C 157.758 160.451,157.600 160.996,157.600 161.976 C 157.600 163.034,157.420 163.600,157.085 163.600 C 156.792 163.600,156.528 164.154,156.472 164.884 C 156.418 165.591,156.191 166.282,155.967 166.420 C 155.743 166.559,155.532 167.048,155.497 167.508 C 155.462 167.968,155.300 168.262,155.137 168.161 C 154.974 168.060,154.721 168.613,154.576 169.389 C 154.430 170.165,154.151 170.800,153.955 170.800 C 153.760 170.800,153.600 171.411,153.600 172.157 C 153.600 173.024,153.372 173.602,152.970 173.756 C 152.516 173.930,152.358 174.475,152.407 175.699 C 152.503 178.140,152.449 178.477,152.000 178.200 C 151.756 178.049,151.600 178.648,151.600 179.734 C 151.600 180.972,151.411 181.587,150.981 181.752 C 150.204 182.050,150.167 192.609,150.940 193.577 C 151.295 194.022,151.286 194.085,150.900 193.853 C 150.544 193.639,150.413 193.877,150.446 194.676 C 150.474 195.353,150.566 195.521,150.676 195.100 C 150.885 194.297,151.584 194.152,151.633 194.900 C 151.651 195.175,151.638 196.435,151.604 197.700 C 151.567 199.106,151.710 200.000,151.972 200.000 C 152.207 200.000,152.400 200.191,152.400 200.424 C 152.400 200.657,152.175 200.712,151.900 200.547 C 151.520 200.318,151.523 200.399,151.915 200.882 C 152.198 201.232,152.507 201.916,152.600 202.401 C 152.892 203.916,153.774 205.600,154.275 205.600 C 155.149 205.600,156.004 207.245,155.561 208.073 C 155.332 208.500,154.954 208.702,154.680 208.542 C 154.416 208.388,154.515 208.623,154.900 209.063 C 155.285 209.503,155.600 210.153,155.600 210.508 C 155.600 211.163,156.274 211.783,157.000 211.794 C 157.220 211.797,157.459 212.318,157.531 212.950 C 157.667 214.140,158.554 215.324,159.600 215.714 C 159.985 215.857,159.841 215.965,159.200 216.016 C 158.275 216.089,158.290 216.114,159.400 216.347 C 160.248 216.526,160.768 216.981,161.172 217.900 C 161.487 218.615,162.003 219.200,162.319 219.200 C 162.704 219.200,162.822 219.475,162.676 220.032 C 162.520 220.627,162.615 220.803,163.009 220.652 C 163.386 220.507,163.481 220.644,163.312 221.086 C 163.142 221.527,163.218 221.636,163.551 221.430 C 163.841 221.251,164.457 221.548,165.074 222.165 C 165.643 222.734,166.351 223.200,166.647 223.200 C 166.943 223.200,167.298 223.650,167.436 224.200 C 167.574 224.750,167.917 225.200,168.197 225.200 C 168.478 225.200,169.003 225.650,169.363 226.200 C 169.777 226.832,170.392 227.200,171.034 227.200 C 171.847 227.200,172.025 227.373,171.925 228.063 C 171.825 228.754,172.037 228.958,172.993 229.089 C 174.174 229.251,174.914 229.892,174.567 230.453 C 174.254 230.960,175.340 231.368,176.694 231.251 C 177.511 231.181,178.000 231.320,178.000 231.622 C 178.000 232.689,179.549 233.485,181.293 233.314 C 182.862 233.161,183.041 233.241,183.504 234.307 C 184.003 235.455,184.036 235.465,186.801 235.292 C 189.101 235.147,189.636 235.230,189.839 235.758 C 190.027 236.247,190.648 236.400,192.443 236.400 C 194.300 236.400,194.800 236.531,194.800 237.017 C 194.800 237.546,195.599 237.626,200.428 237.577 C 205.072 237.530,206.018 237.423,205.840 236.960 C 205.669 236.516,206.159 236.400,208.213 236.400 C 210.292 236.400,210.800 236.277,210.800 235.775 C 210.800 235.262,211.247 235.172,213.300 235.275 C 215.590 235.390,215.893 235.306,216.907 234.279 C 217.761 233.414,218.307 233.191,219.291 233.303 C 220.641 233.457,222.000 232.636,222.000 231.667 C 222.000 231.264,222.400 231.159,223.461 231.283 C 224.736 231.432,225.002 231.308,225.561 230.307 C 226.040 229.449,226.430 229.203,227.117 229.328 C 227.816 229.456,228.180 229.213,228.648 228.307 C 229.148 227.341,229.468 227.149,230.361 227.280 C 231.311 227.419,231.436 227.322,231.290 226.561 C 231.154 225.846,231.356 225.629,232.361 225.409 C 233.460 225.167,233.811 224.661,233.659 223.535 C 233.639 223.389,234.158 223.084,234.812 222.856 C 235.465 222.628,236.000 222.162,236.000 221.821 C 236.000 221.479,236.283 221.200,236.629 221.200 C 237.446 221.200,238.400 220.234,238.400 219.405 C 238.400 219.046,238.556 218.849,238.748 218.968 C 238.939 219.086,238.980 218.619,238.839 217.929 C 238.572 216.622,237.469 215.598,236.920 216.147 C 236.745 216.322,236.950 216.721,237.377 217.033 C 238.037 217.515,238.054 217.600,237.491 217.600 C 237.126 217.600,236.617 218.005,236.360 218.500 C 235.683 219.800,234.435 220.899,233.878 220.685 C 233.568 220.566,233.399 220.942,233.399 221.746 C 233.400 222.812,233.202 223.056,232.021 223.441 C 230.220 224.029,226.924 226.407,226.672 227.300 C 226.458 228.060,225.400 228.247,224.997 227.596 C 224.854 227.365,224.237 227.701,223.558 228.380 C 222.904 229.034,221.741 229.687,220.975 229.831 C 220.208 229.975,219.360 230.397,219.090 230.769 C 218.821 231.140,217.539 231.678,216.243 231.964 C 214.633 232.318,214.062 232.591,214.440 232.825 C 215.725 233.619,214.140 233.928,210.633 233.566 C 207.513 233.244,206.972 233.282,206.318 233.874 C 205.778 234.363,204.851 234.550,202.972 234.550 C 200.990 234.550,200.420 234.675,200.573 235.075 C 200.723 235.465,200.264 235.600,198.787 235.600 C 197.355 235.600,196.800 235.444,196.800 235.043 C 196.800 234.373,195.939 234.000,194.391 234.000 C 193.762 234.000,193.136 233.820,193.000 233.600 C 192.846 233.351,191.509 233.295,189.471 233.451 C 186.565 233.675,186.030 233.606,184.795 232.853 C 184.028 232.386,183.076 232.002,182.681 232.001 C 182.285 232.001,181.545 231.550,181.035 231.000 C 180.410 230.326,179.493 229.915,178.222 229.741 C 176.771 229.542,176.257 229.276,175.996 228.590 C 175.810 228.100,175.149 227.521,174.529 227.304 C 173.908 227.087,172.770 226.316,172.000 225.590 C 171.230 224.864,169.880 224.055,169.000 223.793 C 167.285 223.282,166.698 222.087,167.618 220.978 C 167.958 220.569,167.967 220.400,167.649 220.400 C 167.402 220.400,167.200 220.591,167.200 220.824 C 167.200 221.057,167.004 221.126,166.765 220.978 C 166.526 220.831,166.411 220.400,166.510 220.021 C 166.652 219.480,166.487 219.371,165.745 219.513 C 164.946 219.665,164.800 219.531,164.800 218.647 C 164.800 217.879,164.594 217.600,164.028 217.600 C 163.532 217.600,163.210 217.278,163.128 216.700 C 163.036 216.056,162.688 215.764,161.900 215.673 C 160.967 215.566,160.764 215.316,160.556 214.016 C 160.390 212.980,159.949 212.217,159.190 211.656 C 158.561 211.191,157.944 210.257,157.784 209.527 C 157.483 208.158,156.819 206.761,156.279 206.363 C 156.102 206.233,155.883 205.513,155.791 204.763 C 155.406 201.610,155.107 200.421,154.593 199.994 C 154.293 199.745,154.143 199.293,154.259 198.990 C 154.376 198.687,154.325 198.205,154.146 197.919 C 153.967 197.634,153.806 197.220,153.788 197.000 C 153.742 196.451,153.267 195.212,152.603 193.909 C 152.275 193.264,152.201 192.723,152.424 192.585 C 152.631 192.457,152.800 191.215,152.800 189.825 C 152.800 185.639,154.901 185.518,156.011 189.640 C 156.658 192.044,158.440 194.224,159.064 193.376 C 159.477 192.815,159.557 192.834,159.783 193.545 C 159.922 193.985,160.793 194.790,161.718 195.334 C 162.643 195.878,164.237 197.150,165.260 198.162 C 166.283 199.173,167.309 200.000,167.540 200.000 C 167.771 200.000,168.104 200.231,168.280 200.513 C 168.719 201.217,174.105 204.400,174.856 204.400 C 175.191 204.400,175.706 204.850,176.000 205.400 C 176.294 205.950,176.871 206.400,177.282 206.400 C 177.692 206.400,178.427 206.651,178.914 206.958 C 182.198 209.026,199.408 209.201,203.777 207.211 C 204.685 206.797,205.919 206.335,206.519 206.185 C 207.119 206.034,207.743 205.687,207.905 205.413 C 208.067 205.139,208.903 204.586,209.762 204.183 C 210.621 203.780,212.037 202.772,212.908 201.943 C 213.780 201.114,214.906 200.293,215.411 200.118 C 216.426 199.766,219.530 195.741,220.372 193.685 C 220.668 192.961,221.245 192.190,221.655 191.971 C 222.065 191.751,222.400 191.212,222.400 190.772 C 222.400 190.332,222.688 189.532,223.040 188.995 C 224.848 186.236,224.940 159.772,223.164 153.400 C 222.919 152.520,222.383 150.090,221.973 148.000 C 220.810 142.071,220.600 141.238,219.308 137.400 C 218.641 135.420,217.960 133.170,217.794 132.400 C 217.629 131.630,217.093 130.100,216.603 129.000 C 215.661 126.887,213.984 121.712,213.994 120.949 C 213.997 120.701,213.730 120.274,213.400 120.000 C 213.070 119.726,212.794 119.119,212.787 118.651 C 212.780 118.183,212.510 117.451,212.187 117.024 C 211.864 116.596,211.600 115.913,211.600 115.504 C 211.600 115.095,211.315 114.209,210.966 113.534 C 210.181 112.017,210.661 111.372,212.091 112.023 C 212.739 112.318,213.040 112.725,212.928 113.152 C 212.832 113.520,213.214 114.499,213.777 115.328 C 214.340 116.157,214.800 117.069,214.800 117.354 C 214.800 117.638,215.250 118.077,215.800 118.327 C 216.350 118.578,216.800 119.037,216.800 119.349 C 216.800 119.660,217.070 120.018,217.400 120.145 C 217.730 120.271,218.000 120.741,218.000 121.187 C 218.000 121.634,218.180 122.000,218.400 122.000 C 218.620 122.000,218.800 122.248,218.800 122.551 C 218.800 122.854,219.082 123.336,219.426 123.621 C 219.809 123.939,219.965 124.483,219.830 125.025 C 219.664 125.686,219.815 125.963,220.428 126.123 C 220.949 126.259,221.204 126.605,221.125 127.068 C 221.022 127.667,221.303 127.814,222.700 127.894 C 223.982 127.967,224.400 127.845,224.400 127.395 C 224.400 127.068,224.109 126.800,223.753 126.800 C 223.281 126.800,223.158 126.533,223.296 125.812 C 223.399 125.269,223.338 124.914,223.160 125.025 C 222.699 125.310,221.477 123.323,221.795 122.808 C 221.941 122.573,221.911 122.406,221.730 122.437 C 220.827 122.594,220.400 122.325,220.400 121.600 C 220.400 121.130,220.133 120.800,219.753 120.800 C 219.302 120.800,219.170 120.557,219.317 119.995 C 219.454 119.471,219.273 119.053,218.800 118.800 C 218.327 118.547,218.146 118.129,218.283 117.605 C 218.434 117.027,218.298 116.800,217.800 116.800 C 217.308 116.800,217.166 116.572,217.312 116.014 C 217.431 115.562,217.331 115.264,217.077 115.314 C 216.835 115.361,216.622 115.220,216.604 115.000 C 216.537 114.175,215.384 112.800,214.759 112.800 C 214.283 112.800,214.162 112.534,214.302 111.800 C 214.445 111.055,214.322 110.800,213.823 110.800 C 213.306 110.800,213.194 110.531,213.337 109.628 C 213.477 108.739,213.386 108.507,212.961 108.670 C 212.623 108.800,212.400 108.630,212.400 108.243 C 212.400 107.889,212.220 107.600,212.000 107.600 C 211.780 107.600,211.600 107.330,211.600 107.000 C 211.600 106.670,211.330 106.400,211.000 106.400 C 210.667 106.400,210.400 106.044,210.400 105.600 C 210.400 105.132,210.133 104.800,209.757 104.800 C 209.269 104.800,209.174 104.556,209.366 103.791 C 209.555 103.039,209.439 102.718,208.910 102.529 C 207.960 102.191,206.432 100.362,206.414 99.543 C 206.406 99.181,206.126 98.780,205.791 98.652 C 205.396 98.500,205.244 98.071,205.360 97.433 C 205.492 96.703,205.391 96.505,204.969 96.667 C 204.622 96.800,204.400 96.634,204.400 96.243 C 204.400 95.889,204.220 95.600,204.000 95.600 C 203.780 95.600,203.600 95.150,203.600 94.600 C 203.600 93.978,203.373 93.600,203.000 93.600 C 202.670 93.600,202.400 93.330,202.400 93.000 C 202.400 92.670,202.175 92.445,201.900 92.500 C 201.625 92.555,201.445 92.375,201.500 92.100 C 201.649 91.353,198.834 91.446,198.546 92.198 M201.680 102.080 C 201.307 102.453,201.200 102.347,201.200 101.600 C 201.200 100.853,201.307 100.747,201.680 101.120 C 202.053 101.493,202.053 101.707,201.680 102.080 M210.190 109.180 C 210.897 110.548,210.965 111.200,210.400 111.200 C 210.180 111.200,210.000 110.905,210.000 110.544 C 210.000 110.183,209.703 109.671,209.339 109.405 C 208.975 109.139,208.806 108.714,208.962 108.461 C 209.376 107.791,209.513 107.871,210.190 109.180 M224.227 129.157 C 223.619 130.140,224.199 134.041,224.924 133.851 C 225.814 133.619,226.263 134.601,225.622 135.374 C 225.243 135.830,225.298 135.900,225.912 135.739 C 226.743 135.522,227.778 136.778,228.221 138.542 C 228.363 139.106,228.729 139.775,229.035 140.029 C 229.377 140.313,229.500 140.861,229.353 141.446 C 229.154 142.238,229.265 142.400,230.006 142.400 C 230.720 142.400,230.806 142.510,230.439 142.953 C 229.911 143.589,230.606 144.000,232.209 144.000 C 233.346 144.000,233.900 143.290,233.025 142.954 C 232.681 142.822,232.400 142.284,232.400 141.757 C 232.400 141.142,232.169 140.800,231.753 140.800 C 231.297 140.800,231.170 140.557,231.322 139.976 C 231.454 139.471,231.317 139.066,230.969 138.933 C 230.646 138.809,230.397 138.171,230.394 137.457 C 230.389 136.498,230.296 136.342,230.000 136.800 C 229.667 137.315,229.604 137.301,229.556 136.700 C 229.525 136.315,229.478 135.834,229.450 135.632 C 229.423 135.430,228.995 134.798,228.500 134.229 C 228.005 133.660,227.600 133.015,227.600 132.797 C 227.600 132.579,227.330 132.400,227.000 132.400 C 226.627 132.400,226.400 132.022,226.400 131.400 C 226.400 130.850,226.241 130.400,226.047 130.400 C 225.852 130.400,225.599 130.040,225.484 129.600 C 225.267 128.769,224.609 128.537,224.227 129.157 M228.071 145.021 C 228.252 145.890,228.961 145.943,229.124 145.100 C 229.208 144.662,229.012 144.400,228.600 144.400 C 228.216 144.400,227.995 144.659,228.071 145.021 M233.300 145.465 C 232.607 145.744,232.673 147.396,233.400 148.000 C 233.730 148.274,234.000 148.748,234.000 149.054 C 234.000 149.779,234.863 151.312,235.500 151.720 C 235.775 151.896,236.000 152.380,236.000 152.796 C 236.000 153.212,236.180 153.664,236.400 153.800 C 236.620 153.936,236.806 154.352,236.814 154.724 C 236.844 156.113,240.400 159.038,240.400 157.674 C 240.400 157.464,240.027 157.196,239.570 157.076 C 238.877 156.895,238.811 156.727,239.170 156.056 C 239.407 155.614,239.587 154.836,239.572 154.326 C 239.545 153.456,239.524 153.448,239.215 154.200 C 238.862 155.059,238.570 154.690,238.265 153.000 C 237.998 151.525,237.520 150.800,236.813 150.800 C 236.280 150.800,236.157 150.559,236.302 149.800 C 236.446 149.046,236.324 148.800,235.803 148.800 C 235.267 148.800,235.169 148.577,235.364 147.800 C 235.549 147.062,235.456 146.800,235.008 146.800 C 234.667 146.800,234.400 146.449,234.400 146.000 C 234.400 145.192,234.208 145.098,233.300 145.465 M240.448 158.310 C 239.892 159.349,239.863 161.468,240.400 161.800 C 240.620 161.936,240.800 162.376,240.800 162.778 C 240.800 163.180,241.069 164.024,241.398 164.654 C 241.726 165.284,241.996 166.081,241.998 166.425 C 241.999 166.769,242.396 167.849,242.880 168.825 C 243.364 169.801,243.716 170.758,243.663 170.950 C 243.610 171.143,243.814 171.593,244.117 171.950 C 245.339 173.391,245.696 175.062,245.238 177.195 C 244.997 178.320,244.800 179.300,244.800 179.373 C 244.800 179.447,245.159 179.601,245.598 179.715 C 246.037 179.830,246.500 180.256,246.627 180.662 C 246.754 181.068,247.016 181.698,247.210 182.063 C 247.728 183.042,247.831 194.443,247.330 195.400 C 247.100 195.840,246.891 196.901,246.866 197.757 C 246.841 198.614,246.545 199.619,246.209 199.990 C 245.873 200.361,245.713 200.780,245.854 200.920 C 245.994 201.061,245.724 202.070,245.254 203.162 C 244.785 204.254,244.400 205.513,244.400 205.959 C 244.400 206.404,244.023 207.120,243.562 207.550 C 242.984 208.088,242.806 208.590,242.989 209.165 C 243.181 209.769,243.081 210.000,242.627 210.000 C 242.225 210.000,242.000 210.359,242.000 211.000 C 242.000 211.733,241.787 212.000,241.200 212.000 C 240.675 212.000,240.400 212.267,240.400 212.776 C 240.400 213.203,240.210 213.670,239.978 213.814 C 239.746 213.957,239.617 214.373,239.692 214.737 C 239.768 215.102,239.553 215.622,239.215 215.892 C 238.710 216.296,238.696 216.448,239.136 216.738 C 239.802 217.178,241.593 216.405,241.597 215.676 C 241.599 215.388,241.780 215.264,242.000 215.400 C 242.238 215.547,242.400 215.071,242.400 214.224 C 242.400 213.441,242.580 212.800,242.800 212.800 C 243.020 212.800,243.200 212.300,243.200 211.689 C 243.200 210.365,244.203 208.800,245.051 208.800 C 245.583 208.800,245.580 208.723,245.029 208.171 C 243.986 207.129,244.368 206.329,246.200 205.723 C 247.328 205.351,247.400 205.203,247.400 203.251 C 247.400 201.905,247.597 201.053,247.960 200.827 C 248.375 200.569,248.453 199.995,248.262 198.601 C 248.036 196.954,248.101 196.699,248.790 196.519 C 249.419 196.354,249.535 196.065,249.374 195.057 C 249.264 194.366,249.189 193.620,249.208 193.400 C 249.686 187.872,249.599 181.697,249.037 181.230 C 248.684 180.938,248.400 180.098,248.400 179.351 C 248.400 178.467,248.209 178.000,247.847 178.000 C 247.163 178.000,246.776 176.681,247.243 175.944 C 247.793 175.077,247.654 173.596,247.000 173.345 C 246.670 173.218,246.400 172.678,246.400 172.145 C 246.400 171.611,246.123 171.068,245.784 170.938 C 245.363 170.777,245.224 170.342,245.346 169.569 C 245.453 168.890,245.299 168.248,244.962 167.969 C 244.653 167.712,244.400 166.905,244.400 166.175 C 244.400 165.445,244.220 164.736,244.000 164.600 C 243.780 164.464,243.600 163.984,243.600 163.534 C 243.600 162.970,243.413 162.786,243.000 162.945 C 242.592 163.101,242.400 162.923,242.400 162.387 C 242.400 161.954,242.141 161.600,241.824 161.600 C 240.952 161.600,240.739 160.971,241.239 159.874 C 241.871 158.488,241.133 157.030,240.448 158.310 M154.892 192.875 C 155.139 193.617,156.000 193.740,156.000 193.033 C 156.000 192.685,155.715 192.400,155.367 192.400 C 155.018 192.400,154.805 192.614,154.892 192.875 M115.520 294.880 C 115.893 295.253,116.107 295.253,116.480 294.880 C 116.853 294.507,116.747 294.400,116.000 294.400 C 115.253 294.400,115.147 294.507,115.520 294.880 M202.300 294.675 C 201.528 294.877,201.519 294.914,201.449 297.859 C 201.408 299.588,201.498 299.866,202.010 299.593 C 203.271 298.921,230.658 299.260,230.236 299.942 C 230.148 300.084,230.492 300.200,231.000 300.200 C 231.508 300.200,231.840 300.065,231.738 299.900 C 231.636 299.735,231.698 299.588,231.876 299.572 C 232.054 299.557,232.740 299.467,233.400 299.372 C 234.931 299.152,236.504 299.509,236.196 300.007 C 236.065 300.218,236.193 300.301,236.479 300.191 C 236.841 300.052,236.988 299.171,236.961 297.296 L 236.921 294.600 219.961 294.545 C 210.632 294.515,202.685 294.574,202.300 294.675 M107.700 299.876 C 108.085 299.976,108.715 299.976,109.100 299.876 C 109.485 299.775,109.170 299.693,108.400 299.693 C 107.630 299.693,107.315 299.775,107.700 299.876 M115.100 299.882 C 115.595 299.978,116.405 299.978,116.900 299.882 C 117.395 299.787,116.990 299.709,116.000 299.709 C 115.010 299.709,114.605 299.787,115.100 299.882 " stroke="none" fill="#05b8ce" fill-rule="evenodd"></path><path id="path3" d="M107.742 241.100 C 107.593 241.673,107.201 241.775,105.580 241.661 C 104.326 241.574,103.600 241.684,103.600 241.961 C 103.600 242.203,103.103 242.400,102.496 242.400 C 101.872 242.400,100.922 242.835,100.313 243.400 C 99.720 243.950,98.867 244.400,98.417 244.400 C 97.957 244.400,97.600 244.662,97.600 245.000 C 97.600 245.330,97.360 245.600,97.068 245.600 C 96.775 245.600,96.302 246.035,96.018 246.566 C 95.734 247.098,95.150 247.624,94.721 247.737 C 94.292 247.849,93.843 248.314,93.724 248.770 C 93.604 249.227,93.335 249.600,93.125 249.600 C 92.629 249.600,91.600 250.631,91.600 251.129 C 91.600 251.341,91.319 251.622,90.975 251.754 C 90.631 251.886,90.445 252.149,90.562 252.338 C 90.679 252.527,90.516 253.024,90.200 253.441 C 89.884 253.858,89.620 254.438,89.613 254.729 C 89.606 255.019,89.330 255.527,89.000 255.857 C 88.498 256.359,88.167 258.122,88.353 259.300 C 88.379 259.465,88.220 259.600,88.000 259.600 C 87.460 259.600,87.460 271.866,88.000 272.200 C 88.220 272.336,88.400 273.072,88.400 273.836 C 88.400 274.702,88.626 275.312,89.000 275.455 C 89.330 275.582,89.600 276.116,89.600 276.643 C 89.600 277.169,89.780 277.600,90.000 277.600 C 90.220 277.600,90.400 277.920,90.400 278.311 C 90.400 279.037,91.700 280.400,92.392 280.400 C 92.603 280.400,92.679 280.651,92.561 280.957 C 92.323 281.578,95.741 285.315,96.672 285.452 C 96.991 285.499,97.652 286.001,98.139 286.568 C 98.627 287.136,99.335 287.600,99.713 287.600 C 100.091 287.600,100.400 287.780,100.400 288.000 C 100.400 288.220,100.940 288.400,101.600 288.400 C 102.309 288.400,102.759 288.592,102.700 288.870 C 102.639 289.158,103.299 289.404,104.400 289.505 C 105.390 289.595,106.260 289.833,106.333 290.034 C 106.531 290.577,111.200 290.497,111.200 289.951 C 111.200 289.639,111.382 289.653,111.795 289.996 C 112.469 290.555,114.570 290.198,114.193 289.588 C 114.061 289.375,114.214 289.200,114.534 289.200 C 114.853 289.200,115.218 289.470,115.345 289.800 C 115.608 290.486,119.200 290.673,119.200 290.000 C 119.200 289.780,119.988 289.600,120.951 289.600 C 122.020 289.600,122.896 289.366,123.200 289.000 C 123.474 288.670,124.126 288.400,124.649 288.400 C 125.172 288.400,125.600 288.220,125.600 288.000 C 125.600 287.780,125.847 287.600,126.148 287.600 C 126.450 287.600,127.395 286.880,128.248 286.000 C 129.102 285.121,130.092 284.401,130.449 284.400 C 131.086 284.400,133.600 281.795,133.600 281.136 C 133.600 280.951,133.330 280.800,133.000 280.800 C 132.670 280.800,132.403 280.485,132.406 280.100 C 132.411 279.540,132.483 279.511,132.766 279.958 C 133.246 280.716,134.496 280.186,134.317 279.301 C 134.230 278.873,133.829 278.612,133.288 278.632 C 132.799 278.649,132.400 278.498,132.400 278.296 C 132.400 277.806,130.728 276.430,130.113 276.413 C 129.842 276.406,129.727 276.667,129.855 277.000 C 130.002 277.383,129.848 277.600,129.429 277.600 C 128.903 277.600,128.855 277.445,129.186 276.826 C 129.940 275.417,128.748 274.972,127.777 276.299 C 127.496 276.684,127.135 276.868,126.976 276.709 C 126.816 276.550,126.928 276.128,127.223 275.772 C 127.686 275.215,127.624 275.019,126.780 274.371 C 125.547 273.423,124.804 273.397,124.788 274.300 C 124.776 274.967,124.756 274.967,124.368 274.300 C 123.648 273.065,122.136 273.594,121.487 275.308 C 121.340 275.698,120.659 276.128,119.975 276.265 C 119.291 276.402,118.637 276.758,118.523 277.057 C 118.405 277.363,117.737 277.600,116.991 277.600 C 116.262 277.600,115.602 277.795,115.522 278.033 C 115.336 278.593,110.422 278.582,109.861 278.021 C 109.629 277.789,109.048 277.600,108.569 277.600 C 108.090 277.600,107.474 277.330,107.200 277.000 C 106.926 276.670,106.454 276.400,106.151 276.400 C 105.848 276.400,105.600 276.220,105.600 276.000 C 105.600 275.780,105.330 275.600,105.000 275.600 C 104.670 275.600,104.400 275.407,104.400 275.171 C 104.400 274.618,103.382 273.600,102.829 273.600 C 102.593 273.600,102.400 273.150,102.400 272.600 C 102.400 272.050,102.220 271.600,102.000 271.600 C 101.780 271.600,101.600 271.234,101.600 270.787 C 101.600 270.341,101.330 269.871,101.000 269.745 C 100.523 269.562,100.400 268.711,100.400 265.606 C 100.400 262.620,100.542 261.580,101.000 261.200 C 101.330 260.926,101.600 260.454,101.600 260.151 C 101.600 259.848,101.769 259.600,101.976 259.600 C 102.183 259.600,102.408 258.925,102.476 258.100 C 102.577 256.877,102.772 256.576,103.535 256.468 C 104.316 256.357,104.429 256.169,104.218 255.328 C 104.035 254.600,104.108 254.374,104.483 254.511 C 104.767 254.615,104.955 254.903,104.900 255.150 C 104.767 255.749,105.410 255.722,106.087 255.100 C 107.118 254.153,108.392 253.600,109.546 253.600 C 110.182 253.600,110.911 253.348,111.166 253.041 C 111.422 252.733,112.332 252.414,113.190 252.332 C 114.048 252.251,114.673 252.261,114.578 252.355 C 114.165 252.769,115.398 253.600,116.425 253.600 C 117.045 253.600,117.664 253.780,117.800 254.000 C 117.936 254.220,118.377 254.400,118.781 254.400 C 119.184 254.400,119.618 254.670,119.745 255.000 C 119.871 255.330,120.258 255.600,120.605 255.600 C 120.951 255.600,121.720 256.050,122.313 256.600 C 123.573 257.768,126.400 258.044,126.400 257.000 C 126.400 256.644,126.767 256.400,127.304 256.400 C 128.261 256.400,129.416 255.008,129.295 254.000 C 129.249 253.612,129.302 253.577,129.445 253.900 C 129.707 254.492,131.600 254.580,131.600 254.000 C 131.600 253.780,131.825 253.594,132.100 253.587 C 134.509 253.523,135.029 249.600,132.629 249.600 C 132.283 249.600,132.000 249.420,132.000 249.200 C 132.000 248.980,131.865 248.821,131.700 248.847 C 130.613 249.019,129.961 248.723,130.052 248.100 C 130.211 247.005,129.605 245.600,128.973 245.600 C 128.658 245.600,128.400 245.330,128.400 245.000 C 128.400 244.627,128.022 244.400,127.400 244.400 C 126.850 244.400,126.400 244.220,126.400 244.000 C 126.400 243.421,124.904 243.507,124.665 244.100 C 124.554 244.375,124.449 244.105,124.432 243.500 C 124.406 242.602,124.217 242.400,123.400 242.400 C 122.850 242.400,122.400 242.220,122.400 242.000 C 122.400 241.779,121.348 241.600,120.043 241.600 C 118.316 241.600,117.624 241.439,117.455 241.000 C 117.083 240.031,107.997 240.124,107.742 241.100 M151.270 242.526 C 150.791 243.035,150.400 243.935,150.400 244.526 C 150.400 245.117,150.220 245.600,150.000 245.600 C 149.780 245.600,149.600 246.219,149.600 246.976 C 149.600 247.733,149.431 248.457,149.225 248.584 C 147.923 249.389,147.157 252.944,148.200 253.345 C 148.530 253.471,148.789 253.986,148.775 254.487 L 148.749 255.400 148.388 254.500 C 147.876 253.228,146.400 253.285,146.400 254.576 C 146.400 255.113,146.220 255.664,146.000 255.800 C 145.780 255.936,145.600 256.555,145.600 257.175 C 145.600 257.795,145.330 258.526,145.000 258.800 C 144.670 259.074,144.400 259.805,144.400 260.425 C 144.400 261.045,144.220 261.664,144.000 261.800 C 143.780 261.936,143.600 262.557,143.600 263.181 C 143.600 263.819,143.338 264.415,143.000 264.545 C 142.623 264.689,142.400 265.301,142.400 266.187 C 142.400 266.964,142.220 267.600,142.000 267.600 C 141.780 267.600,141.600 268.050,141.600 268.600 C 141.600 269.150,141.802 269.555,142.050 269.500 C 142.297 269.445,142.575 269.601,142.666 269.847 C 142.767 270.119,142.428 270.249,141.799 270.180 C 140.940 270.086,140.727 270.264,140.532 271.242 C 140.402 271.888,140.140 272.514,139.948 272.632 C 139.330 273.014,139.544 275.200,140.200 275.200 C 140.530 275.200,140.800 275.506,140.800 275.880 C 140.800 276.409,140.693 276.453,140.320 276.080 C 139.391 275.151,138.400 275.510,138.400 276.776 C 138.400 277.423,138.220 278.064,138.000 278.200 C 137.780 278.336,137.600 278.977,137.600 279.624 C 137.600 280.340,137.408 280.761,137.110 280.700 C 136.804 280.638,136.607 281.116,136.586 281.975 C 136.567 282.731,136.337 283.421,136.076 283.508 C 135.814 283.595,135.600 284.262,135.600 284.991 C 135.600 285.798,135.366 286.404,135.000 286.545 C 134.670 286.671,134.400 287.059,134.400 287.406 C 134.400 288.083,136.983 287.889,137.780 287.151 C 137.989 286.958,138.439 286.799,138.780 286.798 C 139.121 286.796,139.883 286.543,140.473 286.235 C 141.063 285.927,142.143 285.549,142.873 285.396 C 143.603 285.242,144.774 284.849,145.476 284.524 C 147.230 283.710,148.172 283.967,148.327 285.303 C 148.563 287.348,149.600 286.612,149.600 284.400 L 149.600 282.400 153.400 282.400 C 157.141 282.400,157.200 282.385,157.200 281.443 C 157.200 280.437,157.859 280.000,159.374 280.000 C 159.874 280.000,161.524 279.541,163.041 278.980 C 172.339 275.541,178.400 274.174,178.400 275.517 C 178.400 275.956,178.670 276.418,179.000 276.545 C 179.350 276.679,179.600 276.551,179.600 276.236 C 179.600 275.940,179.330 275.474,179.000 275.200 C 178.670 274.926,178.400 274.310,178.400 273.831 C 178.400 273.352,178.235 272.789,178.034 272.580 C 177.832 272.371,177.603 271.750,177.524 271.200 C 177.446 270.650,177.160 270.245,176.891 270.300 C 176.580 270.363,176.400 269.902,176.400 269.043 C 176.400 267.608,175.621 266.939,174.849 267.711 C 174.531 268.029,174.400 268.032,174.400 267.723 C 174.400 267.482,174.670 267.182,175.000 267.055 C 175.330 266.929,175.600 266.481,175.600 266.062 C 175.600 265.642,175.330 265.074,175.000 264.800 C 174.670 264.526,174.400 263.795,174.400 263.175 C 174.400 262.555,174.220 261.936,174.000 261.800 C 173.780 261.664,173.600 261.093,173.600 260.531 C 173.600 259.623,173.466 259.529,172.400 259.685 C 171.740 259.782,171.200 259.713,171.200 259.531 C 171.200 259.349,171.470 259.200,171.800 259.200 C 172.546 259.200,172.629 256.986,171.900 256.520 C 171.625 256.344,171.400 255.848,171.400 255.418 C 171.400 254.925,171.031 254.533,170.400 254.358 C 169.850 254.205,169.625 254.062,169.900 254.040 C 170.491 253.993,170.589 251.600,170.000 251.600 C 169.780 251.600,169.600 250.964,169.600 250.187 C 169.600 249.301,169.377 248.689,169.000 248.545 C 168.630 248.403,168.400 247.795,168.400 246.957 C 168.400 246.211,168.220 245.600,168.000 245.600 C 167.780 245.600,167.600 245.150,167.600 244.600 C 167.600 243.535,166.548 243.212,165.733 244.027 C 165.431 244.329,165.236 244.271,165.066 243.827 C 164.897 243.389,165.062 243.200,165.613 243.200 C 166.133 243.200,166.400 242.929,166.400 242.400 C 166.400 241.282,162.243 241.191,161.816 242.300 C 161.559 242.967,161.527 242.967,161.153 242.300 C 160.476 241.093,152.444 241.276,151.270 242.526 M187.600 256.824 C 187.600 265.197,187.735 271.983,187.900 271.905 C 189.251 271.263,190.542 270.806,192.600 270.239 C 193.920 269.876,195.720 269.381,196.600 269.140 C 197.480 268.899,199.010 268.476,200.000 268.200 C 202.696 267.448,204.705 266.916,207.716 266.157 C 209.209 265.781,210.525 265.321,210.639 265.136 C 210.754 264.951,211.383 264.800,212.039 264.800 C 213.879 264.800,223.279 262.344,224.382 261.574 C 225.257 260.965,225.464 260.954,226.259 261.475 C 227.115 262.036,227.163 262.003,227.411 260.681 C 227.809 258.561,227.458 254.581,226.884 254.700 C 226.569 254.765,226.400 254.240,226.400 253.200 C 226.400 252.320,226.220 251.600,226.000 251.600 C 225.780 251.600,225.600 251.150,225.600 250.600 C 225.600 249.978,225.373 249.600,225.000 249.600 C 224.662 249.600,224.400 249.242,224.400 248.781 C 224.400 247.808,221.167 244.400,220.244 244.400 C 219.890 244.400,219.600 244.220,219.600 244.000 C 219.600 243.288,217.670 243.558,217.461 244.300 C 217.352 244.685,217.294 244.460,217.331 243.800 C 217.395 242.696,217.289 242.595,216.010 242.531 C 215.246 242.493,214.556 242.268,214.477 242.031 C 214.246 241.337,211.600 241.492,211.600 242.200 C 211.600 242.530,211.433 242.800,211.229 242.800 C 211.024 242.800,210.587 242.530,210.257 242.200 C 209.760 241.703,208.143 241.600,200.829 241.600 C 193.248 241.600,192.000 241.685,192.000 242.200 C 192.000 242.530,191.820 242.800,191.600 242.800 C 191.380 242.800,191.200 242.530,191.200 242.200 C 191.200 241.756,190.733 241.600,189.400 241.600 L 187.600 241.600 187.600 256.824 M239.600 242.951 C 239.600 243.694,239.330 244.526,239.000 244.800 C 238.670 245.074,238.400 245.816,238.400 246.449 C 238.400 247.082,238.220 247.600,238.000 247.600 C 237.780 247.600,237.600 248.031,237.600 248.557 C 237.600 249.084,237.330 249.618,237.000 249.745 C 236.653 249.878,236.400 250.476,236.400 251.164 C 236.400 251.818,236.220 252.464,236.000 252.600 C 235.780 252.736,235.600 253.467,235.600 254.224 C 235.600 255.180,235.417 255.600,235.000 255.600 C 234.610 255.600,234.400 255.991,234.400 256.720 C 234.400 257.336,234.196 258.044,233.947 258.293 C 233.323 258.917,233.817 260.045,234.585 259.750 C 234.923 259.621,235.200 259.262,235.200 258.954 C 235.200 258.515,235.356 258.491,235.917 258.841 C 236.462 259.182,237.086 259.135,238.531 258.644 C 239.574 258.290,240.917 257.992,241.514 257.982 C 242.111 257.973,243.281 257.722,244.113 257.425 L 245.625 256.886 246.190 258.239 C 246.604 259.229,246.932 259.524,247.411 259.340 C 247.936 259.139,247.960 259.021,247.534 258.750 C 247.151 258.508,247.254 258.411,247.900 258.406 C 248.512 258.402,248.800 258.159,248.800 257.649 C 248.800 256.453,249.716 255.996,252.654 255.728 C 254.164 255.591,255.508 255.314,255.639 255.114 C 256.052 254.486,259.200 254.435,259.200 255.056 C 259.200 255.355,259.470 255.600,259.800 255.600 C 260.130 255.600,260.400 255.330,260.400 255.000 C 260.400 254.670,260.243 254.400,260.050 254.400 C 259.858 254.400,259.590 253.848,259.455 253.173 C 259.318 252.492,259.030 252.058,258.805 252.197 C 258.562 252.347,258.400 251.896,258.400 251.066 C 258.400 249.609,257.626 248.934,256.849 249.711 C 256.531 250.029,256.400 250.032,256.400 249.723 C 256.400 249.482,256.682 249.177,257.027 249.045 C 258.273 248.567,257.581 246.588,256.200 246.681 C 255.127 246.753,255.074 246.705,255.700 246.236 C 256.469 245.660,256.627 244.588,256.000 244.200 C 255.780 244.064,255.600 243.423,255.600 242.776 L 255.600 241.600 247.600 241.600 L 239.600 241.600 239.600 242.951 M274.489 247.495 C 274.588 252.735,274.678 253.405,275.299 253.524 C 275.781 253.617,275.926 253.473,275.767 253.059 C 275.405 252.116,277.477 251.034,280.179 250.755 C 282.974 250.465,290.016 249.411,293.142 248.814 C 294.320 248.589,295.433 248.497,295.616 248.610 C 295.799 248.723,296.815 248.616,297.874 248.373 C 298.933 248.130,301.510 247.788,303.600 247.614 C 305.690 247.439,308.525 247.063,309.900 246.777 L 312.400 246.259 312.400 243.929 L 312.400 241.600 296.220 241.600 C 281.764 241.600,280.001 241.669,279.679 242.244 C 279.348 242.835,279.299 242.835,279.072 242.244 C 278.886 241.759,278.276 241.600,276.602 241.600 L 274.379 241.600 274.489 247.495 M122.800 243.133 C 122.800 243.696,122.350 243.956,121.763 243.731 C 121.456 243.613,121.304 243.355,121.426 243.158 C 121.705 242.706,122.800 242.687,122.800 243.133 M254.000 243.400 C 254.000 243.730,253.820 244.000,253.600 244.000 C 253.380 244.000,253.200 243.730,253.200 243.400 C 253.200 243.070,253.380 242.800,253.600 242.800 C 253.820 242.800,254.000 243.070,254.000 243.400 M130.800 251.849 C 130.800 252.380,130.691 252.408,130.200 252.000 C 129.870 251.726,129.600 251.434,129.600 251.351 C 129.600 251.268,129.870 251.200,130.200 251.200 C 130.530 251.200,130.800 251.492,130.800 251.849 M213.000 252.400 C 213.136 252.620,212.866 252.800,212.400 252.800 C 211.934 252.800,211.664 252.620,211.800 252.400 C 211.936 252.180,212.206 252.000,212.400 252.000 C 212.594 252.000,212.864 252.180,213.000 252.400 M94.635 254.298 C 94.198 254.735,93.899 254.040,94.212 253.317 C 94.510 252.632,94.532 252.633,94.697 253.331 C 94.793 253.734,94.765 254.169,94.635 254.298 M309.478 253.456 C 309.158 253.775,309.519 254.400,310.024 254.400 C 310.231 254.400,310.400 254.130,310.400 253.800 C 310.400 253.181,309.928 253.005,309.478 253.456 M211.200 254.000 C 211.200 254.220,211.380 254.400,211.600 254.400 C 212.303 254.400,213.600 255.971,213.600 256.824 C 213.600 257.277,213.780 257.536,214.000 257.400 C 214.220 257.264,214.414 257.388,214.432 257.676 C 214.456 258.079,214.510 258.085,214.665 257.700 C 214.776 257.425,215.060 257.200,215.295 257.200 C 215.531 257.200,215.426 257.529,215.062 257.931 C 214.698 258.334,214.400 258.884,214.400 259.155 C 214.400 259.426,214.220 259.536,214.000 259.400 C 213.767 259.256,213.600 259.663,213.600 260.376 C 213.600 261.197,213.403 261.600,213.000 261.600 C 212.670 261.600,212.400 261.780,212.400 262.000 C 212.400 262.220,212.152 262.400,211.849 262.400 C 211.546 262.400,211.074 262.670,210.800 263.000 C 210.406 263.474,209.264 263.600,205.351 263.600 L 200.400 263.600 200.400 258.600 L 200.400 253.600 205.800 253.600 C 209.133 253.600,211.200 253.753,211.200 254.000 M124.800 256.600 C 124.800 256.930,124.620 257.200,124.400 257.200 C 124.180 257.200,124.000 256.930,124.000 256.600 C 124.000 256.270,124.180 256.000,124.400 256.000 C 124.620 256.000,124.800 256.270,124.800 256.600 M158.900 257.123 C 159.307 257.473,159.600 258.283,159.600 259.062 C 159.600 259.798,159.780 260.400,160.000 260.400 C 160.220 260.400,160.400 261.036,160.400 261.813 C 160.400 262.699,160.623 263.311,161.000 263.455 C 161.370 263.597,161.600 264.205,161.600 265.043 C 161.600 265.789,161.780 266.400,162.000 266.400 C 162.220 266.400,162.400 266.837,162.400 267.371 C 162.400 267.906,162.670 268.613,163.000 268.943 C 164.249 270.192,163.679 270.400,159.000 270.400 L 154.400 270.400 154.400 269.400 C 154.400 268.778,154.627 268.400,155.000 268.400 C 155.432 268.400,155.600 267.958,155.600 266.824 C 155.600 265.957,155.780 265.136,156.000 265.000 C 156.220 264.864,156.400 264.223,156.400 263.576 C 156.400 262.797,156.603 262.400,157.000 262.400 C 157.419 262.400,157.600 261.978,157.600 261.000 C 157.600 260.230,157.780 259.600,158.000 259.600 C 158.220 259.600,158.400 258.970,158.400 258.200 C 158.400 257.222,158.219 256.800,157.800 256.800 C 157.470 256.800,157.200 256.609,157.200 256.376 C 157.200 255.916,157.802 256.180,158.900 257.123 M291.600 256.967 C 291.600 257.315,291.885 257.600,292.233 257.600 C 292.940 257.600,292.817 256.739,292.075 256.492 C 291.814 256.405,291.600 256.618,291.600 256.967 M307.200 256.967 C 307.200 257.278,306.975 257.614,306.700 257.712 C 306.425 257.810,306.334 258.034,306.498 258.209 C 306.811 258.546,308.400 257.317,308.400 256.738 C 308.400 256.552,308.130 256.400,307.800 256.400 C 307.470 256.400,307.200 256.655,307.200 256.967 M261.467 259.867 C 261.035 260.299,261.158 260.698,261.800 260.945 C 262.208 261.101,262.400 260.923,262.400 260.387 C 262.400 259.601,261.971 259.362,261.467 259.867 M289.300 260.270 C 288.312 260.959,288.118 261.602,288.900 261.597 C 289.175 261.595,289.608 261.145,289.862 260.597 C 290.117 260.049,290.297 259.609,290.262 259.621 C 290.228 259.633,289.795 259.924,289.300 260.270 M245.467 260.267 C 244.943 260.790,245.195 262.400,245.800 262.400 C 246.200 262.400,246.400 262.000,246.400 261.200 C 246.400 260.053,246.040 259.693,245.467 260.267 M248.400 260.524 C 248.400 261.851,249.423 262.492,249.519 261.225 C 249.586 260.356,249.436 260.000,249.006 260.000 C 248.673 260.000,248.400 260.236,248.400 260.524 M232.667 260.667 C 232.179 261.154,232.391 262.000,233.000 262.000 C 233.333 262.000,233.600 261.644,233.600 261.200 C 233.600 260.403,233.174 260.160,232.667 260.667 M303.900 261.157 C 303.042 262.027,303.012 262.400,303.800 262.400 C 304.130 262.400,304.400 262.130,304.400 261.800 C 304.400 261.470,304.580 261.200,304.800 261.200 C 305.020 261.200,305.200 261.020,305.200 260.800 C 305.200 260.213,304.695 260.351,303.900 261.157 M145.600 261.847 C 145.600 262.177,145.420 262.336,145.200 262.200 C 144.980 262.064,144.800 261.683,144.800 261.353 C 144.800 261.023,144.980 260.864,145.200 261.000 C 145.420 261.136,145.600 261.517,145.600 261.847 M262.400 263.200 C 262.400 263.716,262.603 263.999,262.900 263.900 C 263.175 263.808,263.400 263.493,263.400 263.200 C 263.400 262.907,263.175 262.592,262.900 262.500 C 262.603 262.401,262.400 262.684,262.400 263.200 M249.600 263.776 C 249.600 264.313,249.808 264.881,250.062 265.038 C 250.335 265.207,250.416 265.149,250.259 264.896 C 250.114 264.661,250.209 264.397,250.469 264.310 C 251.025 264.125,250.624 262.800,250.013 262.800 C 249.786 262.800,249.600 263.239,249.600 263.776 M244.473 264.212 C 244.637 265.520,245.317 265.519,245.492 264.210 C 245.588 263.494,245.441 263.200,244.987 263.200 C 244.535 263.200,244.384 263.498,244.473 264.212 M285.600 264.967 C 285.600 265.315,285.885 265.600,286.233 265.600 C 286.940 265.600,286.817 264.739,286.075 264.492 C 285.814 264.405,285.600 264.618,285.600 264.967 M301.100 265.076 C 300.273 265.292,300.151 266.400,300.953 266.400 C 301.258 266.400,301.601 266.040,301.716 265.600 C 301.831 265.160,301.897 264.821,301.863 264.846 C 301.828 264.872,301.485 264.975,301.100 265.076 M230.643 266.233 C 230.223 267.326,230.377 267.680,231.000 267.057 C 231.330 266.727,231.600 266.264,231.600 266.029 C 231.600 265.373,230.917 265.519,230.643 266.233 M250.472 266.471 C 250.543 266.947,250.825 267.411,251.100 267.502 C 251.839 267.745,251.715 266.130,250.972 265.845 C 250.503 265.665,250.377 265.822,250.472 266.471 M263.600 266.200 C 263.600 266.530,263.780 266.800,264.000 266.800 C 264.220 266.800,264.400 266.530,264.400 266.200 C 264.400 265.870,264.220 265.600,264.000 265.600 C 263.780 265.600,263.600 265.870,263.600 266.200 M243.467 266.267 C 243.012 266.721,243.173 267.904,243.718 268.113 C 244.059 268.244,244.267 267.916,244.325 267.156 C 244.408 266.057,244.049 265.685,243.467 266.267 M264.400 268.367 C 264.400 268.858,264.658 269.200,265.029 269.200 C 265.402 269.200,265.606 268.928,265.529 268.533 C 265.335 267.530,264.400 267.392,264.400 268.367 M222.900 268.998 C 222.625 269.311,222.400 269.754,222.400 269.983 C 222.400 270.212,222.207 270.400,221.971 270.400 C 221.736 270.400,221.286 270.657,220.971 270.971 C 220.362 271.581,220.203 272.408,220.700 272.387 C 221.242 272.364,222.400 271.321,222.400 270.856 C 222.400 270.605,222.670 270.400,223.000 270.400 C 223.330 270.400,223.600 270.130,223.600 269.800 C 223.600 269.470,223.780 269.200,224.000 269.200 C 224.220 269.200,224.400 269.020,224.400 268.800 C 224.400 268.217,223.481 268.339,222.900 268.998 M229.600 269.200 C 229.600 269.716,229.803 269.999,230.100 269.900 C 230.375 269.808,230.600 269.493,230.600 269.200 C 230.600 268.907,230.375 268.592,230.100 268.500 C 229.803 268.401,229.600 268.684,229.600 269.200 M282.667 268.667 C 282.206 269.127,282.375 269.600,283.000 269.600 C 283.330 269.600,283.600 269.330,283.600 269.000 C 283.600 268.375,283.127 268.206,282.667 268.667 M242.900 269.065 C 242.193 269.350,242.277 270.800,243.000 270.800 C 243.373 270.800,243.600 270.422,243.600 269.800 C 243.600 269.250,243.555 268.814,243.500 268.832 C 243.445 268.849,243.175 268.954,242.900 269.065 M251.762 269.355 C 251.501 270.035,251.851 270.800,252.424 270.800 C 252.928 270.800,252.906 269.313,252.397 268.998 C 252.176 268.861,251.890 269.022,251.762 269.355 M297.467 269.467 C 297.006 269.927,297.175 270.400,297.800 270.400 C 298.130 270.400,298.400 270.130,298.400 269.800 C 298.400 269.175,297.927 269.006,297.467 269.467 M265.455 271.000 C 265.315 271.365,265.455 271.600,265.813 271.600 C 266.136 271.600,266.400 271.330,266.400 271.000 C 266.400 270.670,266.239 270.400,266.043 270.400 C 265.846 270.400,265.582 270.670,265.455 271.000 M279.600 272.967 C 279.600 273.315,279.420 273.600,279.200 273.600 C 278.980 273.600,278.806 273.915,278.813 274.300 C 278.825 274.967,278.851 274.967,279.357 274.300 C 279.649 273.915,280.108 273.600,280.377 273.600 C 280.976 273.600,280.734 272.711,280.075 272.492 C 279.814 272.405,279.600 272.618,279.600 272.967 M294.900 272.998 C 294.276 273.707,294.254 274.400,294.856 274.400 C 295.321 274.400,296.364 273.242,296.387 272.700 C 296.409 272.198,295.432 272.394,294.900 272.998 M227.600 274.200 C 227.600 274.530,227.780 274.800,228.000 274.800 C 228.220 274.800,228.400 274.530,228.400 274.200 C 228.400 273.870,228.220 273.600,228.000 273.600 C 227.780 273.600,227.600 273.870,227.600 274.200 M266.400 274.200 C 266.400 274.530,266.670 274.800,267.000 274.800 C 267.330 274.800,267.600 274.530,267.600 274.200 C 267.600 273.870,267.330 273.600,267.000 273.600 C 266.670 273.600,266.400 273.870,266.400 274.200 M211.855 275.000 C 211.678 275.462,211.944 275.600,213.013 275.600 C 213.979 275.600,214.400 275.418,214.400 275.000 C 214.400 274.605,214.005 274.400,213.243 274.400 C 212.583 274.400,211.987 274.658,211.855 275.000 M267.600 276.600 C 267.600 277.150,267.780 277.600,268.000 277.600 C 268.220 277.600,268.400 277.150,268.400 276.600 C 268.400 276.050,268.220 275.600,268.000 275.600 C 267.780 275.600,267.600 276.050,267.600 276.600 M226.880 276.880 C 226.227 277.533,226.277 278.000,227.000 278.000 C 227.333 278.000,227.600 277.644,227.600 277.200 C 227.600 276.268,227.526 276.234,226.880 276.880 M276.667 276.667 C 276.206 277.127,276.375 277.600,277.000 277.600 C 277.330 277.600,277.600 277.330,277.600 277.000 C 277.600 276.375,277.127 276.206,276.667 276.667 M291.321 277.727 C 290.854 278.484,292.171 278.606,302.033 278.719 L 312.400 278.838 312.400 283.992 C 312.400 290.267,314.700 289.547,295.000 289.437 C 278.937 289.348,277.600 289.394,277.600 290.047 C 277.600 290.803,311.902 290.476,312.795 289.711 C 313.954 288.719,313.988 279.897,312.838 278.520 C 312.071 277.601,291.858 276.856,291.321 277.727 M179.400 278.000 C 179.108 278.472,179.487 279.200,180.024 279.200 C 180.231 279.200,180.400 278.840,180.400 278.400 C 180.400 277.556,179.818 277.324,179.400 278.000 M275.600 278.200 C 275.600 278.567,275.793 278.802,276.030 278.723 C 276.267 278.645,276.460 278.409,276.460 278.200 C 276.460 277.991,276.267 277.755,276.030 277.677 C 275.793 277.598,275.600 277.833,275.600 278.200 M268.400 279.167 C 268.400 279.658,268.658 280.000,269.029 280.000 C 269.402 280.000,269.606 279.728,269.529 279.333 C 269.335 278.330,268.400 278.192,268.400 279.167 M225.600 280.354 C 225.600 280.929,225.785 281.104,226.217 280.938 C 226.900 280.676,226.816 279.939,226.075 279.692 C 225.811 279.604,225.600 279.898,225.600 280.354 M180.400 281.200 C 180.400 281.716,180.603 281.999,180.900 281.900 C 181.175 281.808,181.400 281.493,181.400 281.200 C 181.400 280.907,181.175 280.592,180.900 280.500 C 180.603 280.401,180.400 280.684,180.400 281.200 M149.298 282.600 C 149.193 283.150,148.948 283.600,148.753 283.600 C 148.559 283.600,148.400 283.150,148.400 282.600 C 148.400 282.023,148.630 281.600,148.945 281.600 C 149.310 281.600,149.426 281.929,149.298 282.600 M269.467 281.867 C 269.006 282.327,269.175 282.800,269.800 282.800 C 270.130 282.800,270.400 282.530,270.400 282.200 C 270.400 281.575,269.927 281.406,269.467 281.867 M224.600 282.800 C 224.308 283.272,224.687 284.000,225.224 284.000 C 225.431 284.000,225.600 283.640,225.600 283.200 C 225.600 282.356,225.018 282.124,224.600 282.800 M167.662 283.375 C 167.738 283.742,167.980 284.033,168.200 284.021 C 168.794 283.990,168.685 283.095,168.062 282.887 C 167.725 282.775,167.575 282.958,167.662 283.375 M181.600 284.200 C 181.600 284.530,181.780 284.800,182.000 284.800 C 182.220 284.800,182.400 284.530,182.400 284.200 C 182.400 283.870,182.220 283.600,182.000 283.600 C 181.780 283.600,181.600 283.870,181.600 284.200 M256.481 284.535 C 256.657 285.723,257.600 285.862,257.600 284.700 C 257.600 284.094,257.369 283.733,256.981 283.733 C 256.588 283.733,256.405 284.027,256.481 284.535 M270.400 284.600 C 270.400 285.276,270.583 285.606,270.900 285.500 C 271.175 285.408,271.400 285.003,271.400 284.600 C 271.400 284.197,271.175 283.792,270.900 283.700 C 270.583 283.594,270.400 283.924,270.400 284.600 M237.600 284.600 C 237.600 284.930,237.780 285.200,238.000 285.200 C 238.220 285.200,238.400 284.930,238.400 284.600 C 238.400 284.270,238.220 284.000,238.000 284.000 C 237.780 284.000,237.600 284.270,237.600 284.600 M223.772 284.928 C 223.452 285.763,223.852 286.308,224.390 285.770 C 224.617 285.543,224.623 285.161,224.405 284.808 C 224.098 284.311,224.002 284.330,223.772 284.928 M168.564 286.232 C 168.718 287.282,169.600 287.870,169.600 286.923 C 169.600 286.462,169.348 285.989,169.039 285.870 C 168.703 285.741,168.513 285.885,168.564 286.232 M182.400 286.600 C 182.400 287.222,182.627 287.600,183.000 287.600 C 183.646 287.600,183.741 287.234,183.357 286.233 C 182.984 285.259,182.400 285.483,182.400 286.600 M236.400 287.400 C 236.400 288.076,236.583 288.406,236.900 288.300 C 237.175 288.208,237.400 287.803,237.400 287.400 C 237.400 286.997,237.175 286.592,236.900 286.500 C 236.583 286.394,236.400 286.724,236.400 287.400 M271.454 287.002 C 271.315 287.365,271.456 287.600,271.813 287.600 C 272.460 287.600,272.607 286.975,272.042 286.626 C 271.845 286.504,271.581 286.674,271.454 287.002 M257.600 287.600 C 257.600 288.116,257.803 288.399,258.100 288.300 C 258.375 288.208,258.600 287.893,258.600 287.600 C 258.600 287.307,258.375 286.992,258.100 286.900 C 257.803 286.801,257.600 287.084,257.600 287.600 M222.413 288.100 C 222.466 290.072,223.650 290.426,229.982 290.359 C 235.501 290.300,239.039 289.669,234.524 289.549 C 233.466 289.521,232.060 289.467,231.400 289.429 C 230.740 289.391,228.715 289.324,226.900 289.280 C 223.893 289.207,223.600 289.129,223.600 288.400 C 223.600 287.956,223.333 287.600,223.000 287.600 C 222.670 287.600,222.406 287.825,222.413 288.100 M273.600 288.195 C 273.600 289.140,274.895 290.400,275.865 290.400 C 277.226 290.400,277.353 289.697,276.044 289.410 C 275.367 289.261,274.796 288.830,274.678 288.377 C 274.440 287.467,273.600 287.326,273.600 288.195 M118.600 288.400 C 118.736 288.620,118.466 288.800,118.000 288.800 C 117.534 288.800,117.264 288.620,117.400 288.400 C 117.536 288.180,117.806 288.000,118.000 288.000 C 118.194 288.000,118.464 288.180,118.600 288.400 M147.200 288.800 C 146.717 289.702,138.399 290.003,135.661 289.218 C 134.531 288.894,134.364 288.929,134.564 289.450 C 134.694 289.789,134.800 290.141,134.800 290.233 C 134.800 290.325,137.562 290.400,140.938 290.400 C 147.274 290.400,148.400 290.109,148.400 288.469 C 148.400 287.723,147.668 287.925,147.200 288.800 M170.673 289.678 C 169.746 290.252,171.537 290.420,177.385 290.311 C 181.589 290.233,183.381 290.058,183.495 289.718 C 183.671 289.186,171.530 289.149,170.673 289.678 M187.724 289.773 C 187.899 290.299,199.495 290.494,199.815 289.976 C 200.150 289.434,198.204 289.088,196.304 289.351 C 194.204 289.642,194.451 289.637,190.691 289.478 C 188.615 289.390,187.629 289.489,187.724 289.773 M260.892 289.483 C 260.173 289.576,259.689 289.820,259.816 290.026 C 260.109 290.500,271.477 290.522,271.770 290.049 C 271.889 289.856,270.144 289.667,267.893 289.630 C 265.642 289.592,263.440 289.506,263.000 289.438 C 262.560 289.370,261.612 289.390,260.892 289.483 M88.496 294.923 C 88.003 295.142,87.600 295.506,87.600 295.730 C 87.600 295.954,87.285 296.497,86.900 296.937 C 86.515 297.377,86.425 297.606,86.700 297.445 C 86.999 297.270,87.200 297.373,87.200 297.702 C 87.200 298.299,89.223 300.400,89.798 300.400 C 89.993 300.400,89.804 300.129,89.376 299.798 C 88.639 299.225,88.650 299.213,89.600 299.539 C 90.818 299.958,100.091 299.838,100.809 299.394 C 101.128 299.198,101.225 299.236,101.065 299.495 C 100.854 299.836,121.437 299.930,122.400 299.593 C 122.510 299.554,123.275 299.554,124.100 299.592 C 125.573 299.660,126.226 298.834,125.200 298.200 C 124.677 297.876,124.684 296.119,125.210 295.794 C 125.435 295.655,133.310 295.523,142.710 295.502 C 152.109 295.480,158.720 295.366,157.400 295.249 L 155.000 295.036 157.800 294.804 C 159.586 294.657,158.256 294.573,154.130 294.574 C 150.213 294.574,147.752 294.722,147.892 294.949 C 148.022 295.159,147.906 295.189,147.628 295.017 C 147.355 294.848,142.692 294.732,137.266 294.758 C 125.502 294.814,127.022 294.828,122.506 294.618 C 119.571 294.481,118.687 294.570,118.206 295.051 C 117.665 295.592,117.600 295.590,117.600 295.029 C 117.600 294.306,117.146 294.214,116.545 294.815 C 116.259 295.101,115.779 295.096,114.996 294.798 C 113.536 294.243,89.768 294.355,88.496 294.923 M197.666 294.750 C 197.065 295.132,197.886 295.600,199.158 295.600 C 199.721 295.600,199.846 295.955,199.825 297.500 C 199.803 299.175,199.907 299.415,200.700 299.528 C 201.641 299.661,201.897 298.547,201.374 296.600 C 201.118 295.649,199.403 294.747,198.505 295.092 C 198.083 295.254,197.966 295.178,198.158 294.868 C 198.499 294.317,198.391 294.291,197.666 294.750 M236.889 296.700 C 236.834 297.965,236.969 299.270,237.189 299.600 C 237.408 299.930,237.591 300.009,237.594 299.776 C 237.598 299.525,238.452 299.378,239.700 299.416 C 240.855 299.451,241.240 299.407,240.555 299.319 C 238.609 299.068,237.745 295.600,239.628 295.600 C 240.642 295.600,240.622 294.951,239.600 294.684 C 239.160 294.569,238.800 294.644,238.800 294.852 C 238.800 295.074,238.484 295.059,238.026 294.814 C 237.601 294.586,237.193 294.400,237.120 294.400 C 237.048 294.400,236.944 295.435,236.889 296.700 M273.877 294.656 C 273.367 295.166,273.593 295.600,274.367 295.600 C 276.833 295.600,277.159 298.387,274.800 299.303 C 274.470 299.431,282.720 299.479,293.134 299.408 C 314.855 299.261,314.667 299.300,312.498 295.358 C 312.028 294.506,274.706 293.828,273.877 294.656 M94.885 296.328 C 96.339 296.905,94.927 297.754,92.227 297.926 C 89.618 298.092,89.600 298.086,89.600 297.047 C 89.600 295.967,92.859 295.524,94.885 296.328 M114.000 296.957 C 114.000 297.908,113.061 298.608,112.364 298.178 C 111.499 297.643,111.979 296.000,113.000 296.000 C 113.788 296.000,114.000 296.203,114.000 296.957 M120.400 296.880 C 120.400 297.668,118.647 297.923,118.200 297.200 C 117.807 296.565,118.264 296.160,119.374 296.160 C 120.095 296.160,120.400 296.374,120.400 296.880 M259.911 299.493 C 260.851 299.578,262.291 299.577,263.111 299.491 C 263.930 299.405,263.160 299.336,261.400 299.337 C 259.640 299.339,258.970 299.409,259.911 299.493 " stroke="none" fill="#646464" fill-rule="evenodd"></path><path id="path4" d="M201.417 91.972 C 201.144 92.414,201.775 92.892,202.144 92.522 C 202.525 92.142,202.454 91.600,202.024 91.600 C 201.817 91.600,201.544 91.768,201.417 91.972 M196.400 94.000 C 196.400 94.220,196.670 94.400,197.000 94.400 C 197.330 94.400,197.600 94.220,197.600 94.000 C 197.600 93.780,197.330 93.600,197.000 93.600 C 196.670 93.600,196.400 93.780,196.400 94.000 M204.400 96.157 C 204.400 97.031,205.428 97.218,205.493 96.356 C 205.525 95.939,205.293 95.600,204.975 95.600 C 204.659 95.600,204.400 95.851,204.400 96.157 M205.292 98.075 C 205.539 98.817,206.400 98.940,206.400 98.233 C 206.400 97.885,206.115 97.600,205.767 97.600 C 205.418 97.600,205.205 97.814,205.292 98.075 M192.400 100.387 C 192.400 100.923,192.592 101.101,193.000 100.945 C 193.330 100.818,193.600 100.464,193.600 100.157 C 193.600 99.851,193.330 99.600,193.000 99.600 C 192.670 99.600,192.400 99.954,192.400 100.387 M206.414 99.900 C 206.440 100.425,208.174 102.267,208.880 102.518 C 209.741 102.824,209.414 101.768,208.544 101.434 C 208.215 101.308,208.078 100.998,208.236 100.741 C 208.416 100.451,208.349 100.384,208.059 100.564 C 207.799 100.724,207.489 100.575,207.354 100.225 C 207.112 99.595,206.388 99.344,206.414 99.900 M201.200 101.600 C 201.200 102.347,201.307 102.453,201.680 102.080 C 202.053 101.707,202.053 101.493,201.680 101.120 C 201.307 100.747,201.200 100.853,201.200 101.600 M209.200 104.200 C 209.200 104.530,209.470 104.800,209.800 104.800 C 210.130 104.800,210.400 104.530,210.400 104.200 C 210.400 103.870,210.130 103.600,209.800 103.600 C 209.470 103.600,209.200 103.870,209.200 104.200 M188.533 106.200 C 188.533 106.530,188.773 106.800,189.067 106.800 C 189.360 106.800,189.600 106.530,189.600 106.200 C 189.600 105.870,189.360 105.600,189.067 105.600 C 188.773 105.600,188.533 105.870,188.533 106.200 M186.878 108.919 C 186.175 109.645,185.612 110.500,185.627 110.819 C 185.643 111.157,185.836 111.023,186.088 110.500 C 186.327 110.005,186.720 109.599,186.961 109.597 C 187.203 109.595,187.608 109.145,187.862 108.597 C 188.453 107.324,188.412 107.337,186.878 108.919 M212.400 108.124 C 212.400 108.449,212.652 108.811,212.961 108.930 C 213.317 109.066,213.486 108.907,213.426 108.494 C 213.304 107.664,212.400 107.338,212.400 108.124 M208.962 108.461 C 208.806 108.714,208.975 109.139,209.339 109.405 C 209.703 109.671,210.000 110.183,210.000 110.544 C 210.000 110.905,210.180 111.200,210.400 111.200 C 210.965 111.200,210.897 110.548,210.190 109.180 C 209.513 107.871,209.376 107.791,208.962 108.461 M213.200 110.200 C 213.200 110.530,213.470 110.800,213.800 110.800 C 214.130 110.800,214.400 110.530,214.400 110.200 C 214.400 109.870,214.130 109.600,213.800 109.600 C 213.470 109.600,213.200 109.870,213.200 110.200 M184.655 112.200 C 184.515 112.565,184.655 112.800,185.013 112.800 C 185.336 112.800,185.600 112.530,185.600 112.200 C 185.600 111.870,185.439 111.600,185.243 111.600 C 185.046 111.600,184.782 111.870,184.655 112.200 M210.607 111.988 C 210.475 112.202,210.645 112.913,210.984 113.568 C 211.323 114.224,211.600 115.095,211.600 115.504 C 211.600 115.913,211.864 116.596,212.187 117.024 C 212.510 117.451,212.780 118.183,212.787 118.651 C 212.794 119.119,213.070 119.726,213.400 120.000 C 213.730 120.274,213.997 120.701,213.994 120.949 C 213.984 121.712,215.661 126.887,216.603 129.000 C 217.093 130.100,217.629 131.630,217.794 132.400 C 217.960 133.170,218.641 135.420,219.308 137.400 C 220.600 141.238,220.810 142.071,221.973 148.000 C 222.383 150.090,222.919 152.520,223.164 153.400 C 224.940 159.772,224.848 186.236,223.040 188.995 C 222.688 189.532,222.400 190.332,222.400 190.772 C 222.400 191.212,222.065 191.751,221.655 191.971 C 221.245 192.190,220.668 192.961,220.372 193.685 C 219.530 195.741,216.426 199.766,215.411 200.118 C 214.906 200.293,213.780 201.114,212.908 201.943 C 212.037 202.772,210.621 203.780,209.762 204.183 C 208.903 204.586,208.067 205.139,207.905 205.413 C 207.743 205.687,207.119 206.034,206.519 206.185 C 205.919 206.335,204.685 206.797,203.777 207.211 C 199.408 209.201,182.198 209.026,178.914 206.958 C 178.427 206.651,177.692 206.400,177.282 206.400 C 176.871 206.400,176.294 205.950,176.000 205.400 C 175.706 204.850,175.191 204.400,174.856 204.400 C 174.105 204.400,168.719 201.217,168.280 200.513 C 168.104 200.231,167.771 200.000,167.540 200.000 C 167.309 200.000,166.283 199.173,165.260 198.162 C 164.237 197.150,162.643 195.878,161.718 195.334 C 160.793 194.790,159.922 193.985,159.783 193.545 C 159.557 192.834,159.477 192.815,159.064 193.376 C 158.440 194.224,156.658 192.044,156.011 189.640 C 154.901 185.518,152.800 185.639,152.800 189.825 C 152.800 191.215,152.631 192.457,152.424 192.585 C 152.201 192.723,152.275 193.264,152.603 193.909 C 153.226 195.132,153.723 196.399,153.816 197.000 C 153.850 197.220,154.011 197.706,154.174 198.081 C 154.337 198.455,154.367 198.930,154.240 199.136 C 154.113 199.341,154.263 199.720,154.573 199.978 C 155.105 200.419,155.403 201.591,155.791 204.763 C 155.883 205.513,156.102 206.233,156.279 206.363 C 156.819 206.761,157.483 208.158,157.784 209.527 C 157.944 210.257,158.561 211.191,159.190 211.656 C 159.949 212.217,160.390 212.980,160.556 214.016 C 160.764 215.316,160.967 215.566,161.900 215.673 C 162.688 215.764,163.036 216.056,163.128 216.700 C 163.210 217.278,163.532 217.600,164.028 217.600 C 164.594 217.600,164.800 217.879,164.800 218.647 C 164.800 219.531,164.946 219.665,165.745 219.513 C 166.487 219.371,166.652 219.480,166.510 220.021 C 166.411 220.400,166.526 220.831,166.765 220.978 C 167.004 221.126,167.200 221.057,167.200 220.824 C 167.200 220.591,167.402 220.400,167.649 220.400 C 167.967 220.400,167.958 220.569,167.618 220.978 C 166.698 222.087,167.285 223.282,169.000 223.793 C 169.880 224.055,171.230 224.864,172.000 225.590 C 172.770 226.316,173.908 227.087,174.529 227.304 C 175.149 227.521,175.810 228.100,175.996 228.590 C 176.257 229.276,176.771 229.542,178.222 229.741 C 179.493 229.915,180.410 230.326,181.035 231.000 C 181.545 231.550,182.285 232.001,182.681 232.001 C 183.076 232.002,184.028 232.386,184.795 232.853 C 186.030 233.606,186.565 233.675,189.471 233.451 C 191.509 233.295,192.846 233.351,193.000 233.600 C 193.136 233.820,193.762 234.000,194.391 234.000 C 195.939 234.000,196.800 234.373,196.800 235.043 C 196.800 235.444,197.355 235.600,198.787 235.600 C 200.264 235.600,200.723 235.465,200.573 235.075 C 200.420 234.675,200.990 234.550,202.972 234.550 C 204.851 234.550,205.778 234.363,206.318 233.874 C 206.972 233.282,207.513 233.244,210.633 233.566 C 214.140 233.928,215.725 233.619,214.440 232.825 C 214.062 232.591,214.633 232.318,216.243 231.964 C 217.539 231.678,218.821 231.140,219.090 230.769 C 219.360 230.397,220.208 229.975,220.975 229.831 C 221.741 229.687,222.904 229.034,223.558 228.380 C 224.237 227.701,224.854 227.365,224.997 227.596 C 225.400 228.247,226.458 228.060,226.672 227.300 C 226.924 226.407,230.220 224.029,232.021 223.441 C 233.202 223.056,233.400 222.812,233.399 221.746 C 233.399 220.942,233.568 220.566,233.878 220.685 C 234.435 220.899,235.683 219.800,236.360 218.500 C 236.617 218.005,237.126 217.600,237.491 217.600 C 238.054 217.600,238.037 217.515,237.377 217.033 C 236.950 216.721,236.745 216.322,236.920 216.147 C 237.469 215.598,238.572 216.622,238.839 217.929 C 238.980 218.619,238.939 219.086,238.748 218.968 C 238.556 218.849,238.400 218.943,238.400 219.176 C 238.400 219.409,238.670 219.600,239.000 219.600 C 239.330 219.600,239.600 219.330,239.600 219.000 C 239.600 218.670,239.780 218.400,240.000 218.400 C 240.220 218.400,240.400 218.029,240.400 217.576 C 240.400 217.123,240.256 216.842,240.081 216.950 C 239.360 217.395,238.559 216.417,239.215 215.892 C 239.553 215.622,239.768 215.102,239.692 214.737 C 239.617 214.373,239.746 213.957,239.978 213.814 C 240.210 213.670,240.400 213.203,240.400 212.776 C 240.400 212.267,240.675 212.000,241.200 212.000 C 241.787 212.000,242.000 211.733,242.000 211.000 C 242.000 210.359,242.225 210.000,242.627 210.000 C 243.081 210.000,243.181 209.769,242.989 209.165 C 242.806 208.590,242.984 208.088,243.562 207.550 C 244.023 207.120,244.400 206.404,244.400 205.959 C 244.400 205.513,244.785 204.254,245.254 203.162 C 245.724 202.070,245.994 201.061,245.854 200.920 C 245.713 200.780,245.873 200.361,246.209 199.990 C 246.545 199.619,246.841 198.614,246.866 197.757 C 246.891 196.901,247.100 195.840,247.330 195.400 C 247.831 194.443,247.728 183.042,247.210 182.063 C 247.016 181.698,246.754 181.068,246.627 180.662 C 246.500 180.256,246.037 179.830,245.598 179.715 C 245.159 179.601,244.800 179.447,244.800 179.373 C 244.800 179.300,244.997 178.320,245.238 177.195 C 245.696 175.062,245.339 173.391,244.117 171.950 C 243.814 171.593,243.610 171.143,243.663 170.950 C 243.716 170.758,243.364 169.801,242.880 168.825 C 242.396 167.849,241.999 166.769,241.998 166.425 C 241.996 166.081,241.726 165.284,241.398 164.654 C 241.069 164.024,240.800 163.180,240.800 162.778 C 240.800 162.376,240.620 161.936,240.400 161.800 C 239.902 161.492,239.877 159.378,240.360 158.474 C 240.652 157.929,240.526 157.788,239.706 157.739 C 238.605 157.673,236.838 155.830,236.814 154.724 C 236.806 154.352,236.620 153.936,236.400 153.800 C 236.180 153.664,236.000 153.212,236.000 152.796 C 236.000 152.380,235.775 151.896,235.500 151.720 C 234.863 151.312,234.000 149.779,234.000 149.054 C 234.000 148.748,233.730 148.274,233.400 148.000 C 232.522 147.271,232.643 145.704,233.600 145.400 C 235.110 144.921,234.611 143.524,233.035 143.820 C 231.159 144.172,229.797 143.726,230.428 142.966 C 230.809 142.507,230.730 142.400,230.006 142.400 C 229.265 142.400,229.154 142.238,229.353 141.446 C 229.500 140.861,229.377 140.313,229.035 140.029 C 228.729 139.775,228.363 139.106,228.221 138.542 C 227.778 136.778,226.743 135.522,225.912 135.739 C 225.298 135.900,225.243 135.830,225.622 135.374 C 226.270 134.593,225.813 133.619,224.910 133.855 C 224.248 134.028,224.173 133.786,224.186 131.524 C 224.198 129.371,224.303 129.008,224.900 129.056 C 225.323 129.089,225.600 128.832,225.600 128.405 C 225.600 127.807,225.250 127.707,223.300 127.750 C 221.279 127.794,221.015 127.711,221.125 127.069 C 221.204 126.605,220.950 126.260,220.428 126.123 C 219.815 125.963,219.664 125.686,219.830 125.025 C 219.965 124.483,219.809 123.939,219.426 123.621 C 219.082 123.336,218.800 122.854,218.800 122.551 C 218.800 122.248,218.620 122.000,218.400 122.000 C 218.180 122.000,218.000 121.634,218.000 121.187 C 218.000 120.741,217.730 120.271,217.400 120.145 C 217.070 120.018,216.800 119.660,216.800 119.349 C 216.800 119.037,216.350 118.578,215.800 118.327 C 215.250 118.077,214.800 117.638,214.800 117.354 C 214.800 117.069,214.340 116.157,213.777 115.328 C 213.214 114.499,212.832 113.520,212.928 113.152 C 213.039 112.730,212.747 112.322,212.133 112.042 C 210.952 111.504,210.908 111.502,210.607 111.988 M214.255 112.200 C 214.099 112.608,214.277 112.800,214.813 112.800 C 215.246 112.800,215.600 112.530,215.600 112.200 C 215.600 111.870,215.349 111.600,215.043 111.600 C 214.736 111.600,214.382 111.870,214.255 112.200 M216.938 115.797 C 217.445 116.890,218.400 117.153,218.400 116.200 C 218.400 115.870,218.130 115.600,217.800 115.600 C 217.470 115.600,217.200 115.420,217.200 115.200 C 217.200 114.980,217.037 114.800,216.838 114.800 C 216.638 114.800,216.683 115.249,216.938 115.797 M182.030 116.381 C 181.684 116.595,181.593 116.991,181.782 117.460 C 182.054 118.134,182.113 118.115,182.449 117.242 C 182.880 116.120,182.781 115.917,182.030 116.381 M180.656 117.878 C 180.205 118.328,180.381 118.800,181.000 118.800 C 181.330 118.800,181.600 118.631,181.600 118.424 C 181.600 117.919,180.975 117.558,180.656 117.878 M218.212 117.980 C 218.083 118.189,218.343 118.555,218.789 118.794 C 219.480 119.164,219.600 119.108,219.600 118.414 C 219.600 117.587,218.641 117.287,218.212 117.980 M180.003 119.589 C 179.567 119.865,179.526 120.086,179.850 120.410 C 180.174 120.734,180.351 120.631,180.509 120.026 C 180.628 119.572,180.697 119.203,180.663 119.206 C 180.628 119.209,180.332 119.382,180.003 119.589 M219.200 120.200 C 219.200 120.530,219.470 120.800,219.800 120.800 C 220.130 120.800,220.400 120.530,220.400 120.200 C 220.400 119.870,220.130 119.600,219.800 119.600 C 219.470 119.600,219.200 119.870,219.200 120.200 M178.400 122.133 C 178.400 122.427,178.670 122.667,179.000 122.667 C 179.330 122.667,179.600 122.427,179.600 122.133 C 179.600 121.840,179.330 121.600,179.000 121.600 C 178.670 121.600,178.400 121.840,178.400 122.133 M220.400 122.067 C 220.400 122.250,220.548 122.400,220.729 122.400 C 221.179 122.400,223.200 125.537,223.200 126.236 C 223.200 126.546,223.470 126.800,223.800 126.800 C 224.563 126.800,224.587 125.757,223.831 125.467 C 223.483 125.334,223.346 124.929,223.478 124.424 C 223.630 123.843,223.503 123.600,223.047 123.600 C 222.691 123.600,222.400 123.319,222.400 122.976 C 222.400 122.633,222.220 122.464,222.000 122.600 C 221.780 122.736,221.600 122.597,221.600 122.290 C 221.600 121.984,221.330 121.733,221.000 121.733 C 220.670 121.733,220.400 121.883,220.400 122.067 M172.678 131.856 C 172.358 132.175,172.719 132.800,173.224 132.800 C 173.431 132.800,173.600 132.530,173.600 132.200 C 173.600 131.581,173.128 131.405,172.678 131.856 M228.667 134.667 C 228.242 135.091,228.355 135.497,228.961 135.730 C 229.293 135.857,229.488 135.716,229.439 135.384 C 229.330 134.645,228.998 134.336,228.667 134.667 M230.400 138.124 C 230.400 138.449,230.683 138.823,231.029 138.956 C 231.468 139.124,231.619 138.996,231.529 138.532 C 231.365 137.685,230.400 137.337,230.400 138.124 M231.200 140.167 C 231.200 140.515,231.485 140.800,231.833 140.800 C 232.540 140.800,232.417 139.939,231.675 139.692 C 231.414 139.605,231.200 139.818,231.200 140.167 M232.400 142.157 C 232.400 142.464,232.670 142.818,233.000 142.945 C 233.408 143.101,233.600 142.923,233.600 142.387 C 233.600 141.954,233.330 141.600,233.000 141.600 C 232.670 141.600,232.400 141.851,232.400 142.157 M166.246 143.386 C 165.448 144.604,165.441 144.800,166.200 144.800 C 166.568 144.800,166.800 144.426,166.800 143.833 C 166.800 143.302,167.025 142.776,167.300 142.665 C 167.620 142.536,167.636 142.452,167.346 142.432 C 167.096 142.414,166.601 142.844,166.246 143.386 M229.124 145.100 C 228.961 145.943,228.252 145.890,228.071 145.021 C 227.995 144.659,228.216 144.400,228.600 144.400 C 229.012 144.400,229.208 144.662,229.124 145.100 M234.400 146.200 C 234.400 146.530,234.670 146.800,235.000 146.800 C 235.330 146.800,235.600 146.530,235.600 146.200 C 235.600 145.870,235.330 145.600,235.000 145.600 C 234.670 145.600,234.400 145.870,234.400 146.200 M163.600 148.200 C 163.600 148.567,163.793 148.802,164.030 148.723 C 164.267 148.644,164.460 148.409,164.460 148.200 C 164.460 147.991,164.267 147.756,164.030 147.677 C 163.793 147.598,163.600 147.833,163.600 148.200 M235.200 148.200 C 235.200 148.530,235.470 148.800,235.800 148.800 C 236.130 148.800,236.400 148.530,236.400 148.200 C 236.400 147.870,236.130 147.600,235.800 147.600 C 235.470 147.600,235.200 147.870,235.200 148.200 M162.400 150.387 C 162.400 150.923,162.592 151.101,163.000 150.945 C 163.330 150.818,163.600 150.464,163.600 150.157 C 163.600 149.851,163.330 149.600,163.000 149.600 C 162.670 149.600,162.400 149.954,162.400 150.387 M236.255 150.200 C 236.103 150.597,236.270 150.800,236.746 150.800 C 237.142 150.800,237.467 150.530,237.467 150.200 C 237.467 149.870,237.246 149.600,236.976 149.600 C 236.706 149.600,236.382 149.870,236.255 150.200 M161.600 152.200 C 161.600 152.530,161.780 152.800,162.000 152.800 C 162.220 152.800,162.400 152.530,162.400 152.200 C 162.400 151.870,162.220 151.600,162.000 151.600 C 161.780 151.600,161.600 151.870,161.600 152.200 M159.867 155.867 C 159.473 156.261,159.543 157.600,159.957 157.600 C 160.314 157.600,160.800 156.659,160.800 155.967 C 160.800 155.540,160.253 155.481,159.867 155.867 M239.070 156.161 C 238.819 156.815,239.114 157.200,239.867 157.200 C 240.160 157.200,240.400 156.840,240.400 156.400 C 240.400 155.490,239.397 155.310,239.070 156.161 M241.041 160.236 C 240.742 161.017,241.064 161.600,241.796 161.600 C 242.098 161.600,242.402 161.955,242.472 162.390 C 242.560 162.933,242.765 163.076,243.130 162.848 C 243.559 162.579,243.540 162.398,243.030 161.887 C 242.683 161.540,242.400 160.884,242.400 160.429 C 242.400 159.455,241.396 159.313,241.041 160.236 M245.200 170.157 C 245.200 170.464,245.470 170.818,245.800 170.945 C 246.208 171.101,246.400 170.923,246.400 170.387 C 246.400 169.954,246.130 169.600,245.800 169.600 C 245.470 169.600,245.200 169.851,245.200 170.157 M246.400 172.357 C 246.400 172.774,246.667 173.217,246.994 173.342 C 247.432 173.510,247.567 173.310,247.507 172.585 C 247.412 171.440,246.400 171.231,246.400 172.357 M247.098 176.100 C 246.824 176.915,247.251 178.000,247.847 178.000 C 248.195 178.000,248.400 177.555,248.400 176.800 C 248.400 175.589,247.443 175.075,247.098 176.100 M151.600 177.176 C 151.600 177.603,151.765 178.055,151.966 178.179 C 152.404 178.450,152.757 177.603,152.498 176.900 C 152.213 176.123,151.600 176.311,151.600 177.176 M248.400 180.151 C 248.400 180.454,248.670 180.926,249.000 181.200 C 249.507 181.621,249.600 181.536,249.600 180.649 C 249.600 179.983,249.381 179.600,249.000 179.600 C 248.670 179.600,248.400 179.848,248.400 180.151 M249.122 192.498 C 248.884 193.742,249.139 194.400,249.859 194.400 C 250.283 194.400,250.415 194.041,250.325 193.131 C 250.175 191.610,249.372 191.188,249.122 192.498 M156.000 193.033 C 156.000 193.740,155.139 193.617,154.892 192.875 C 154.805 192.614,155.018 192.400,155.367 192.400 C 155.715 192.400,156.000 192.685,156.000 193.033 M150.706 195.380 C 150.594 195.964,150.697 196.328,150.959 196.280 C 151.607 196.162,151.955 195.548,151.720 194.936 C 151.397 194.094,150.911 194.307,150.706 195.380 M248.152 196.981 C 247.867 197.723,248.283 198.400,249.024 198.400 C 249.372 198.400,249.600 198.004,249.600 197.400 C 249.600 196.301,248.532 195.992,248.152 196.981 M247.467 201.067 C 246.979 201.554,247.191 202.400,247.800 202.400 C 248.133 202.400,248.400 202.044,248.400 201.600 C 248.400 200.803,247.974 200.560,247.467 201.067 M153.600 206.780 C 153.600 207.443,153.879 208.116,154.236 208.316 C 154.586 208.512,154.856 208.791,154.836 208.936 C 154.816 209.081,154.890 209.200,155.000 209.200 C 155.110 209.200,155.170 209.155,155.132 209.100 C 155.095 209.045,155.267 208.623,155.513 208.162 C 155.863 207.509,155.829 207.133,155.358 206.462 C 154.477 205.203,153.600 205.362,153.600 206.780 M245.534 205.869 C 244.152 206.235,244.245 208.400,245.643 208.400 C 246.242 208.400,246.400 208.107,246.400 207.000 C 246.400 206.230,246.355 205.621,246.300 205.646 C 246.245 205.672,245.900 205.772,245.534 205.869 M243.823 209.689 C 243.480 210.178,243.200 211.078,243.200 211.689 C 243.200 212.300,243.020 212.800,242.800 212.800 C 242.580 212.800,242.400 213.160,242.400 213.600 C 242.400 214.068,242.667 214.400,243.043 214.400 C 243.444 214.400,243.601 214.179,243.460 213.812 C 243.336 213.488,243.496 212.961,243.817 212.640 C 244.138 212.319,244.400 211.704,244.400 211.271 C 244.400 210.839,244.670 210.382,245.000 210.255 C 245.767 209.961,245.785 208.800,245.023 208.800 C 244.705 208.800,244.165 209.200,243.823 209.689 M156.580 212.032 C 156.429 212.277,156.597 212.768,156.953 213.124 C 157.549 213.721,157.600 213.704,157.600 212.909 C 157.600 211.912,156.983 211.381,156.580 212.032 M159.600 217.400 C 159.600 218.133,159.813 218.400,160.400 218.400 C 161.291 218.400,161.456 217.616,160.720 216.880 C 159.974 216.134,159.600 216.308,159.600 217.400 M161.600 219.800 C 161.600 220.130,161.870 220.400,162.200 220.400 C 162.530 220.400,162.800 220.130,162.800 219.800 C 162.800 219.470,162.530 219.200,162.200 219.200 C 161.870 219.200,161.600 219.470,161.600 219.800 M163.600 221.551 C 163.600 221.744,163.851 222.111,164.159 222.366 C 164.466 222.621,164.625 223.183,164.512 223.615 C 164.355 224.216,164.509 224.400,165.172 224.400 C 165.649 224.400,166.455 224.850,166.965 225.400 C 167.475 225.950,168.096 226.400,168.346 226.400 C 168.596 226.400,168.755 226.625,168.700 226.900 C 168.645 227.175,168.825 227.355,169.100 227.300 C 169.375 227.245,169.600 227.470,169.600 227.800 C 169.600 228.203,170.003 228.400,170.824 228.400 C 171.544 228.400,171.945 228.566,171.798 228.803 C 171.417 229.420,172.620 230.400,173.759 230.400 C 175.020 230.400,174.770 229.309,173.466 229.123 C 172.990 229.056,172.422 228.595,172.205 228.100 C 171.965 227.552,171.460 227.200,170.914 227.200 C 170.400 227.200,169.739 226.774,169.363 226.200 C 169.003 225.650,168.478 225.200,168.197 225.200 C 167.917 225.200,167.574 224.750,167.436 224.200 C 167.298 223.650,166.937 223.200,166.634 223.200 C 166.332 223.200,165.660 222.753,165.142 222.207 C 164.170 221.182,163.600 220.939,163.600 221.551 M236.000 221.800 C 236.000 222.133,236.356 222.400,236.800 222.400 C 237.244 222.400,237.600 222.133,237.600 221.800 C 237.600 221.467,237.244 221.200,236.800 221.200 C 236.356 221.200,236.000 221.467,236.000 221.800 M234.200 223.106 C 233.393 223.699,233.609 224.400,234.600 224.400 C 235.333 224.400,235.600 224.187,235.600 223.600 C 235.600 222.794,234.941 222.562,234.200 223.106 M231.900 225.476 C 231.515 225.576,231.200 225.994,231.200 226.403 C 231.200 226.911,230.861 227.187,230.131 227.273 C 229.543 227.343,228.988 227.625,228.898 227.900 C 228.614 228.763,230.067 228.444,230.998 227.440 C 231.487 226.912,232.213 226.417,232.611 226.340 C 233.008 226.263,233.409 225.975,233.500 225.700 C 233.667 225.199,233.207 225.134,231.900 225.476 M225.855 229.800 C 225.689 230.233,225.899 230.400,226.613 230.400 C 227.224 230.400,227.600 230.171,227.600 229.800 C 227.600 229.470,227.259 229.200,226.843 229.200 C 226.426 229.200,225.982 229.470,225.855 229.800 M175.600 231.800 C 175.600 232.200,176.000 232.400,176.800 232.400 C 177.600 232.400,178.000 232.200,178.000 231.800 C 178.000 231.400,177.600 231.200,176.800 231.200 C 176.000 231.200,175.600 231.400,175.600 231.800 M222.000 231.800 C 222.000 232.200,222.400 232.400,223.200 232.400 C 224.000 232.400,224.400 232.200,224.400 231.800 C 224.400 231.400,224.000 231.200,223.200 231.200 C 222.400 231.200,222.000 231.400,222.000 231.800 M180.464 233.877 C 181.088 234.630,183.200 234.557,183.200 233.784 C 183.200 233.317,182.816 233.190,181.615 233.261 C 180.362 233.335,180.121 233.464,180.464 233.877 M217.459 233.791 C 217.274 234.273,217.555 234.400,218.813 234.400 C 220.814 234.400,221.020 233.405,219.046 233.272 C 218.140 233.211,217.616 233.382,217.459 233.791 M185.691 235.678 C 185.796 235.997,186.683 236.248,187.972 236.322 C 189.568 236.415,190.040 236.318,189.909 235.922 C 189.804 235.603,188.917 235.352,187.628 235.278 C 186.032 235.185,185.560 235.282,185.691 235.678 M210.800 235.800 C 210.800 236.244,211.267 236.400,212.600 236.400 C 213.933 236.400,214.400 236.244,214.400 235.800 C 214.400 235.356,213.933 235.200,212.600 235.200 C 211.267 235.200,210.800 235.356,210.800 235.800 M191.601 236.900 C 191.601 237.198,192.247 237.444,193.201 237.510 C 194.415 237.593,194.800 237.473,194.800 237.010 C 194.800 236.565,194.367 236.400,193.200 236.400 C 192.186 236.400,191.600 236.583,191.601 236.900 M205.845 236.972 C 206.127 237.708,208.400 237.679,208.400 236.939 C 208.400 236.591,207.910 236.400,207.013 236.400 C 205.973 236.400,205.680 236.544,205.845 236.972 M201.997 299.602 C 201.689 299.792,201.267 299.841,201.057 299.712 C 200.848 299.582,200.806 299.687,200.965 299.944 C 201.180 300.291,205.907 300.398,219.302 300.356 C 235.148 300.307,237.217 300.231,236.266 299.733 C 235.542 299.354,234.622 299.251,233.492 299.422 C 232.561 299.563,231.440 299.657,231.000 299.632 C 226.397 299.365,202.420 299.340,201.997 299.602 M128.700 299.899 C 132.055 299.966,137.545 299.966,140.900 299.899 C 144.255 299.832,141.510 299.778,134.800 299.778 C 128.090 299.778,125.345 299.832,128.700 299.899 M276.700 299.893 C 277.635 299.977,279.165 299.977,280.100 299.893 C 281.035 299.809,280.270 299.740,278.400 299.740 C 276.530 299.740,275.765 299.809,276.700 299.893 M305.100 299.882 C 305.595 299.978,306.405 299.978,306.900 299.882 C 307.395 299.787,306.990 299.709,306.000 299.709 C 305.010 299.709,304.605 299.787,305.100 299.882 M90.900 300.287 C 91.505 300.378,92.495 300.378,93.100 300.287 C 93.705 300.195,93.210 300.120,92.000 300.120 C 90.790 300.120,90.295 300.195,90.900 300.287 M98.482 300.296 C 99.958 300.373,102.478 300.373,104.082 300.297 C 105.687 300.221,104.480 300.158,101.400 300.158 C 98.320 300.157,97.007 300.219,98.482 300.296 M150.921 300.298 C 153.077 300.371,156.497 300.370,158.521 300.298 C 160.544 300.225,158.780 300.166,154.600 300.167 C 150.420 300.167,148.764 300.226,150.921 300.298 " stroke="none" fill="#04c8e4" fill-rule="evenodd"></path></g></svg>