<svg width="800" height="800" viewBox="0 0 251 307" fill="none" xmlns="http://www.w3.org/2000/svg">
<g filter="url(#filter0_i_0_1)">
<path d="M240.328 5.96981L237.5 0L0 1V306.5H250.5L234 297L221.135 288.128C220.047 287.377 219.012 286.55 218.04 285.652L215.029 282.873C213.68 281.627 212.456 280.252 211.376 278.767L205 270L201.683 264.896C199.583 261.667 198.173 258.039 197.54 254.24L195.881 244.286C195.627 242.765 195.5 241.225 195.5 239.683V231.417C195.5 228.49 195.959 225.582 196.86 222.798L201 210L203.85 202.163C204.614 200.062 205.627 198.06 206.867 196.2L210.92 190.12C212.301 188.049 213.399 185.804 214.186 183.443L215.188 180.437C216.057 177.829 216.5 175.099 216.5 172.35C216.5 168.821 215.77 165.331 214.356 162.099L213 159L209.572 152.906C208.858 151.637 208.047 150.426 207.145 149.283L202.616 143.547C201.541 142.185 200.595 140.726 199.79 139.189L197.483 134.785C196.169 132.276 194.481 129.981 192.478 127.978L191.713 127.213C189.585 125.085 187.814 122.628 186.468 119.936L184 115L181.726 109.884C180.588 107.323 180 104.552 180 101.75C180 98.9479 180.588 96.1769 181.726 93.6163L182.023 92.9473C183.327 90.0136 185.219 87.3785 187.582 85.2049L194.235 79.0838C195.74 77.6988 197.393 76.4829 199.164 75.4579L206 71.5L220.378 61.0435C221.789 60.0167 223.102 58.8602 224.299 57.5891L230.5 51L235.38 44.9936C236.458 43.6673 237.412 42.2452 238.23 40.7449L240.251 37.0391C242.065 33.7143 243.185 30.0561 243.544 26.2859L243.653 25.1456C243.883 22.7255 243.798 20.2857 243.398 17.8878L242.642 13.3531C242.216 10.7967 241.437 8.31193 240.328 5.96981Z" fill="white"/>
</g>
<defs>
<filter id="filter0_i_0_1" x="0" y="0" width="250.5" height="310.5" filterUnits="userSpaceOnUse" color-interpolation-filters="sRGB">
<feFlood flood-opacity="0" result="BackgroundImageFix"/>
<feBlend mode="normal" in="SourceGraphic" in2="BackgroundImageFix" result="shape"/>
<feColorMatrix in="SourceAlpha" type="matrix" values="0 0 0 0 0 0 0 0 0 0 0 0 0 0 0 0 0 0 127 0" result="hardAlpha"/>
<feOffset dy="4"/>
<feGaussianBlur stdDeviation="2"/>
<feComposite in2="hardAlpha" operator="arithmetic" k2="-1" k3="1"/>
<feColorMatrix type="matrix" values="0 0 0 0 0 0 0 0 0 0 0 0 0 0 0 0 0 0 0.25 0"/>
<feBlend mode="normal" in2="shape" result="effect1_innerShadow_0_1"/>
</filter>
</defs>
</svg>
