<svg width="847" height="828" viewBox="0 0 847 828" fill="none" xmlns="http://www.w3.org/2000/svg">
<g clip-path="url(#clip0_0_1)">
<path d="M498.977 526.601L462.577 490.201C466.177 481.001 464.177 470.201 456.577 462.601C448.577 454.601 436.577 453.001 426.977 457.401L444.177 474.601L432.177 486.601L414.577 469.401C409.777 479.001 411.777 491.001 419.777 499.001C427.377 506.601 438.177 508.601 447.377 505.001L483.777 541.401C485.377 543.001 487.777 543.001 489.377 541.401L498.577 532.201C500.577 530.601 500.577 527.801 498.977 526.601Z" fill="#9C9C9C"/>
<g filter="url(#filter0_i_0_1)">
<path d="M457.184 246.317C457.519 243.503 457.743 240.575 457.743 237.535C457.743 234.495 457.519 231.568 457.072 228.753L475.974 213.892C477.652 212.541 478.099 210.064 477.092 208.15L459.197 176.962C458.079 174.936 455.73 174.26 453.717 174.936L431.459 183.943C426.762 180.34 421.841 177.413 416.36 175.161L413.005 151.292C412.669 149.04 410.768 147.464 408.531 147.464H372.74C370.503 147.464 368.714 149.04 368.378 151.292L365.023 175.161C359.542 177.413 354.509 180.453 349.924 183.943L327.666 174.936C325.653 174.148 323.304 174.936 322.186 176.962L304.29 208.15C303.172 210.176 303.619 212.541 305.409 213.892L324.311 228.753C323.863 231.568 323.528 234.608 323.528 237.535C323.528 240.463 323.752 243.503 324.199 246.317L305.297 261.179C303.619 262.53 303.172 265.007 304.179 266.921L322.074 298.108C323.192 300.135 325.541 300.811 327.554 300.135L349.812 291.128C354.509 294.731 359.43 297.658 364.911 299.91L368.266 323.779C368.714 326.031 370.503 327.607 372.74 327.607H408.531C410.768 327.607 412.669 326.031 412.893 323.779L416.248 299.91C421.729 297.658 426.762 294.618 431.347 291.128L453.605 300.135C455.618 300.923 457.967 300.135 459.085 298.108L476.981 266.921C478.099 264.895 477.652 262.53 475.862 261.179L457.184 246.317ZM390.635 271.312C372.181 271.312 357.082 256.113 357.082 237.535C357.082 218.958 372.181 203.759 390.635 203.759C409.09 203.759 424.189 218.958 424.189 237.535C424.189 256.113 409.09 271.312 390.635 271.312Z" fill="#9C9C9C"/>
</g>
<g filter="url(#filter1_i_0_1)">
<path d="M545.856 804.621L529.674 810.069L501.099 749.83L524.982 741.789L545.856 804.621Z" fill="#FFB6B6"/>
<path d="M555.229 819.022L503.051 833.068L502.831 832.405C501.017 826.943 501.424 824.616 503.976 819.464C505.225 816.926 506.961 814.662 509.085 812.805C511.208 810.948 513.677 809.533 516.347 808.641H516.348L523.461 798.153L543.662 799.445L548.216 797.912L555.229 819.022Z" fill="#2F2E41"/>
<path d="M585.836 819.937H568.774L560.656 753.685L585.839 753.686L585.836 819.937Z" fill="#FFB6B6"/>
<path d="M590.187 833.068L535.17 833.066V832.366C535.17 826.608 537.397 824.712 541.442 820.641C543.426 818.634 545.786 817.042 548.385 815.958C550.984 814.875 553.771 814.32 556.584 814.328H556.585L566.634 806.653L585.386 814.329H590.189L590.187 833.068Z" fill="#2F2E41"/>
<path d="M455.976 289.115C456.328 290.914 457.066 292.614 458.142 294.096C459.216 295.576 460.6 296.801 462.196 297.686C463.792 298.57 465.562 299.092 467.379 299.213C469.197 299.333 471.019 299.053 472.718 298.388L492.417 319.09L507.834 310.109L479.608 281.266C478.31 278.469 476.038 276.247 473.222 275.023C470.406 273.799 467.242 273.657 464.329 274.625C461.415 275.592 458.957 277.601 457.417 280.272C455.878 282.942 455.365 286.089 455.976 289.115Z" fill="#FFB6B6"/>
<path d="M583.459 393.208L592.339 383.959L540.986 336.082L489.3 289.625L474.985 309.987L529.147 360.88L583.459 393.208Z" fill="#00B0FF"/>
<path d="M551.906 707.405C551.906 695.781 552.134 687.491 552.318 680.829C552.855 661.334 553 656.092 545.588 622.518L543.684 613.896L532.46 647.795C528.874 658.608 527.042 669.933 527.034 681.332L544.341 785.867H508.967L483.059 672.855L483.047 638.286C480.765 635.908 479.489 632.731 479.489 629.424C479.489 626.118 480.765 622.939 483.047 620.562L491.655 568.772L500.367 498.975H595.794C595.794 498.975 612.635 534.115 595.899 568.97L595.896 707.448L587.249 803.195H560.554L551.906 707.405Z" fill="#2F2E41"/>
<path d="M589.959 507.424L500.7 499.936L500.236 499.897L507.36 370.826C507.779 362.711 510.608 354.909 515.48 348.429C520.352 341.951 527.046 337.093 534.691 334.486V325.453C534.693 323.218 535.577 321.074 537.147 319.493C538.717 317.913 540.847 317.023 543.068 317.02H556.109C557.666 317.016 559.193 317.45 560.518 318.273C561.841 319.098 562.911 320.279 563.602 321.682L569.979 334.521L594.094 353.942C606.004 363.534 596.418 459.702 595.903 464.775L601.735 494.132C602.056 495.746 602.017 497.413 601.623 499.01C601.226 500.609 600.484 502.098 599.449 503.373C598.413 504.648 597.11 505.677 595.633 506.384C594.156 507.091 592.541 507.459 590.905 507.464C590.592 507.463 590.276 507.45 589.959 507.424Z" fill="#00B0FF"/>
<path d="M495.435 541.503C496.846 540.344 497.987 538.886 498.778 537.234C499.569 535.582 499.991 533.776 500.014 531.942C500.036 530.107 499.659 528.291 498.908 526.621C498.158 524.949 497.052 523.463 495.671 522.269L504.526 495.024L489.391 485.568L477.422 524.22C475.583 526.691 474.706 529.755 474.96 532.832C475.216 535.909 476.582 538.785 478.803 540.916C481.023 543.046 483.942 544.282 487.007 544.391C490.074 544.499 493.071 543.471 495.435 541.503Z" fill="#FFB6B6"/>
<path d="M526.562 356.284L514.274 352.16L496.526 431.873L480.179 511.148L504.765 514.789L523.831 430.499L526.562 356.284Z" fill="#00B0FF"/>
<path d="M539.981 308.771C556.172 308.771 569.297 295.558 569.297 279.261C569.297 262.962 556.172 249.75 539.981 249.75C523.791 249.75 510.666 262.962 510.666 279.261C510.666 295.558 523.791 308.771 539.981 308.771Z" fill="#FFB6B6"/>
<path d="M500.537 264.808C500.807 262.012 501.604 259.293 502.884 256.795C504.254 259.795 508.528 260.315 511.455 258.822C514.38 257.329 516.341 254.494 518.431 251.95C523.949 245.237 531.536 239.79 540.135 238.799C548.735 237.807 558.212 242.177 561.462 250.252C562.92 248.214 566.031 247.988 568.231 249.171C570.357 250.521 572.016 252.499 572.979 254.835C575.144 259.304 576.367 264.176 576.573 269.144C576.778 274.113 575.96 279.07 574.172 283.706C570.551 292.929 561.61 305.357 552.383 308.838C546.783 310.951 541.126 308.246 535.17 308.838C535.481 302.294 536.741 294.219 537.054 287.676C537.225 284.092 537.249 280.082 534.818 277.458C534.072 276.745 533.18 276.207 532.203 275.88C531.227 275.552 530.193 275.445 529.171 275.564C528.149 275.685 527.166 276.03 526.292 276.574C525.417 277.118 524.671 277.85 524.109 278.717C523.808 276.682 523.125 274.723 522.098 272.945C521.571 272.063 520.809 271.348 519.899 270.879C518.989 270.41 517.968 270.206 516.948 270.29C514.461 270.701 512.925 273.27 510.643 274.347C509.346 274.87 507.922 274.981 506.56 274.667C505.2 274.353 503.966 273.628 503.026 272.589C502.112 271.527 501.421 270.291 500.994 268.954C500.566 267.617 500.41 266.208 500.537 264.808Z" fill="#2F2E41"/>
<path opacity="0.1" d="M543.776 430.141L509.347 499.456H535.17L543.776 430.141Z" fill="black"/>
</g>
<path d="M232.12 189.488C232.408 187.088 232.6 184.592 232.6 182C232.6 179.408 232.408 176.912 232.024 174.512L248.248 161.84C249.688 160.688 250.072 158.576 249.208 156.944L233.848 130.352C232.888 128.624 230.872 128.048 229.144 128.624L210.04 136.304C206.008 133.232 201.784 130.736 197.08 128.816L194.2 108.464C193.912 106.544 192.28 105.2 190.36 105.2H159.64C157.72 105.2 156.184 106.544 155.896 108.464L153.016 128.816C148.312 130.736 143.992 133.328 140.056 136.304L120.952 128.624C119.224 127.952 117.208 128.624 116.248 130.352L100.888 156.944C99.928 158.672 100.312 160.688 101.848 161.84L118.072 174.512C117.688 176.912 117.4 179.504 117.4 182C117.4 184.496 117.592 187.088 117.976 189.488L101.752 202.16C100.312 203.312 99.928 205.424 100.792 207.056L116.152 233.648C117.112 235.376 119.128 235.952 120.856 235.376L139.96 227.696C143.992 230.768 148.216 233.264 152.92 235.184L155.8 255.536C156.184 257.456 157.72 258.8 159.64 258.8H190.36C192.28 258.8 193.912 257.456 194.104 255.536L196.984 235.184C201.688 233.264 206.008 230.672 209.944 227.696L229.048 235.376C230.776 236.048 232.792 235.376 233.752 233.648L249.112 207.056C250.072 205.328 249.688 203.312 248.152 202.16L232.12 189.488V189.488ZM175 210.8C159.16 210.8 146.2 197.84 146.2 182C146.2 166.16 159.16 153.2 175 153.2C190.84 153.2 203.8 166.16 203.8 182C203.8 197.84 190.84 210.8 175 210.8Z" fill="#9C9C9C"/>
<path d="M333.12 80.488C333.408 78.088 333.6 75.592 333.6 73C333.6 70.408 333.408 67.912 333.024 65.512L349.248 52.84C350.688 51.688 351.072 49.576 350.208 47.944L334.848 21.352C333.888 19.624 331.872 19.048 330.144 19.624L311.04 27.304C307.008 24.232 302.784 21.736 298.08 19.816L295.2 -0.535988C294.912 -2.45599 293.28 -3.79999 291.36 -3.79999H260.64C258.72 -3.79999 257.184 -2.45599 256.896 -0.535988L254.016 19.816C249.312 21.736 244.992 24.328 241.056 27.304L221.952 19.624C220.224 18.952 218.208 19.624 217.248 21.352L201.888 47.944C200.928 49.672 201.312 51.688 202.848 52.84L219.072 65.512C218.688 67.912 218.4 70.504 218.4 73C218.4 75.496 218.592 78.088 218.976 80.488L202.752 93.16C201.312 94.312 200.928 96.424 201.792 98.056L217.152 124.648C218.112 126.376 220.128 126.952 221.856 126.376L240.96 118.696C244.992 121.768 249.216 124.264 253.92 126.184L256.8 146.536C257.184 148.456 258.72 149.8 260.64 149.8H291.36C293.28 149.8 294.912 148.456 295.104 146.536L297.984 126.184C302.688 124.264 307.008 121.672 310.944 118.696L330.048 126.376C331.776 127.048 333.792 126.376 334.752 124.648L350.112 98.056C351.072 96.328 350.688 94.312 349.152 93.16L333.12 80.488V80.488ZM276 101.8C260.16 101.8 247.2 88.84 247.2 73C247.2 57.16 260.16 44.2 276 44.2C291.84 44.2 304.8 57.16 304.8 73C304.8 88.84 291.84 101.8 276 101.8Z" fill="#9C9C9C"/>
</g>
<defs>
<filter id="filter0_i_0_1" x="278.79" y="124.946" width="223.692" height="229.178" filterUnits="userSpaceOnUse" color-interpolation-filters="sRGB">
<feFlood flood-opacity="0" result="BackgroundImageFix"/>
<feBlend mode="normal" in="SourceGraphic" in2="BackgroundImageFix" result="shape"/>
<feColorMatrix in="SourceAlpha" type="matrix" values="0 0 0 0 0 0 0 0 0 0 0 0 0 0 0 0 0 0 127 0" result="hardAlpha"/>
<feOffset dy="4"/>
<feGaussianBlur stdDeviation="2"/>
<feComposite in2="hardAlpha" operator="arithmetic" k2="-1" k3="1"/>
<feColorMatrix type="matrix" values="0 0 0 0 0 0 0 0 0 0 0 0 0 0 0 0 0 0 0.25 0"/>
<feBlend mode="normal" in2="shape" result="effect1_innerShadow_0_1"/>
</filter>
<filter id="filter1_i_0_1" x="455.725" y="238.66" width="147.585" height="598.408" filterUnits="userSpaceOnUse" color-interpolation-filters="sRGB">
<feFlood flood-opacity="0" result="BackgroundImageFix"/>
<feBlend mode="normal" in="SourceGraphic" in2="BackgroundImageFix" result="shape"/>
<feColorMatrix in="SourceAlpha" type="matrix" values="0 0 0 0 0 0 0 0 0 0 0 0 0 0 0 0 0 0 127 0" result="hardAlpha"/>
<feOffset dy="4"/>
<feGaussianBlur stdDeviation="2"/>
<feComposite in2="hardAlpha" operator="arithmetic" k2="-1" k3="1"/>
<feColorMatrix type="matrix" values="0 0 0 0 0 0 0 0 0 0 0 0 0 0 0 0 0 0 0.25 0"/>
<feBlend mode="normal" in2="shape" result="effect1_innerShadow_0_1"/>
</filter>
<clipPath id="clip0_0_1">
<rect width="847" height="828" fill="white"/>
</clipPath>
</defs>
</svg>
