<svg width="800" height="761" viewBox="0 0 843 361" fill="none" xmlns="http://www.w3.org/2000/svg">
<path d="M691.594 189.869L695.874 187.514C728.371 169.63 755.635 143.57 774.966 111.913L843 0.5V361L0 353L149.498 292.767C164.187 286.849 180.565 286.679 195.373 292.292L216.971 300.479C247.391 312.011 281.471 308.493 308.894 290.99L328.613 278.405L341.621 269.581C384.199 240.7 438.34 234.849 486.105 253.967V253.967C530.765 271.841 581.809 260.724 614.99 225.894L620.295 220.325C630.688 209.416 643.974 201.694 658.597 198.063L691.594 189.869Z" fill="#00B0FF"/>
</svg>
