<?xml version="1.0" standalone="no"?>
<!DOCTYPE svg PUBLIC "-//W3C//DTD SVG 20010904//EN"
 "http://www.w3.org/TR/2001/REC-SVG-20010904/DTD/svg10.dtd">
<svg version="1.0" xmlns="http://www.w3.org/2000/svg"
 width="770.000000pt" height="305.000000pt" viewBox="0 0 770.000000 305.000000"
 preserveAspectRatio="xMidYMid meet">

<g transform="translate(0.000000,305.000000) scale(0.100000,-0.100000)"
fill="ffffff" stroke="none">
<path d="M3474 2479 c-169 -337 -484 -620 -876 -788 -287 -123 -589 -192 -998
-227 -60 -5 -89 -12 -97 -23 -7 -9 -31 -43 -55 -75 l-42 -59 165 6 c383 16
742 103 1054 256 201 99 331 190 489 340 87 83 55 35 -54 -82 -139 -148 -318
-281 -509 -376 -314 -158 -626 -239 -1066 -277 -104 -9 -190 -17 -191 -17 0
-1 -21 -29 -45 -62 -25 -33 -49 -66 -54 -74 -7 -12 16 -13 156 -8 658 25 1209
228 1577 581 147 141 247 275 343 461 31 61 80 148 108 195 53 88 146 289 137
297 -3 3 -21 -28 -42 -68z"/>
<path d="M3610 1824 c-76 -10 -200 -56 -258 -95 -141 -93 -211 -224 -212 -395
0 -107 22 -167 84 -229 84 -84 229 -124 407 -111 269 20 430 138 494 360 21
72 16 210 -9 269 -37 85 -125 155 -231 183 -54 15 -218 25 -275 18z m171 -170
c39 -20 77 -70 85 -110 12 -63 -1 -185 -25 -239 -30 -69 -94 -131 -154 -151
-71 -24 -155 -16 -201 20 -58 44 -71 78 -71 181 0 75 5 99 26 145 30 65 80
125 121 146 66 34 162 38 219 8z"/>
<path d="M4215 1788 c-2 -7 -13 -74 -25 -148 -28 -186 -89 -569 -96 -602 l-6
-28 116 0 c100 0 115 2 120 18 4 14 94 582 97 609 1 21 24 -59 89 -314 39
-153 73 -286 76 -296 5 -16 18 -17 122 -15 l116 3 120 206 c67 113 148 252
180 307 32 56 63 102 68 102 5 0 7 -4 4 -9 -3 -5 -24 -123 -47 -262 -22 -140
-44 -275 -48 -301 l-8 -48 123 0 c68 0 124 2 124 5 0 6 83 545 105 680 8 50
15 94 15 98 0 5 -85 7 -189 5 -174 -3 -192 -5 -218 -24 -17 -13 -73 -102 -145
-230 -64 -115 -123 -218 -130 -228 -15 -20 -16 -16 -99 309 -47 183 -34 175
-271 175 -142 0 -190 -3 -193 -12z"/>
<path d="M5916 1785 c-22 -8 -54 -29 -71 -47 -24 -25 -443 -639 -489 -715 -6
-10 20 -13 116 -13 l124 0 29 50 30 50 232 0 232 0 10 -37 c6 -21 11 -44 11
-50 0 -10 36 -13 145 -13 80 0 145 3 145 7 0 4 -52 167 -116 363 -63 195 -120
370 -125 388 l-11 32 -111 0 c-70 -1 -127 -6 -151 -15z m114 -322 c24 -93 45
-174 48 -180 3 -10 -32 -13 -158 -13 -94 0 -160 4 -158 9 7 20 213 350 219
351 3 0 25 -75 49 -167z"/>
</g>
</svg>
