<svg width="966" height="643" viewBox="0 0 966 643" fill="none" xmlns="http://www.w3.org/2000/svg">
<path d="M445.394 68.5648H207.136C205.967 68.5634 204.845 68.0981 204.018 67.271C203.191 66.4438 202.726 65.3224 202.724 64.1526V5.05119C202.726 3.88144 203.191 2.75999 204.018 1.93285C204.845 1.1057 205.967 0.640412 207.136 0.639038H445.394C446.563 0.640412 447.685 1.1057 448.512 1.93285C449.339 2.75999 449.804 3.88144 449.806 5.05119V64.1526C449.804 65.3224 449.339 66.4438 448.512 67.271C447.685 68.0981 446.563 68.5634 445.394 68.5648V68.5648ZM207.136 2.40387C206.435 2.40464 205.762 2.6838 205.265 3.1801C204.769 3.6764 204.49 4.34931 204.489 5.05118V64.1526C204.49 64.8545 204.769 65.5274 205.265 66.0237C205.762 66.5199 206.435 66.7991 207.136 66.7999H445.394C446.095 66.7991 446.768 66.5199 447.265 66.0237C447.761 65.5274 448.04 64.8545 448.041 64.1526V5.05119C448.04 4.34932 447.761 3.67641 447.265 3.18011C446.768 2.68382 446.095 2.40467 445.394 2.4039L207.136 2.40387Z" fill="white"/>
<path d="M244.157 50.3069C254.083 50.3069 262.13 42.2602 262.13 32.3341C262.13 22.408 254.083 14.3613 244.157 14.3613C234.231 14.3613 226.184 22.408 226.184 32.3341C226.184 42.2602 234.231 50.3069 244.157 50.3069Z" fill="#00B0FF"/>
<path d="M285.665 20.3523C284.871 20.3523 284.109 20.6679 283.547 21.2296C282.986 21.7914 282.67 22.5533 282.67 23.3478C282.67 24.1422 282.986 24.9041 283.547 25.4659C284.109 26.0276 284.871 26.3432 285.665 26.3432H426.88C427.675 26.3432 428.437 26.0276 428.998 25.4659C429.56 24.9041 429.876 24.1422 429.876 23.3478C429.876 22.5533 429.56 21.7914 428.998 21.2296C428.437 20.6679 427.675 20.3523 426.88 20.3523H285.665Z" fill="#E6E6E6"/>
<path d="M285.665 38.3251C284.871 38.3251 284.109 38.6407 283.547 39.2024C282.986 39.7642 282.67 40.5261 282.67 41.3205C282.67 42.115 282.986 42.8769 283.547 43.4386C284.109 44.0004 284.871 44.316 285.665 44.316H346.431C346.824 44.3167 347.215 44.2398 347.579 44.0896C347.943 43.9393 348.274 43.7188 348.552 43.4406C348.831 43.1624 349.052 42.8319 349.203 42.4681C349.354 42.1043 349.432 41.7144 349.432 41.3205C349.432 40.9267 349.354 40.5367 349.203 40.173C349.052 39.8092 348.831 39.4787 348.552 39.2005C348.274 38.9223 347.943 38.7017 347.579 38.5515C347.215 38.4013 346.824 38.3244 346.431 38.3251H285.665Z" fill="#E6E6E6"/>
<path d="M341.957 279.234H236.064C234.895 279.233 233.773 278.768 232.946 277.94C232.119 277.113 231.654 275.992 231.652 274.822V164.54C231.654 163.37 232.119 162.248 232.946 161.421C233.773 160.594 234.895 160.129 236.064 160.127H341.957C343.126 160.129 344.248 160.594 345.075 161.421C345.902 162.248 346.367 163.37 346.369 164.54V274.822C346.367 275.992 345.902 277.113 345.075 277.94C344.248 278.768 343.126 279.233 341.957 279.234ZM236.064 161.892C235.363 161.893 234.69 162.172 234.193 162.668C233.697 163.165 233.418 163.838 233.417 164.54V274.822C233.418 275.524 233.697 276.197 234.193 276.693C234.69 277.189 235.363 277.469 236.064 277.469H341.957C342.659 277.469 343.331 277.189 343.828 276.693C344.324 276.197 344.603 275.524 344.604 274.822V164.54C344.603 163.838 344.324 163.165 343.828 162.668C343.331 162.172 342.659 161.893 341.957 161.892H236.064Z" fill="white"/>
<path d="M258.628 182.87C257.833 182.87 257.072 183.185 256.51 183.747C255.948 184.309 255.632 185.071 255.632 185.865C255.632 186.66 255.948 187.421 256.51 187.983C257.072 188.545 257.833 188.861 258.628 188.861H319.393C320.188 188.861 320.95 188.545 321.511 187.983C322.073 187.421 322.389 186.66 322.389 185.865C322.389 185.071 322.073 184.309 321.511 183.747C320.95 183.185 320.188 182.87 319.393 182.87H258.628Z" fill="#E6E6E6"/>
<path d="M258.628 200.518C258.234 200.518 257.844 200.594 257.48 200.745C257.116 200.895 256.785 201.115 256.506 201.394C256.228 201.672 256.006 202.002 255.856 202.366C255.705 202.73 255.627 203.12 255.627 203.514C255.627 203.908 255.705 204.298 255.856 204.661C256.006 205.025 256.228 205.356 256.506 205.634C256.785 205.912 257.116 206.133 257.48 206.283C257.844 206.433 258.234 206.51 258.628 206.509H319.393C320.188 206.509 320.95 206.194 321.511 205.632C322.073 205.07 322.389 204.308 322.389 203.514C322.389 202.719 322.073 201.957 321.511 201.396C320.95 200.834 320.188 200.518 319.393 200.518H258.628Z" fill="#E6E6E6"/>
<path d="M289.011 256.492C285.282 256.492 281.636 255.386 278.535 253.314C275.435 251.242 273.018 248.298 271.591 244.852C270.164 241.407 269.79 237.616 270.518 233.958C271.246 230.301 273.041 226.941 275.678 224.304C278.315 221.667 281.675 219.872 285.332 219.144C288.99 218.417 292.781 218.79 296.226 220.217C299.672 221.644 302.616 224.061 304.688 227.162C306.76 230.262 307.866 233.908 307.866 237.637C307.86 242.636 305.872 247.428 302.337 250.963C298.802 254.498 294.01 256.486 289.011 256.492V256.492Z" fill="#00B0FF"/>
<path d="M204.085 141.157C222.823 126.644 244.716 116.748 267.99 112.269C291.449 107.798 315.64 109.041 338.518 115.893C350.018 119.317 361.067 124.105 371.43 130.154C381.989 136.326 391.53 143.925 400.71 151.97C410.009 160.12 419.003 168.633 428.711 176.306C456.426 198.46 490.833 210.563 526.315 210.641C529.246 210.646 532.175 210.565 535.102 210.399C536.689 210.311 536.7 207.831 535.102 207.919C498.935 209.911 463.219 199.118 434.207 177.431C424.145 169.907 414.958 161.304 405.579 152.968C396.486 144.886 387.149 137.024 376.833 130.531C351.599 114.634 322.243 106.519 292.426 107.198C262.61 107.878 233.654 117.322 209.171 134.352C206.843 135.971 204.569 137.663 202.332 139.404C201.074 140.383 202.84 142.127 204.085 141.157V141.157Z" fill="white"/>
<path d="M202.769 153.143C209.885 153.143 215.654 147.373 215.654 140.257C215.654 133.14 209.885 127.371 202.769 127.371C195.652 127.371 189.883 133.14 189.883 140.257C189.883 147.373 195.652 153.143 202.769 153.143Z" fill="white"/>
<path d="M682.146 324.231C689.263 324.231 695.032 318.462 695.032 311.345C695.032 304.228 689.263 298.459 682.146 298.459C675.029 298.459 669.26 304.228 669.26 311.345C669.26 318.462 675.029 324.231 682.146 324.231Z" fill="white"/>
<path d="M749.652 237.941H539.395C538.225 237.94 537.104 237.475 536.276 236.647C535.449 235.82 534.984 234.699 534.983 233.529V124.129C534.984 122.959 535.449 121.838 536.276 121.011C537.104 120.184 538.225 119.718 539.395 119.717H749.652C750.822 119.718 751.943 120.184 752.77 121.011C753.597 121.838 754.063 122.959 754.064 124.129V233.529C754.063 234.699 753.597 235.82 752.77 236.647C751.943 237.475 750.822 237.94 749.652 237.941ZM539.395 121.482C538.693 121.483 538.02 121.762 537.524 122.258C537.027 122.754 536.748 123.427 536.747 124.129V233.529C536.748 234.231 537.027 234.904 537.524 235.4C538.02 235.896 538.693 236.176 539.395 236.176H749.652C750.354 236.176 751.027 235.896 751.523 235.4C752.019 234.904 752.298 234.231 752.299 233.529V124.129C752.298 123.427 752.019 122.754 751.523 122.258C751.027 121.762 750.354 121.483 749.652 121.482H539.395Z" fill="white"/>
<path d="M574.65 176.444C584.576 176.444 592.623 168.398 592.623 158.471C592.623 148.545 584.576 140.499 574.65 140.499C564.724 140.499 556.677 148.545 556.677 158.471C556.677 168.398 564.724 176.444 574.65 176.444Z" fill="#00B0FF"/>
<path d="M616.159 146.49C615.765 146.489 615.375 146.566 615.011 146.716C614.647 146.866 614.316 147.087 614.037 147.365C613.758 147.643 613.537 147.974 613.386 148.337C613.235 148.701 613.158 149.091 613.158 149.485C613.158 149.879 613.235 150.269 613.386 150.633C613.537 150.996 613.758 151.327 614.037 151.605C614.316 151.883 614.647 152.104 615.011 152.254C615.375 152.404 615.765 152.481 616.159 152.481H729.374C730.168 152.481 730.93 152.165 731.492 151.603C732.054 151.041 732.369 150.28 732.369 149.485C732.369 148.691 732.054 147.929 731.492 147.367C730.93 146.805 730.168 146.49 729.374 146.49H616.159Z" fill="#E6E6E6"/>
<path d="M616.159 164.462C615.765 164.462 615.375 164.539 615.011 164.689C614.647 164.839 614.316 165.06 614.037 165.338C613.758 165.616 613.537 165.946 613.386 166.31C613.235 166.674 613.158 167.064 613.158 167.458C613.158 167.852 613.235 168.242 613.386 168.605C613.537 168.969 613.758 169.3 614.037 169.578C614.316 169.856 614.647 170.077 615.011 170.227C615.375 170.377 615.765 170.454 616.159 170.453H676.924C677.718 170.453 678.48 170.138 679.042 169.576C679.604 169.014 679.919 168.252 679.919 167.458C679.919 166.663 679.604 165.902 679.042 165.34C678.48 164.778 677.718 164.462 676.924 164.462H616.159Z" fill="#E6E6E6"/>
<path d="M560.865 193.196C558.586 193.196 556.732 194.54 556.732 196.191C556.732 197.843 558.586 199.187 560.865 199.187H727.698C729.976 199.187 731.83 197.843 731.83 196.191C731.83 194.54 729.976 193.196 727.698 193.196H560.865Z" fill="#E6E6E6"/>
<path d="M560.865 211.169C558.586 211.169 556.732 212.513 556.732 214.164C556.732 215.815 558.586 217.159 560.865 217.159H727.698C729.976 217.159 731.83 215.815 731.83 214.164C731.83 212.513 729.976 211.169 727.698 211.169H560.865Z" fill="#E6E6E6"/>
<path d="M522.493 323.341C534.355 318.196 547.599 322.682 558.779 327.424C564.537 329.867 570.234 332.474 576.193 334.403C581.206 336.021 586.34 337.238 591.546 338.041C601.994 339.642 612.619 339.707 623.086 338.234C633.605 336.767 643.857 333.786 653.523 329.384C663.135 325.027 672.019 319.219 679.865 312.161C680.863 311.26 681.842 310.337 682.802 309.394C683.943 308.276 682.19 306.523 681.048 307.641C673.493 315.006 664.82 321.129 655.35 325.782C645.92 330.419 635.861 333.651 625.494 335.373C615.093 337.127 604.487 337.31 594.032 335.917C588.816 335.211 583.665 334.092 578.627 332.568C572.841 330.686 567.165 328.481 561.625 325.964C550.34 321.118 537.802 316.372 525.402 319.715C523.981 320.108 522.59 320.604 521.242 321.2C519.782 321.834 521.043 323.97 522.493 323.341V323.341Z" fill="white"/>
<path d="M517.91 353.752H418.574L441.951 313.261C442.37 312.536 442.973 311.933 443.699 311.514C444.424 311.095 445.247 310.874 446.085 310.874C446.923 310.874 447.747 311.095 448.472 311.514C449.198 311.933 449.801 312.536 450.22 313.261L460.206 330.558L477.186 301.148C477.711 300.239 478.466 299.485 479.374 298.96C480.283 298.435 481.313 298.159 482.363 298.159C483.412 298.159 484.442 298.435 485.351 298.96C486.26 299.485 487.014 300.239 487.539 301.148L517.91 353.752Z" fill="#00B0FF"/>
<path d="M518.004 353.742H412.112C410.942 353.74 409.82 353.275 408.993 352.448C408.166 351.621 407.701 350.499 407.7 349.33V290.228C407.701 289.058 408.166 287.937 408.993 287.11C409.82 286.283 410.942 285.817 412.112 285.816H518.004C519.174 285.817 520.295 286.283 521.122 287.11C521.949 287.937 522.415 289.058 522.416 290.228V349.33C522.415 350.499 521.949 351.621 521.122 352.448C520.295 353.275 519.174 353.74 518.004 353.742ZM412.112 287.581C411.41 287.582 410.737 287.861 410.241 288.357C409.744 288.853 409.465 289.526 409.464 290.228V349.33C409.465 350.031 409.744 350.704 410.241 351.201C410.737 351.697 411.41 351.976 412.112 351.977H518.004C518.706 351.976 519.379 351.697 519.875 351.201C520.371 350.704 520.65 350.031 520.651 349.33V290.228C520.65 289.526 520.371 288.853 519.875 288.357C519.379 287.861 518.706 287.582 518.004 287.581H412.112Z" fill="white"/>
<path d="M725.698 301.726L706.823 311.311C700.086 314.732 693.584 314.147 691.094 307.014C690.502 305.316 690.283 303.51 690.453 301.721C690.623 299.931 691.178 298.199 692.079 296.643C692.981 295.087 694.208 293.745 695.676 292.707C697.145 291.67 698.82 290.962 700.588 290.632L718.527 287.283L795.356 261.793L841.896 228.792L858.957 255.973L805.181 284.991L725.698 301.726Z" fill="#FFB8B8"/>
<path d="M813.808 619.872L799.366 617.465L800.971 590.187H816.215L813.808 619.872Z" fill="#FFB8B8"/>
<path d="M953.968 593.229L939.992 597.589L929.131 572.516L942.738 565.646L953.968 593.229Z" fill="#FFB8B8"/>
<path d="M946.185 569.327L928.535 576.548L844.295 465.832L817.819 595.803L800.169 592.594C788.846 480.542 779.614 366.25 790.942 312.194L856.329 309.386L886.014 404.056L900.455 468.239L946.185 569.327Z" fill="#2F2E41"/>
<path d="M813.013 641.932C810.373 642.498 807.62 642.206 805.158 641.098L796.579 637.237C789.386 636.868 784.488 638.301 780.483 633.074C779.353 631.58 778.644 629.811 778.428 627.95C778.213 626.09 778.499 624.205 779.257 622.493V622.493C780.009 620.774 781.205 619.286 782.722 618.183C784.239 617.079 786.022 616.399 787.889 616.212L799.672 608.788L800.29 614.354C805.675 617.405 812.069 616.087 818.844 613.117L822.542 626.061C823.019 627.73 823.148 629.479 822.921 631.2C822.694 632.92 822.116 634.576 821.222 636.065C820.329 637.553 819.139 638.841 817.727 639.851C816.315 640.86 814.71 641.569 813.013 641.932Z" fill="#2F2E41"/>
<path d="M959.687 615.381C957.373 616.774 954.675 617.391 951.986 617.142L942.619 616.277C935.695 618.263 931.528 621.209 926.043 617.566C924.489 616.52 923.243 615.077 922.435 613.387C921.627 611.698 921.286 609.822 921.448 607.956C921.601 606.087 922.249 604.291 923.325 602.755C924.401 601.218 925.867 599.996 927.572 599.214L936.305 588.365L938.697 593.429C944.782 594.565 950.401 591.243 955.844 586.234L963.545 597.275C964.538 598.699 965.228 600.311 965.572 602.013C965.916 603.714 965.907 605.468 965.545 607.165C965.184 608.863 964.477 610.468 963.469 611.882C962.461 613.295 961.174 614.486 959.687 615.381V615.381Z" fill="#2F2E41"/>
<path d="M832.26 195.461C848.212 195.461 861.143 182.53 861.143 166.579C861.143 150.628 848.212 137.697 832.26 137.697C816.309 137.697 803.378 150.628 803.378 166.579C803.378 182.53 816.309 195.461 832.26 195.461Z" fill="#FFB8B8"/>
<path d="M867.561 227.553L829.853 219.53L825.04 188.241L851.515 182.625L867.561 227.553Z" fill="#FFB8B8"/>
<path d="M857.131 313.398H789.739L804.929 275.26C803.826 262.137 809.387 252.485 817.348 244.082L827.447 218.728C843.764 207.988 856.066 208.791 869.166 222.739C884.697 244.73 873.946 277.787 857.131 313.398Z" fill="#00B0FF"/>
<path d="M826.644 394.429L824.728 415.511C824.044 423.036 820.092 428.232 812.726 426.548C810.973 426.147 809.328 425.373 807.902 424.277C806.477 423.182 805.304 421.791 804.466 420.2C803.628 418.61 803.143 416.857 803.045 415.062C802.947 413.266 803.238 411.471 803.898 409.798L810.599 392.824L829.853 314.2L826.644 257.237H858.736L854.724 318.211L826.644 394.429Z" fill="#FFB8B8"/>
<path d="M861.143 258.842H824.237L826.825 234.767C826.995 230.603 828.715 226.653 831.648 223.693C834.582 220.733 838.515 218.976 842.678 218.768V218.768C844.883 218.658 847.089 218.986 849.167 219.734C851.244 220.482 853.153 221.634 854.783 223.124C856.412 224.615 857.73 226.414 858.66 228.417C859.59 230.42 860.113 232.587 860.2 234.794L861.143 258.842Z" fill="#00B0FF"/>
<path d="M868.006 136.881C874.002 136.881 878.862 132.021 878.862 126.025C878.862 120.03 874.002 115.169 868.006 115.169C862.011 115.169 857.15 120.03 857.15 126.025C857.15 132.021 862.011 136.881 868.006 136.881Z" fill="#2F2E41"/>
<path d="M856.82 123.367C856.998 120.613 858.22 118.03 860.236 116.145C862.252 114.26 864.911 113.214 867.671 113.221C867.447 113.192 867.225 113.158 866.996 113.143C864.124 112.96 861.296 113.925 859.136 115.826C856.975 117.727 855.657 120.409 855.472 123.281C855.288 126.153 856.251 128.981 858.151 131.143C860.051 133.305 862.731 134.624 865.603 134.811C865.832 134.825 866.056 134.82 866.282 134.82C863.544 134.473 861.041 133.096 859.283 130.968C857.525 128.84 856.644 126.122 856.82 123.367V123.367Z" fill="#2F2E41"/>
<path d="M856.759 128.003C847.077 119.972 819.307 130.18 817.515 135.579C804.422 137.364 794.509 145.002 794.509 158.585V158.585C802.293 161.774 811.146 161.381 820.716 158.585C835.971 171.017 837.017 186.645 827.739 204.596L839.153 204.824L853.301 184.146L853.977 205.12L880.141 204.596V174.539C880.225 164.545 877.925 154.675 873.431 145.749C869.354 137.828 863.027 133.203 856.759 128.003Z" fill="#2F2E41"/>
<path d="M832.396 181.108C835.263 181.108 837.587 177.854 837.587 173.84C837.587 169.826 835.263 166.572 832.396 166.572C829.529 166.572 827.204 169.826 827.204 173.84C827.204 177.854 829.529 181.108 832.396 181.108Z" fill="#FFB8B8"/>
<path d="M179.195 183.062C179.195 183.062 182.32 128.972 198.543 141.263C214.767 153.554 191.458 188.079 191.458 188.079L179.195 183.062Z" fill="#FFB9B9"/>
<path d="M118.836 343.507C118.836 343.507 154.874 383.964 134.711 386.745C114.549 389.526 106.617 348.631 106.617 348.631L118.836 343.507Z" fill="#FFB9B9"/>
<path d="M71.8098 152.002C76.3329 153.192 80.4035 155.692 83.5104 159.189C86.6173 162.685 88.622 167.021 89.2727 171.652L100.736 253.244L116.806 318.328C116.806 318.328 124.841 325.559 121.627 329.577C118.413 333.594 125.645 350.468 125.645 350.468L105.557 356.896C105.557 356.896 103.146 340.022 99.129 339.219C95.5982 338.512 56.0744 232.93 46.5475 207.352C45.2339 203.825 44.4906 201.819 44.4906 201.819C44.4906 201.819 46.0976 147.984 71.8098 152.002Z" fill="#575A89"/>
<path d="M75.4789 577.492L87.8173 599.357C97.3721 619.756 88.8813 623.462 65.454 613.35L60.1138 587.532L75.4789 577.492Z" fill="#FFB9B9"/>
<path d="M81.7043 606.552C81.7043 606.552 87.5615 597.016 89.68 598.612C91.7984 600.208 100.536 607.125 100.536 607.125L111.918 618.026C111.918 618.026 150.371 622.091 125.937 635.565C101.503 649.038 88 637.866 88 637.866C88 637.866 53.7776 639.646 54.3296 630.098C54.8816 620.55 65.9186 605.445 65.9186 605.445C65.9186 605.445 79.8289 614.77 81.7043 606.552Z" fill="#2F2E41"/>
<path d="M20.7274 330.339L32.2947 470.302C32.2947 470.302 32.6802 553.972 45.0186 570.166C57.357 586.36 57.7425 594.457 57.7425 594.457L83.1904 581.347C83.1904 581.347 70.0809 559.503 72.7799 556.159C74.4436 554.038 75.6276 551.582 76.2501 548.959L69.3097 462.591L82.4193 312.217L20.7274 330.339Z" fill="#2F2E41"/>
<path d="M52.344 577.492L41.548 606.024L17.064 595.788L29.981 574.407L52.344 577.492Z" fill="#FFB9B9"/>
<path d="M34.3334 596.414C34.3334 596.414 43.5161 590.675 44.664 592.97C45.8118 595.266 50.4032 605.023 50.4032 605.023L55.5685 619.371C55.5685 619.371 87.1343 639.458 60.1599 640.606C33.1855 641.754 26.2985 626.258 26.2985 626.258C26.2985 626.258 -4.11941 613.058 0.472004 605.023C5.06341 596.988 21.1332 588.654 21.1332 588.654C21.1332 588.654 29.1681 602.727 34.3334 596.414Z" fill="#2F2E41"/>
<path d="M118.663 330.724L124.832 459.506C124.832 459.506 68.5386 575.949 62.3694 579.034C60.5311 579.983 58.9016 581.291 57.5772 582.88C56.2527 584.47 55.2601 586.308 54.6579 588.288L20.7274 579.805L36.1504 555.128L70.0809 472.616C70.0809 472.616 75.4789 470.302 77.0213 462.591C78.5636 454.879 81.6482 454.879 73.9367 453.337C66.2252 451.795 66.2252 444.083 66.2252 444.083L40.7773 326.869L118.663 330.724Z" fill="#2F2E41"/>
<path d="M121.35 102.779C124.078 85.9628 112.659 70.1188 95.8429 67.39C79.0271 64.6612 63.1831 76.0809 60.4543 92.8966C57.7255 109.712 69.1452 125.556 85.9609 128.285C102.777 131.014 118.621 119.594 121.35 102.779Z" fill="#FFB9B9"/>
<path d="M63.5262 99.7654C63.5262 99.7654 61.2127 139.094 58.1282 142.95C55.0436 146.805 90.5164 146.034 90.5164 146.034C90.5164 146.034 88.2029 112.875 90.5164 109.79C92.8298 106.706 63.5262 99.7654 63.5262 99.7654Z" fill="#FFB9B9"/>
<path d="M120.974 339.208C120.974 339.208 33.8339 331.498 17.6439 339.208C17.6439 339.208 23.6039 317.098 22.0639 314.788C20.9439 313.098 24.0339 250.118 23.0639 213.788C22.5139 193.288 17.7839 173.268 31.5339 158.048C36.2139 152.878 41.4339 148.538 46.9439 146.418C46.9439 146.418 45.4039 131.768 53.1139 130.998C53.1139 130.998 82.4239 127.908 93.2139 137.168C96.6639 140.108 98.8339 149.068 99.0639 156.788C93.7239 183.048 95.6139 212.188 100.514 242.418C100.814 244.338 101.144 246.268 101.474 248.198C106.674 278.178 114.534 309.088 120.974 339.208Z" fill="#575A89"/>
<path d="M74.7875 106.927C77.3961 106.771 79.9433 107.653 82.5338 107.997C91.8021 109.227 101.444 102.502 103.49 93.3788C103.654 92.1639 104.016 90.9841 104.562 89.8864C105.989 87.5576 109.237 87.1135 111.915 87.649C114.593 88.1845 117.132 89.4379 119.859 89.581C124.07 89.802 128.113 87.2095 130.357 83.6396C132.478 79.9566 133.379 75.6974 132.933 71.4709L130.915 73.5896C130.094 71.8543 129.778 69.9235 130.001 68.017C128.931 67.7321 127.806 67.7266 126.733 68.001C125.661 68.2754 124.677 68.8206 123.875 69.5843C122.095 69.7737 123.439 66.2826 122.116 65.0761C121.473 64.681 120.707 64.5376 119.964 64.6735C116.177 64.71 113.114 61.8136 110.13 59.482C104.96 55.4511 98.9136 52.6932 92.4803 51.4312C88.2043 50.5972 83.6573 50.4632 79.6021 52.0555C76.3285 53.525 73.3741 55.6207 70.9052 58.2247C64.5564 64.3295 58.9344 71.5024 56.2932 79.9048C54.1459 86.7871 54.0851 94.1511 56.1184 101.068C57.1826 104.66 60.3901 116.962 65.0857 117.248C70.9859 117.608 67.4435 107.365 74.7875 106.927Z" fill="#2F2E41"/>
<path d="M87.5553 155.788L98.6064 156.972C98.6064 156.972 109.455 178.018 108.667 182.408C107.879 186.798 106.163 184.133 111.046 191.157C115.929 198.18 129.784 216.335 131.499 219C133.215 221.665 179.988 185.978 177.08 175.286C177.08 175.286 191.852 185.883 198.181 187.294C198.181 187.294 149.978 250.512 143.26 258.602C136.543 266.693 131.137 265.031 121.906 260.234C112.674 255.437 65.973 207.59 65.973 207.59L87.5553 155.788Z" fill="#575A89"/>
<path opacity="0.1" d="M101.474 248.198L63.0639 209.788L72.7839 206.618L100.514 242.418C100.814 244.338 101.144 246.268 101.474 248.198Z" fill="black"/>
</svg>
