<?xml version="1.0" standalone="no"?>
<!DOCTYPE svg PUBLIC "-//W3C//DTD SVG 20010904//EN"
 "http://www.w3.org/TR/2001/REC-SVG-20010904/DTD/svg10.dtd">
<svg version="1.0" xmlns="http://www.w3.org/2000/svg"
 width="251.000000pt" height="250.000000pt" viewBox="0 0 251.000000 250.000000"
 preserveAspectRatio="xMidYMid meet">

<g transform="translate(0.000000,250.000000) scale(0.100000,-0.100000)"
fill="#82f7ff" stroke="none">
<path d="M550 2063 c-8 -3 -28 -18 -45 -34 -25 -23 -46 -30 -123 -43 -134 -21
-162 -45 -127 -106 21 -37 18 -64 -15 -130 -34 -67 -36 -86 -14 -115 14 -19
15 -17 9 20 -5 31 -3 44 9 54 9 7 16 20 16 27 0 17 17 18 23 2 3 -7 4 1 4 17
-1 17 0 48 1 70 2 31 5 37 13 25 9 -13 10 -13 6 0 -2 8 -12 14 -21 12 -9 -2
-16 1 -15 5 1 4 -1 16 -5 25 -10 23 11 58 35 58 13 0 18 -4 13 -12 -4 -7 -3
-8 5 -4 6 4 9 11 6 16 -3 5 24 12 60 15 36 4 81 15 100 25 19 10 36 15 38 11
2 -3 2 0 1 6 -5 18 35 41 76 44 19 1 59 -6 88 -17 l54 -19 -5 -40 c-2 -22 -7
-49 -12 -60 -7 -18 -6 -18 9 2 42 57 20 124 -46 138 -52 10 -122 15 -138 8z"/>
<path d="M630 2030 c8 -5 20 -10 25 -10 6 0 3 5 -5 10 -8 5 -19 10 -25 10 -5
0 -3 -5 5 -10z"/>
<path d="M460 1960 c0 -5 5 -10 10 -10 6 0 10 5 10 10 0 6 -4 10 -10 10 -5 0
-10 -4 -10 -10z"/>
<path d="M375 1951 c-3 -5 8 -18 24 -27 22 -13 28 -21 20 -30 -7 -9 -18 -10
-34 -4 -29 11 -43 -4 -25 -25 6 -8 9 -18 6 -23 -3 -6 0 -10 7 -9 36 1 56 -5
88 -29 25 -19 28 -24 12 -19 -13 3 -31 1 -40 -5 -15 -9 -14 -10 7 -5 l25 6
-25 -21 c-57 -50 -100 -91 -100 -98 0 -13 15 -29 37 -40 19 -10 26 -7 62 27
23 22 41 47 41 55 0 13 6 15 28 10 20 -4 23 -3 12 5 -8 5 -12 13 -9 16 13 12
38 -8 54 -43 9 -20 20 -44 25 -53 5 -9 6 -27 3 -40 l-6 -24 19 23 c15 19 31
24 72 26 48 2 88 15 46 15 -42 -1 -94 19 -94 36 0 25 20 27 50 5 l30 -21 -11
28 c-14 38 -38 63 -61 63 -10 0 -24 5 -31 10 -7 6 -21 17 -31 24 -19 13 -19
13 0 39 10 15 23 27 28 27 5 0 3 -7 -4 -15 -9 -10 -9 -15 -1 -15 10 0 15 13
12 32 0 4 13 16 29 28 32 23 41 60 14 60 -9 0 -39 -25 -67 -55 -53 -59 -62
-63 -70 -41 -4 11 -1 13 11 10 14 -5 14 -4 2 4 -8 6 -17 9 -21 6 -10 -6 -25
17 -33 49 -9 37 -84 65 -101 38z"/>
<path d="M276 1924 c-8 -22 -4 -25 11 -9 7 8 9 16 4 19 -5 3 -12 -1 -15 -10z"/>
<path d="M570 1936 c0 -2 7 -7 16 -10 8 -3 12 -2 9 4 -6 10 -25 14 -25 6z"/>
<path d="M794 1926 c-8 -20 20 -69 56 -99 17 -15 60 -65 96 -113 63 -83 65
-88 62 -138 -4 -73 -30 -74 -101 -7 -55 52 -85 62 -107 36 -22 -27 -2 -54 52
-70 29 -8 57 -15 63 -15 14 0 55 -37 55 -50 0 -20 -48 -20 -110 -1 -71 23
-110 26 -110 11 0 -5 11 -12 24 -16 14 -3 27 -12 30 -20 3 -8 19 -14 40 -14
47 0 66 -9 66 -31 0 -26 -48 -25 -92 1 -24 14 -50 19 -88 18 -34 -1 -67 5 -86
15 -17 9 -34 13 -38 10 -17 -17 0 -31 57 -48 34 -10 93 -27 130 -38 38 -11 81
-30 95 -43 26 -24 27 -24 8 -39 -14 -11 -44 -15 -102 -15 -77 0 -134 -13 -134
-31 0 -14 33 -19 126 -19 53 0 104 -5 115 -10 42 -23 12 -73 -71 -115 -27 -13
-51 -33 -54 -43 -4 -10 -28 -33 -54 -50 -59 -40 -153 -128 -145 -136 4 -3 17
-6 29 -6 16 0 22 4 18 14 -4 10 6 21 28 31 46 23 95 50 111 64 8 6 33 18 57
26 24 8 57 26 74 38 44 33 66 40 73 21 7 -18 -42 -119 -66 -137 -10 -7 -32
-32 -49 -57 -18 -25 -46 -62 -64 -82 -17 -21 -28 -41 -25 -45 10 -9 53 34 67
67 6 16 25 34 41 40 16 7 45 34 66 62 53 69 70 78 111 61 41 -17 38 -29 -24
-118 -43 -62 -61 -106 -30 -75 8 8 21 26 28 40 22 43 162 160 191 160 15 0 1
-83 -28 -167 -26 -75 -26 -104 1 -82 8 6 14 26 14 43 0 38 24 76 38 61 6 -6 7
-42 3 -87 -5 -60 -4 -78 6 -78 8 0 13 13 13 34 0 43 35 183 50 201 18 22 24
19 38 -17 12 -30 14 -32 26 -15 28 36 58 4 54 -58 -3 -45 13 -62 36 -39 13 13
16 26 11 55 -8 45 1 48 39 18 35 -27 40 -21 21 24 -17 42 -20 77 -5 77 17 0
69 -81 76 -119 8 -45 30 -81 49 -81 28 0 17 56 -21 105 -42 56 -55 86 -47 114
6 25 12 26 28 4 16 -21 31 -11 55 38 24 46 35 48 84 14 47 -32 86 -42 86 -23
0 21 -30 45 -65 53 -45 11 -75 33 -75 55 0 25 22 26 97 4 43 -13 61 -14 80 -5
34 16 24 33 -28 48 -24 7 -54 18 -66 25 -28 14 -31 48 -5 48 10 0 27 7 38 15
11 9 42 14 77 15 31 0 57 4 57 9 0 9 -1 10 -130 42 -47 12 -87 23 -89 25 -13
12 38 44 78 50 79 12 110 29 111 62 0 15 -35 16 -63 0 -12 -6 -42 -13 -67 -15
-25 -1 -56 -4 -69 -5 -41 -5 -34 18 14 43 25 13 45 28 45 32 0 10 -38 -1 -65
-19 -23 -16 -55 -18 -55 -4 0 13 38 37 73 45 15 4 27 11 27 15 0 5 17 14 38
20 20 7 57 29 82 50 25 20 59 40 75 44 44 11 75 34 75 56 0 31 -38 25 -94 -15
-27 -19 -54 -35 -59 -35 -21 0 -163 -77 -189 -102 -30 -29 -43 -34 -52 -19 -4
5 13 24 36 42 24 18 53 44 66 57 40 45 21 112 -28 97 -11 -3 -20 -3 -20 2 0
21 64 128 90 153 17 16 30 37 30 49 0 42 -36 16 -80 -59 -18 -30 -40 -60 -49
-67 -10 -6 -23 -29 -29 -50 -13 -40 -77 -116 -93 -111 -6 2 -1 15 10 30 12 14
21 31 21 37 0 22 -19 10 -47 -29 -15 -21 -35 -41 -43 -42 -30 -7 -58 5 -64 26
-6 25 14 113 38 169 9 21 12 37 6 37 -5 0 -10 -4 -10 -9 0 -5 -11 -22 -24 -38
-13 -15 -27 -43 -30 -60 -7 -29 -46 -73 -66 -73 -4 0 -7 42 -6 93 l1 92 -33 3
c-41 4 -47 -11 -32 -84 11 -51 10 -59 -7 -81 -10 -14 -30 -32 -45 -41 -26 -15
-28 -15 -53 8 -14 13 -25 31 -25 41 0 9 -9 27 -21 40 l-20 24 7 -35 c4 -19 8
-53 8 -75 1 -38 -1 -40 -30 -43 -27 -3 -37 3 -65 39 -19 24 -53 62 -76 87 -23
24 -52 64 -64 89 -24 49 -66 103 -80 103 -5 0 -12 -6 -15 -14z m487 -442 c13
-12 19 -30 19 -59 0 -47 -17 -68 -64 -79 -28 -7 -28 -7 -21 30 4 25 3 39 -6
45 -19 12 -68 -18 -75 -46 -12 -47 3 -70 65 -104 71 -38 101 -72 101 -116 0
-69 -76 -114 -169 -101 -65 9 -94 31 -86 64 9 39 21 47 40 28 19 -19 54 -29
86 -24 17 2 25 10 27 29 3 29 -24 54 -86 79 -94 37 -98 185 -5 245 58 38 137
42 174 9z m309 7 c7 -14 5 -62 -7 -165 -14 -123 -19 -147 -35 -152 -10 -3 -22
-3 -26 0 -12 7 -36 249 -28 289 7 38 16 45 58 46 17 1 31 -6 38 -18z m-158
-198 c-2 -115 -5 -214 -7 -221 -3 -9 -18 -12 -42 -10 -48 4 -47 -1 -38 246 l7
192 42 0 41 0 -3 -207z m132 -153 c53 -20 11 -103 -43 -85 -37 11 -39 79 -3
88 9 3 18 5 19 6 1 0 13 -3 27 -9z"/>
<path d="M375 1910 c3 -5 11 -10 16 -10 6 0 7 5 4 10 -3 6 -11 10 -16 10 -6 0
-7 -4 -4 -10z"/>
<path d="M490 1900 c0 -5 5 -10 11 -10 5 0 7 5 4 10 -3 6 -8 10 -11 10 -2 0
-4 -4 -4 -10z"/>
<path d="M569 1893 c-13 -16 -12 -17 4 -4 9 7 17 15 17 17 0 8 -8 3 -21 -13z"/>
<path d="M694 1885 c0 -14 7 -25 14 -25 13 0 15 10 6 34 -9 25 -22 19 -20 -9z"/>
<path d="M315 1880 c-3 -5 -1 -10 4 -10 6 0 11 5 11 10 0 6 -2 10 -4 10 -3 0
-8 -4 -11 -10z"/>
<path d="M706 1841 c-4 -7 -5 -15 -2 -18 9 -9 19 4 14 18 -4 11 -6 11 -12 0z"/>
<path d="M301 1774 c0 -11 3 -14 6 -6 3 7 2 16 -1 19 -3 4 -6 -2 -5 -13z"/>
<path d="M615 1780 c-3 -5 -1 -10 4 -10 6 0 11 5 11 10 0 6 -2 10 -4 10 -3 0
-8 -4 -11 -10z"/>
<path d="M769 1759 c30 -30 39 -49 23 -49 -5 0 -9 -7 -9 -15 0 -8 4 -15 8 -15
8 0 19 26 19 45 0 16 -46 65 -61 65 -6 0 3 -14 20 -31z"/>
<path d="M685 1750 c3 -5 8 -10 11 -10 2 0 4 5 4 10 0 6 -5 10 -11 10 -5 0 -7
-4 -4 -10z"/>
<path d="M332 1738 c-7 -7 -12 -16 -12 -21 0 -5 7 -1 16 8 9 9 14 18 12 20 -2
3 -10 -1 -16 -7z"/>
<path d="M755 1660 c-3 -5 1 -10 9 -10 9 0 16 5 16 10 0 6 -4 10 -9 10 -6 0
-13 -4 -16 -10z"/>
<path d="M435 1620 c-3 -5 -2 -10 4 -10 5 0 13 5 16 10 3 6 2 10 -4 10 -5 0
-13 -4 -16 -10z"/>
<path d="M250 1617 c0 -2 20 -14 43 -26 37 -19 49 -21 78 -12 l34 11 -36 -4
c-21 -3 -45 1 -55 8 -20 14 -64 30 -64 23z"/>
<path d="M421 1573 c-2 -21 50 -61 97 -74 49 -14 75 -5 80 27 4 17 2 17 -17
-3 -18 -19 -25 -21 -53 -12 -51 17 -78 31 -72 41 3 4 -1 8 -10 8 -8 0 -17 6
-19 13 -4 9 -6 9 -6 0z"/>
<path d="M2068 1399 c-16 -9 -18 -26 -18 -127 0 -79 4 -122 12 -130 7 -7 42
-12 85 -12 83 0 100 -17 21 -22 -30 -2 -53 -8 -56 -15 -3 -10 26 -13 123 -13
97 0 126 3 123 13 -3 7 -26 13 -56 15 -82 5 -60 22 27 22 44 0 83 5 86 10 4 6
-10 10 -34 10 -30 0 -44 5 -53 20 -12 18 -24 20 -134 20 -118 0 -122 1 -128
23 -8 29 -8 106 0 146 l7 31 164 0 c136 0 165 -3 169 -15 7 -16 24 -21 24 -6
0 5 -7 17 -16 25 -13 13 -43 16 -172 16 -88 0 -165 -5 -174 -11z"/>
<path d="M2354 1335 c-4 -8 -4 -26 -2 -40 3 -14 0 -26 -8 -29 -18 -7 -18 -67
-1 -90 10 -13 24 -17 57 -14 44 3 45 4 48 42 2 21 0 46 -4 55 -5 9 -8 32 -9
51 0 33 -2 35 -38 38 -27 2 -39 -1 -43 -13z"/>
<path d="M2226 1295 c-3 -8 -12 -15 -21 -15 -22 0 -19 -21 4 -27 11 -3 21 -11
23 -18 2 -10 14 -7 48 10 l44 23 -42 21 c-49 25 -48 25 -56 6z"/>
<path d="M295 1040 c-27 -19 -40 -20 -140 -15 -68 4 -116 2 -125 -4 -10 -7
-16 -30 -18 -68 -1 -32 -5 -118 -8 -190 l-6 -133 31 0 c25 0 42 -12 88 -60 66
-71 108 -89 136 -58 9 11 17 31 17 44 0 14 10 30 26 40 22 15 32 15 79 5 42
-9 59 -10 77 0 32 16 58 50 58 77 0 27 -22 73 -44 91 -25 21 -19 43 25 102 33
44 39 60 35 83 -6 31 -32 66 -48 66 -6 0 -21 9 -35 20 -35 27 -108 27 -148 0z"/>
<path d="M493 830 c-21 -9 -33 -40 -15 -40 13 0 52 30 52 41 0 11 -8 11 -37
-1z"/>
<path d="M762 619 c-14 -6 -22 -17 -22 -33 0 -19 8 -27 35 -36 42 -14 36 -34
-7 -25 -23 6 -29 4 -26 -6 7 -21 72 -23 88 -4 17 21 3 47 -30 55 -13 3 -26 12
-28 19 -4 11 3 13 27 8 22 -5 31 -3 31 7 0 17 -39 25 -68 15z"/>
<path d="M891 617 c-59 -30 -34 -117 33 -117 46 0 70 29 62 74 -5 27 -13 37
-38 45 -17 6 -31 11 -32 11 -1 0 -12 -6 -25 -13z m57 -29 c18 -18 14 -46 -7
-58 -27 -14 -51 -2 -51 24 0 39 34 58 58 34z"/>
<path d="M1016 623 c-3 -3 -6 -33 -6 -65 l0 -58 45 0 c51 0 60 14 15 24 -28 5
-30 9 -30 50 0 43 -10 63 -24 49z"/>
<path d="M1126 623 c-10 -10 -7 -82 4 -104 8 -14 21 -19 49 -19 45 0 64 26 59
83 -4 51 -22 51 -26 0 -6 -78 -62 -81 -62 -2 0 37 -10 55 -24 42z"/>
<path d="M1286 609 c-52 -41 -22 -114 45 -107 18 2 34 9 37 16 3 10 -5 13 -28
10 -23 -2 -36 2 -44 15 -15 23 4 52 35 53 42 2 44 4 25 19 -26 20 -38 19 -70
-6z"/>
<path d="M1484 618 c-32 -15 -47 -54 -33 -81 16 -30 28 -37 66 -37 54 0 81 57
46 98 -23 26 -52 33 -79 20z m54 -30 c18 -18 14 -46 -9 -58 -40 -22 -73 36
-35 62 16 11 30 10 44 -4z"/>
<path d="M1696 623 c-3 -3 -6 -19 -6 -35 0 -36 -11 -36 -33 2 -10 17 -27 30
-38 30 -17 0 -19 -7 -19 -60 0 -47 3 -60 15 -60 10 0 15 10 15 30 0 38 10 38
35 0 11 -16 28 -30 38 -30 14 0 17 9 17 59 0 56 -9 79 -24 64z"/>
<path d="M1880 610 c-11 -11 -20 -24 -20 -29 0 -12 22 -28 44 -32 11 -2 21
-10 24 -18 4 -11 -3 -12 -33 -7 -28 6 -36 4 -33 -6 3 -8 21 -13 49 -13 42 0
44 1 44 29 0 25 -5 31 -33 38 -19 5 -30 13 -26 19 3 6 17 8 29 5 34 -9 42 12
10 24 -34 13 -32 13 -55 -10z"/>
<path d="M1390 560 c0 -47 3 -60 15 -60 12 0 15 13 15 60 0 47 -3 60 -15 60
-12 0 -15 -13 -15 -60z"/>
<path d="M1749 608 c-1 -7 -3 -34 -5 -60 l-3 -48 50 0 c27 0 49 5 49 10 0 6
-13 10 -30 10 -20 0 -30 5 -30 15 0 10 10 15 30 15 21 0 30 5 30 16 0 9 -8 14
-17 13 -30 -3 -43 1 -43 11 0 6 14 10 30 10 17 0 30 5 30 10 0 15 -90 13 -91
-2z"/>
<path d="M1813 417 c-12 -12 -31 -30 -43 -39 -25 -22 -26 -49 -2 -76 29 -35
67 -38 96 -8 15 14 26 34 26 46 0 21 -27 54 -51 62 -12 4 -12 7 0 21 20 25 0
20 -26 -6z m31 -56 c14 -15 15 -24 6 -40 -14 -26 -46 -27 -60 -2 -13 25 -13
27 6 45 20 21 27 20 48 -3z"/>
<path d="M672 338 l3 -62 44 -1 c27 0 46 5 48 13 3 8 -7 12 -32 12 -46 0 -43
24 3 28 42 4 41 20 0 24 -41 4 -39 24 2 21 20 -1 30 3 30 13 0 10 -13 14 -50
14 l-51 0 3 -62z"/>
<path d="M790 341 c0 -33 5 -63 11 -67 16 -9 27 13 21 42 -2 14 0 24 7 24 6 0
11 -3 11 -8 0 -14 51 -62 61 -57 5 4 9 33 9 66 0 45 -3 59 -14 59 -10 0 -16
-13 -18 -37 l-3 -38 -23 38 c-14 22 -31 37 -43 37 -17 0 -19 -8 -19 -59z"/>
<path d="M990 340 c0 -47 3 -60 15 -60 12 0 15 13 15 60 0 47 -3 60 -15 60
-12 0 -15 -13 -15 -60z"/>
<path d="M1049 398 c-5 -16 -3 -118 3 -118 4 0 11 0 16 0 4 0 7 8 8 18 3 43 5
46 20 20 8 -16 17 -28 19 -28 2 0 11 12 19 28 l15 27 1 -31 c0 -19 6 -34 15
-38 12 -4 15 6 15 59 0 75 -15 85 -48 33 l-20 -31 -16 31 c-9 18 -23 32 -31
32 -8 0 -15 -1 -16 -2z"/>
<path d="M1210 335 c0 -40 4 -65 11 -65 6 0 13 8 16 19 3 10 19 23 36 28 25 7
33 15 35 37 4 35 -10 46 -60 46 l-38 0 0 -65z m68 23 c-7 -19 -38 -22 -38 -4
0 10 9 16 21 16 12 0 19 -5 17 -12z"/>
<path d="M1330 341 c0 -60 16 -92 27 -52 7 27 20 27 42 -1 11 -12 23 -18 30
-14 9 6 9 11 0 22 -9 12 -9 20 2 40 20 38 2 58 -55 62 l-46 3 0 -60z m75 14
c0 -5 -10 -11 -22 -13 -16 -2 -23 2 -23 13 0 11 7 15 23 13 12 -2 22 -7 22
-13z"/>
<path d="M1460 341 c0 -33 4 -62 8 -65 12 -7 92 6 92 15 0 5 -16 9 -36 9 -42
0 -43 23 -1 28 37 5 34 22 -4 22 -20 0 -29 4 -27 12 3 7 17 12 33 13 15 0 30
6 32 13 3 8 -10 12 -46 12 l-51 0 0 -59z"/>
<path d="M1584 386 c-11 -29 1 -50 34 -60 43 -12 41 -30 -3 -23 -45 7 -49 -18
-4 -27 69 -13 97 44 34 70 -40 16 -38 38 2 28 19 -5 24 -3 21 7 -7 20 -77 24
-84 5z"/>
<path d="M1700 335 c0 -53 3 -63 15 -59 11 5 15 22 15 65 0 46 -3 59 -15 59
-12 0 -15 -14 -15 -65z"/>
<path d="M1912 338 c3 -67 21 -86 26 -29 l3 33 35 -37 c43 -47 56 -38 52 35
-3 58 -28 85 -28 31 0 -39 -10 -39 -38 -1 -38 50 -53 40 -50 -32z"/>
</g>
</svg>
