<svg id="svg" version="1.1" xmlns="http://www.w3.org/2000/svg" xmlns:xlink="http://www.w3.org/1999/xlink" width="400" height="208.26446280991735" viewBox="0, 0, 400,208.26446280991735"><g id="svgg"><path id="path0" d="M147.231 86.342 C 146.796 86.497,146.093 86.688,145.668 86.766 C 141.096 87.607,137.254 92.251,137.249 96.941 C 137.242 102.787,142.215 106.858,152.083 109.085 C 156.518 110.085,158.194 111.763,157.420 114.426 C 156.646 117.090,154.365 118.082,150.318 117.515 C 145.966 116.906,143.598 115.221,142.521 111.964 L 141.974 110.313 140.105 110.252 C 137.678 110.173,137.708 110.131,137.708 113.574 C 137.708 115.992,137.671 116.255,137.305 116.451 C 136.872 116.683,122.169 116.767,121.580 116.540 C 121.151 116.376,121.076 106.924,121.500 106.500 C 121.653 106.347,122.403 106.250,123.438 106.250 C 125.451 106.250,125.625 106.379,125.625 107.868 C 125.625 109.653,125.774 109.792,127.701 109.792 C 130.128 109.792,130.000 110.116,130.000 103.969 C 130.000 97.886,130.176 98.292,127.573 98.377 L 125.729 98.438 125.625 100.000 L 125.521 101.563 123.438 101.563 L 121.354 101.563 121.298 96.458 C 121.230 90.229,120.770 90.833,125.574 90.833 C 130.125 90.833,130.000 90.773,130.000 92.986 C 130.000 94.048,130.096 94.804,130.250 94.958 C 130.656 95.365,134.297 95.296,134.457 94.879 C 134.707 94.228,134.597 87.181,134.333 86.917 C 133.972 86.555,107.070 86.555,106.708 86.917 C 106.379 87.246,106.368 90.545,106.696 90.747 C 106.826 90.828,107.672 90.910,108.575 90.930 C 109.478 90.950,110.307 91.057,110.416 91.166 C 110.641 91.391,110.730 116.151,110.508 116.730 C 110.395 117.023,110.079 117.083,108.663 117.083 C 106.664 117.083,106.741 117.149,105.096 114.045 C 104.554 113.024,103.763 111.531,103.338 110.729 C 101.752 107.741,101.170 106.821,100.175 105.732 C 99.454 104.944,99.230 104.569,99.413 104.456 C 99.555 104.368,100.218 104.005,100.888 103.649 C 108.140 99.790,106.636 90.173,98.333 87.323 L 96.771 86.787 70.781 86.720 C 52.620 86.673,44.665 86.720,44.374 86.875 C 43.982 87.085,43.958 87.314,43.958 90.919 C 43.958 95.489,43.814 95.247,46.489 95.164 L 48.438 95.104 48.495 93.229 C 48.540 91.771,48.630 91.296,48.900 91.094 C 49.323 90.776,54.699 90.729,55.507 91.037 L 56.042 91.240 56.042 103.912 C 56.042 118.345,56.241 117.083,53.963 117.083 C 51.687 117.083,51.523 117.242,51.583 119.389 C 51.615 120.545,51.721 121.156,51.909 121.276 C 52.376 121.571,90.703 121.505,91.000 121.208 C 91.154 121.054,91.250 120.298,91.250 119.236 C 91.250 117.174,91.155 117.083,88.987 117.083 C 86.790 117.083,86.875 117.300,86.875 111.669 C 86.875 105.736,86.823 105.883,88.690 106.541 C 90.119 107.046,90.722 107.787,92.605 111.354 C 93.270 112.615,94.094 114.161,94.436 114.792 C 94.778 115.422,95.430 116.641,95.884 117.500 C 97.222 120.030,97.755 120.921,98.094 121.198 C 98.345 121.403,103.378 121.460,121.654 121.465 C 140.621 121.470,145.356 121.527,147.396 121.773 C 154.851 122.672,160.992 121.311,163.979 118.097 C 164.805 117.209,166.042 114.999,166.042 114.412 C 166.042 113.468,166.559 113.239,167.099 113.944 C 168.661 115.986,169.845 117.293,170.900 118.145 C 176.471 122.639,186.829 123.238,197.369 119.675 C 201.243 118.366,200.848 119.483,200.784 110.018 L 200.729 101.979 193.827 101.924 L 186.925 101.869 186.799 102.341 C 186.594 103.106,186.649 105.411,186.882 105.847 C 187.069 106.196,187.331 106.250,188.849 106.250 C 189.884 106.250,190.658 106.343,190.740 106.476 C 190.848 106.650,190.909 112.417,190.842 115.951 C 190.822 116.955,187.018 117.828,184.165 117.482 C 181.455 117.154,178.823 115.322,177.603 112.915 C 175.560 108.882,175.556 99.034,177.597 95.016 C 180.455 89.390,189.099 88.734,193.954 93.775 L 195.347 95.221 198.038 95.163 L 200.729 95.104 200.833 93.125 L 200.938 91.146 201.819 90.961 C 203.354 90.639,203.274 90.149,203.387 100.579 C 203.519 112.804,203.985 114.971,207.174 118.208 C 212.230 123.338,225.695 123.470,230.751 118.438 C 233.910 115.294,234.366 112.986,234.371 100.102 C 234.375 91.992,234.402 91.334,234.740 91.131 C 235.137 90.893,238.127 90.890,238.512 91.128 C 238.766 91.285,238.874 116.101,238.624 116.754 C 238.522 117.017,238.154 117.083,236.790 117.083 C 234.628 117.083,234.583 117.131,234.583 119.413 C 234.583 121.137,234.610 121.249,235.052 121.355 C 235.310 121.418,246.255 121.443,259.375 121.411 L 283.229 121.354 283.290 119.483 C 283.365 117.190,283.268 117.083,281.118 117.083 C 278.910 117.083,278.957 117.204,278.965 111.568 C 278.973 105.996,278.978 105.983,280.721 106.533 C 281.964 106.924,282.839 107.809,283.739 109.583 C 284.000 110.099,284.566 111.177,284.996 111.979 C 286.823 115.383,287.832 117.251,288.374 118.229 C 288.692 118.802,289.049 119.494,289.168 119.767 C 289.288 120.040,289.577 120.532,289.811 120.861 L 290.237 121.458 303.747 121.458 C 311.178 121.458,317.406 121.401,317.587 121.332 C 317.853 121.230,317.917 120.851,317.917 119.360 C 317.917 117.160,317.841 117.083,315.671 117.083 C 313.473 117.083,313.542 117.263,313.542 111.501 C 313.542 106.003,313.558 105.952,315.166 106.476 C 316.816 107.013,317.206 107.523,319.949 112.708 C 320.464 113.682,321.215 115.089,321.617 115.833 C 322.020 116.578,322.765 117.984,323.273 118.958 C 324.711 121.713,323.703 121.472,333.516 121.409 L 341.979 121.354 342.040 119.511 C 342.114 117.234,342.011 117.083,340.384 117.083 C 338.869 117.083,338.522 116.612,339.187 115.457 C 339.405 115.078,339.583 114.655,339.583 114.516 C 339.583 114.102,340.416 112.631,340.872 112.240 C 341.251 111.914,341.842 111.875,346.442 111.875 L 351.589 111.875 352.149 112.459 C 352.456 112.781,352.708 113.117,352.708 113.206 C 352.708 113.295,352.993 114.016,353.341 114.809 C 354.120 116.584,353.983 117.083,352.716 117.083 C 351.348 117.083,350.720 118.994,351.453 120.924 L 351.656 121.458 360.386 121.458 C 368.168 121.458,369.373 121.503,371.485 121.873 C 374.012 122.315,377.476 122.413,378.854 122.081 C 379.313 121.971,380.287 121.782,381.021 121.661 C 381.754 121.539,382.757 121.257,383.249 121.033 C 383.741 120.808,384.202 120.625,384.274 120.625 C 384.558 120.625,386.397 119.238,387.120 118.478 C 390.769 114.642,390.605 106.797,386.797 103.058 C 384.906 101.202,382.816 100.326,376.979 98.945 C 370.386 97.385,369.479 96.786,369.479 93.994 C 369.479 88.940,380.691 89.123,382.780 94.211 C 383.171 95.163,383.455 95.244,386.146 95.165 L 388.229 95.104 388.286 91.727 C 388.352 87.878,388.362 87.901,386.458 87.600 C 385.943 87.518,385.366 87.370,385.176 87.271 C 384.986 87.171,383.955 86.953,382.884 86.786 C 381.814 86.619,380.610 86.383,380.210 86.262 C 378.628 85.783,371.449 85.986,369.430 86.567 C 363.470 88.283,361.138 91.335,361.154 97.396 C 361.171 103.465,363.955 106.332,371.354 107.899 C 378.774 109.471,380.939 110.528,381.363 112.788 C 382.414 118.387,371.219 119.262,365.257 114.046 C 363.911 112.869,363.179 111.777,362.405 109.792 C 362.070 108.932,361.731 108.135,361.651 108.021 C 361.571 107.906,361.249 107.156,360.936 106.354 C 360.622 105.552,360.243 104.615,360.092 104.271 C 359.941 103.927,359.662 103.271,359.472 102.813 C 359.282 102.354,358.753 101.089,358.296 100.000 C 357.839 98.911,357.142 97.224,356.747 96.250 C 356.352 95.276,355.899 94.198,355.740 93.854 C 355.467 93.261,354.769 91.585,354.141 90.011 C 353.983 89.616,353.573 88.725,353.229 88.032 L 352.604 86.771 349.608 86.713 C 346.578 86.654,345.625 86.850,345.625 87.531 C 345.625 87.737,345.023 89.249,344.269 90.938 C 344.116 91.281,343.739 92.172,343.432 92.917 C 343.126 93.661,342.707 94.646,342.503 95.104 C 342.298 95.563,341.875 96.594,341.563 97.396 C 341.250 98.198,340.928 98.948,340.847 99.063 C 340.765 99.177,340.394 100.056,340.023 101.015 C 339.651 101.975,339.259 102.912,339.153 103.099 C 339.047 103.285,338.640 104.234,338.249 105.208 C 337.859 106.182,337.102 108.010,336.569 109.271 C 336.035 110.531,335.176 112.594,334.659 113.854 C 333.381 116.969,333.220 117.046,332.223 115.021 C 331.963 114.494,331.296 113.219,330.739 112.188 C 330.183 111.156,329.482 109.844,329.182 109.271 C 328.353 107.688,327.639 106.643,326.693 105.628 C 325.619 104.476,325.577 104.609,327.285 103.772 C 334.887 100.048,333.479 90.348,324.896 87.317 L 323.438 86.802 311.392 86.721 C 297.481 86.627,298.676 86.431,298.783 88.783 C 298.874 90.795,298.968 90.886,301.001 90.938 C 301.907 90.961,302.756 91.047,302.887 91.127 C 303.061 91.235,303.125 94.672,303.125 103.963 C 303.125 118.585,303.395 117.083,300.766 117.083 C 298.871 117.083,298.658 116.931,297.539 114.792 C 297.090 113.932,296.272 112.385,295.721 111.354 C 295.171 110.323,294.579 109.198,294.405 108.854 C 293.902 107.856,292.705 106.204,291.944 105.455 C 291.097 104.621,291.115 104.585,292.759 103.787 C 294.576 102.905,296.354 101.132,296.767 99.788 C 296.854 99.503,297.028 99.144,297.152 98.989 C 297.277 98.834,297.417 97.822,297.464 96.741 C 297.668 92.098,295.388 89.051,290.434 87.345 L 288.854 86.802 276.809 86.720 C 262.928 86.627,264.167 86.417,264.167 88.867 C 264.167 90.928,264.140 90.903,266.348 90.934 C 267.272 90.946,268.143 91.028,268.285 91.116 C 268.723 91.387,268.652 116.372,268.212 116.540 C 267.728 116.726,249.940 116.688,249.645 116.501 C 249.283 116.271,249.229 106.990,249.587 106.558 C 249.775 106.331,250.302 106.250,251.581 106.250 C 253.618 106.250,253.750 106.369,253.750 108.208 C 253.750 109.630,253.981 109.792,256.016 109.792 C 258.181 109.792,258.125 109.950,258.125 103.833 C 258.125 97.905,258.297 98.292,255.698 98.377 L 253.854 98.438 253.800 99.583 C 253.696 101.796,253.815 101.690,251.505 101.622 L 249.479 101.563 249.423 96.458 C 249.355 90.229,248.895 90.833,253.699 90.833 C 258.281 90.833,258.125 90.753,258.125 93.110 C 258.125 94.601,258.188 94.980,258.455 95.082 C 259.065 95.316,262.197 95.219,262.458 94.958 C 262.810 94.606,262.810 87.269,262.458 86.917 C 262.096 86.554,225.821 86.554,225.458 86.917 C 225.305 87.070,225.208 87.824,225.208 88.874 C 225.208 90.883,225.179 90.857,227.522 90.931 C 228.394 90.958,229.214 91.047,229.345 91.127 C 230.283 91.707,229.487 111.198,228.434 113.438 C 226.422 117.713,218.855 118.375,215.788 114.544 C 214.142 112.488,214.071 111.952,213.996 100.990 L 213.929 91.251 214.451 91.052 C 214.738 90.943,215.634 90.866,216.442 90.881 C 218.250 90.915,218.211 90.955,218.303 88.938 C 218.417 86.426,219.881 86.667,204.506 86.664 C 193.388 86.662,190.954 86.610,190.000 86.354 C 188.432 85.933,181.953 85.921,180.507 86.337 C 179.941 86.499,179.061 86.698,178.550 86.779 C 171.726 87.861,166.299 93.459,164.937 100.820 C 164.440 103.505,164.259 103.828,163.612 103.180 C 161.775 101.341,158.990 100.192,154.167 99.285 C 152.270 98.928,149.450 98.162,148.865 97.845 C 145.887 96.230,144.900 94.421,145.977 92.546 C 148.334 88.438,159.583 90.923,159.583 95.552 C 159.583 96.594,160.238 96.896,162.351 96.831 L 164.271 96.771 164.271 92.508 L 164.271 88.245 163.750 87.990 C 163.038 87.641,160.695 87.096,158.438 86.756 C 157.406 86.600,156.235 86.376,155.835 86.257 C 154.740 85.933,148.196 85.997,147.231 86.342 M13.789 87.555 C 10.419 88.213,10.894 88.309,20.800 88.974 C 26.286 89.342,26.298 88.835,20.833 87.596 C 18.220 87.003,16.659 86.994,13.789 87.555 M75.924 91.037 L 76.458 91.240 76.458 103.834 C 76.458 115.006,76.421 116.466,76.131 116.756 C 75.670 117.217,67.271 117.248,66.891 116.790 C 66.450 116.259,66.576 91.425,67.021 91.094 C 67.452 90.774,75.103 90.724,75.924 91.037 M91.624 91.494 C 97.025 93.908,95.103 101.612,89.070 101.735 C 86.714 101.783,86.858 102.152,86.923 96.245 L 86.979 91.164 87.500 91.034 C 88.377 90.815,90.679 91.072,91.624 91.494 M25.200 91.243 C 24.107 91.318,23.109 91.444,22.982 91.522 C 22.855 91.601,21.077 91.759,19.032 91.873 C 16.982 91.988,14.191 92.293,12.813 92.551 L 10.313 93.021 14.167 93.174 C 16.286 93.259,19.240 93.427,20.729 93.548 C 24.890 93.886,30.696 94.174,31.012 94.058 C 31.547 93.862,28.500 91.036,27.793 91.074 C 27.460 91.091,26.293 91.167,25.200 91.243 M283.263 91.498 C 287.672 93.151,288.228 99.083,284.173 101.215 C 283.201 101.726,279.809 101.955,279.350 101.540 C 278.896 101.129,278.741 92.253,279.174 91.445 C 279.487 90.860,281.637 90.888,283.263 91.498 M318.057 91.519 C 322.031 92.941,322.841 98.599,319.402 100.909 C 318.332 101.627,315.169 102.093,314.115 101.689 L 313.542 101.469 313.542 96.377 C 313.542 92.498,313.604 91.260,313.802 91.180 C 314.498 90.899,316.848 91.086,318.057 91.519 M29.375 95.639 C 28.516 95.730,25.469 95.906,22.604 96.031 C 19.740 96.156,17.181 96.306,16.918 96.365 C 16.655 96.423,14.184 96.603,11.427 96.764 C 8.670 96.925,6.373 97.099,6.322 97.151 C 6.270 97.202,7.569 97.311,9.208 97.394 C 10.847 97.476,13.125 97.624,14.271 97.723 C 15.417 97.821,19.120 98.044,22.500 98.218 C 30.455 98.627,33.333 98.983,33.333 99.556 C 33.333 99.922,32.592 100.023,28.444 100.222 C 26.149 100.333,23.568 100.514,22.708 100.625 C 21.849 100.737,18.823 100.929,15.984 101.053 C 12.006 101.227,10.573 101.365,9.734 101.654 L 8.646 102.029 10.000 102.153 C 10.745 102.220,12.948 102.327,14.896 102.390 C 16.844 102.452,19.984 102.640,21.875 102.807 C 23.766 102.973,27.075 103.193,29.229 103.294 C 33.307 103.486,33.987 103.657,33.070 104.258 C 32.412 104.689,30.087 104.935,25.104 105.100 C 22.927 105.172,19.740 105.361,18.021 105.519 C 16.302 105.677,13.138 105.871,10.990 105.950 C 6.528 106.113,5.969 106.343,9.531 106.551 C 10.878 106.630,12.776 106.780,13.750 106.885 C 14.724 106.989,17.536 107.169,20.000 107.284 C 22.464 107.399,25.557 107.592,26.875 107.713 C 29.947 107.996,32.704 108.281,33.205 108.369 C 34.419 108.581,35.050 102.079,33.983 100.352 C 33.740 99.959,33.541 99.321,33.540 98.934 C 33.538 98.274,33.000 96.960,32.292 95.885 C 31.958 95.378,31.889 95.373,29.375 95.639 M347.497 100.573 C 347.880 101.576,348.261 102.490,348.342 102.604 C 348.424 102.719,348.559 103.047,348.644 103.333 C 348.728 103.620,348.919 104.135,349.069 104.479 C 350.495 107.754,350.722 107.493,346.448 107.497 C 342.110 107.501,342.239 107.754,344.268 103.229 C 344.957 101.692,345.625 100.036,345.625 99.864 C 345.625 99.532,346.265 98.750,346.536 98.750 C 346.681 98.750,347.113 99.570,347.497 100.573 M30.938 109.200 C 23.548 109.822,20.643 110.030,16.667 110.224 C 14.203 110.345,11.063 110.607,9.688 110.808 L 7.188 111.173 9.583 111.306 C 12.375 111.462,17.829 111.767,23.438 112.083 C 25.615 112.205,28.380 112.380,29.583 112.471 C 32.144 112.665,32.271 112.606,33.045 110.859 C 33.593 109.623,33.680 108.941,33.281 108.992 C 33.138 109.010,32.083 109.104,30.938 109.200 M393.125 113.021 C 392.982 113.193,392.681 113.333,392.456 113.333 C 392.007 113.333,390.833 114.334,390.833 114.717 C 390.833 114.848,390.693 115.009,390.521 115.075 C 390.276 115.169,390.208 115.591,390.208 117.029 L 390.208 118.863 391.114 119.796 C 392.616 121.344,392.638 121.354,394.541 121.354 C 395.980 121.354,396.315 121.291,396.483 120.990 C 396.596 120.789,396.784 120.625,396.901 120.625 C 397.209 120.625,398.332 119.458,398.340 119.131 C 398.344 118.979,398.484 118.672,398.652 118.450 C 399.583 117.219,398.259 113.978,396.562 113.333 C 396.246 113.213,396.010 113.216,395.933 113.341 C 395.780 113.588,395.990 113.958,396.281 113.958 C 396.579 113.958,397.708 115.050,397.708 115.338 C 397.708 115.468,397.849 115.691,398.021 115.833 C 398.380 116.131,398.459 118.023,398.122 118.231 C 398.006 118.303,397.776 118.684,397.612 119.077 C 397.447 119.470,397.170 119.792,396.995 119.792 C 396.820 119.792,396.523 120.026,396.335 120.313 C 395.865 121.030,393.080 121.110,392.708 120.417 C 392.586 120.188,392.351 120.000,392.188 120.000 C 392.024 120.000,391.779 119.789,391.644 119.531 C 391.508 119.273,391.271 118.988,391.115 118.896 C 390.565 118.571,390.742 115.785,391.354 115.124 C 391.641 114.815,391.875 114.493,391.875 114.410 C 391.875 114.326,392.156 114.152,392.500 114.022 C 392.844 113.892,393.125 113.637,393.125 113.456 C 393.125 113.190,393.372 113.125,394.375 113.125 C 395.069 113.125,395.625 113.032,395.625 112.917 C 395.625 112.572,393.421 112.664,393.125 113.021 M25.104 114.281 C 22.354 114.422,18.792 114.637,17.188 114.760 C 15.583 114.883,13.146 115.050,11.771 115.132 C 10.396 115.214,9.411 115.311,9.583 115.348 C 10.153 115.471,16.706 116.051,21.042 116.361 C 23.391 116.529,25.762 116.761,26.312 116.875 C 28.065 117.240,28.238 117.182,29.726 115.730 C 30.489 114.986,31.073 114.341,31.025 114.298 C 30.754 114.053,29.622 114.050,25.104 114.281 M392.980 114.956 C 392.707 115.130,392.550 118.742,392.798 119.143 C 393.072 119.587,393.736 119.381,394.063 118.750 C 394.457 117.987,394.738 117.957,395.002 118.651 C 395.266 119.346,395.818 119.546,396.165 119.072 C 396.390 118.763,396.381 118.618,396.112 118.207 C 395.814 117.753,395.823 117.648,396.220 116.885 L 396.652 116.056 396.120 115.424 C 395.579 114.781,393.696 114.501,392.980 114.956 M394.930 115.952 C 395.120 116.446,394.675 116.794,394.277 116.464 C 394.030 116.259,394.010 116.127,394.190 115.910 C 394.502 115.534,394.776 115.549,394.930 115.952 M18.018 119.282 C 13.660 119.543,12.292 119.756,12.292 120.176 C 12.292 121.088,19.896 120.943,23.024 119.972 C 26.069 119.027,24.922 118.869,18.018 119.282 " stroke="none" fill="#db0a50" fill-rule="evenodd"></path><path id="path1" d="M0.000 104.167 L 0.000 208.333 200.000 208.333 L 400.000 208.333 400.000 104.167 L 400.000 0.000 200.000 0.000 L 0.000 0.000 0.000 104.167 M155.835 86.257 C 156.235 86.376,157.406 86.600,158.438 86.756 C 160.695 87.096,163.038 87.641,163.750 87.990 L 164.271 88.245 164.271 92.508 L 164.271 96.771 162.351 96.831 C 160.238 96.896,159.583 96.594,159.583 95.552 C 159.583 90.923,148.334 88.438,145.977 92.546 C 144.900 94.421,145.887 96.230,148.865 97.845 C 149.450 98.162,152.270 98.928,154.167 99.285 C 158.990 100.192,161.775 101.341,163.612 103.180 C 164.259 103.828,164.440 103.505,164.937 100.820 C 166.299 93.459,171.726 87.861,178.550 86.779 C 179.061 86.698,179.941 86.499,180.507 86.337 C 181.953 85.921,188.432 85.933,190.000 86.354 C 190.954 86.610,193.388 86.662,204.506 86.664 C 219.881 86.667,218.417 86.426,218.303 88.938 C 218.211 90.955,218.250 90.915,216.442 90.881 C 215.634 90.866,214.738 90.943,214.451 91.052 L 213.929 91.251 213.996 100.990 C 214.071 111.952,214.142 112.488,215.788 114.544 C 218.855 118.375,226.422 117.713,228.434 113.438 C 229.487 111.198,230.283 91.707,229.345 91.127 C 229.214 91.047,228.394 90.958,227.522 90.931 C 225.179 90.857,225.208 90.883,225.208 88.874 C 225.208 87.824,225.305 87.070,225.458 86.917 C 225.821 86.554,262.096 86.554,262.458 86.917 C 262.810 87.269,262.810 94.606,262.458 94.958 C 262.197 95.219,259.065 95.316,258.455 95.082 C 258.188 94.980,258.125 94.601,258.125 93.110 C 258.125 90.753,258.281 90.833,253.699 90.833 C 248.895 90.833,249.355 90.229,249.423 96.458 L 249.479 101.563 251.505 101.622 C 253.815 101.690,253.696 101.796,253.800 99.583 L 253.854 98.438 255.698 98.377 C 258.297 98.292,258.125 97.905,258.125 103.833 C 258.125 109.950,258.181 109.792,256.016 109.792 C 253.981 109.792,253.750 109.630,253.750 108.208 C 253.750 106.369,253.618 106.250,251.581 106.250 C 250.302 106.250,249.775 106.331,249.587 106.558 C 249.229 106.990,249.283 116.271,249.645 116.501 C 249.940 116.688,267.728 116.726,268.212 116.540 C 268.652 116.372,268.723 91.387,268.285 91.116 C 268.143 91.028,267.272 90.946,266.348 90.934 C 264.140 90.903,264.167 90.928,264.167 88.867 C 264.167 86.417,262.928 86.627,276.809 86.720 L 288.854 86.802 290.434 87.345 C 295.388 89.051,297.668 92.098,297.464 96.741 C 297.417 97.822,297.277 98.834,297.152 98.989 C 297.028 99.144,296.854 99.503,296.767 99.788 C 296.354 101.132,294.576 102.905,292.759 103.787 C 291.115 104.585,291.097 104.621,291.944 105.455 C 292.705 106.204,293.902 107.856,294.405 108.854 C 294.579 109.198,295.171 110.323,295.721 111.354 C 296.272 112.385,297.090 113.932,297.539 114.792 C 298.658 116.931,298.871 117.083,300.766 117.083 C 303.395 117.083,303.125 118.585,303.125 103.963 C 303.125 94.672,303.061 91.235,302.887 91.127 C 302.756 91.047,301.907 90.961,301.001 90.938 C 298.968 90.886,298.874 90.795,298.783 88.783 C 298.676 86.431,297.481 86.627,311.392 86.721 L 323.438 86.802 324.896 87.317 C 333.479 90.348,334.887 100.048,327.285 103.772 C 325.577 104.609,325.619 104.476,326.693 105.628 C 327.639 106.643,328.353 107.688,329.182 109.271 C 329.482 109.844,330.183 111.156,330.739 112.188 C 331.296 113.219,331.963 114.494,332.223 115.021 C 333.220 117.046,333.381 116.969,334.659 113.854 C 335.176 112.594,336.035 110.531,336.569 109.271 C 337.102 108.010,337.859 106.182,338.249 105.208 C 338.640 104.234,339.047 103.285,339.153 103.099 C 339.259 102.912,339.651 101.975,340.023 101.015 C 340.394 100.056,340.765 99.177,340.847 99.063 C 340.928 98.948,341.250 98.198,341.563 97.396 C 341.875 96.594,342.298 95.563,342.503 95.104 C 342.707 94.646,343.126 93.661,343.432 92.917 C 343.739 92.172,344.116 91.281,344.269 90.938 C 345.023 89.249,345.625 87.737,345.625 87.531 C 345.625 86.850,346.578 86.654,349.608 86.713 L 352.604 86.771 353.229 88.032 C 353.573 88.725,353.983 89.616,354.141 90.011 C 354.769 91.585,355.467 93.261,355.740 93.854 C 355.899 94.198,356.352 95.276,356.747 96.250 C 357.142 97.224,357.839 98.911,358.296 100.000 C 358.753 101.089,359.282 102.354,359.472 102.813 C 359.662 103.271,359.941 103.927,360.092 104.271 C 360.243 104.615,360.622 105.552,360.936 106.354 C 361.249 107.156,361.571 107.906,361.651 108.021 C 361.731 108.135,362.070 108.932,362.405 109.792 C 362.740 110.651,363.278 111.749,363.600 112.232 C 368.054 118.905,382.596 119.360,381.363 112.788 C 380.939 110.528,378.774 109.471,371.354 107.899 C 363.955 106.332,361.171 103.465,361.154 97.396 C 361.138 91.335,363.470 88.283,369.430 86.567 C 371.449 85.986,378.628 85.783,380.210 86.262 C 380.610 86.383,381.814 86.619,382.884 86.786 C 383.955 86.953,384.986 87.171,385.176 87.271 C 385.366 87.370,385.943 87.518,386.458 87.600 C 388.362 87.901,388.352 87.878,388.286 91.727 L 388.229 95.104 386.146 95.165 C 383.455 95.244,383.171 95.163,382.780 94.211 C 381.722 91.635,378.717 90.261,374.607 90.475 C 370.719 90.677,369.479 91.528,369.479 93.994 C 369.479 96.786,370.386 97.385,376.979 98.945 C 382.816 100.326,384.906 101.202,386.797 103.058 C 390.605 106.797,390.769 114.642,387.120 118.478 C 386.397 119.238,384.558 120.625,384.274 120.625 C 384.202 120.625,383.741 120.808,383.249 121.033 C 382.757 121.257,381.754 121.539,381.021 121.661 C 380.287 121.782,379.313 121.971,378.854 122.081 C 377.476 122.413,374.012 122.315,371.485 121.873 C 369.373 121.503,368.168 121.458,360.386 121.458 L 351.656 121.458 351.453 120.924 C 350.720 118.994,351.348 117.083,352.716 117.083 C 353.983 117.083,354.120 116.584,353.341 114.809 C 352.993 114.016,352.708 113.295,352.708 113.206 C 352.708 113.117,352.456 112.781,352.149 112.459 L 351.589 111.875 346.442 111.875 C 341.842 111.875,341.251 111.914,340.872 112.240 C 340.416 112.631,339.583 114.102,339.583 114.516 C 339.583 114.655,339.405 115.078,339.187 115.457 C 338.522 116.612,338.869 117.083,340.384 117.083 C 342.011 117.083,342.114 117.234,342.040 119.511 L 341.979 121.354 333.516 121.409 C 323.703 121.472,324.711 121.713,323.273 118.958 C 322.765 117.984,322.020 116.578,321.617 115.833 C 321.215 115.089,320.464 113.682,319.949 112.708 C 317.206 107.523,316.816 107.013,315.166 106.476 C 313.558 105.952,313.542 106.003,313.542 111.501 C 313.542 117.263,313.473 117.083,315.671 117.083 C 317.841 117.083,317.917 117.160,317.917 119.360 C 317.917 120.851,317.853 121.230,317.587 121.332 C 317.406 121.401,311.178 121.458,303.747 121.458 L 290.237 121.458 289.811 120.861 C 289.577 120.532,289.288 120.040,289.168 119.767 C 289.049 119.494,288.692 118.802,288.374 118.229 C 287.832 117.251,286.823 115.383,284.996 111.979 C 284.566 111.177,284.000 110.099,283.739 109.583 C 282.839 107.809,281.964 106.924,280.721 106.533 C 278.978 105.983,278.973 105.996,278.965 111.568 C 278.957 117.204,278.910 117.083,281.118 117.083 C 283.268 117.083,283.365 117.190,283.290 119.483 L 283.229 121.354 259.375 121.411 C 246.255 121.443,235.310 121.418,235.052 121.355 C 234.610 121.249,234.583 121.137,234.583 119.413 C 234.583 117.131,234.628 117.083,236.790 117.083 C 238.154 117.083,238.522 117.017,238.624 116.754 C 238.874 116.101,238.766 91.285,238.512 91.128 C 238.127 90.890,235.137 90.893,234.740 91.131 C 234.402 91.334,234.375 91.992,234.371 100.102 C 234.366 112.986,233.910 115.294,230.751 118.438 C 225.695 123.470,212.230 123.338,207.174 118.208 C 203.985 114.971,203.519 112.804,203.387 100.579 C 203.274 90.149,203.354 90.639,201.819 90.961 L 200.938 91.146 200.833 93.125 L 200.729 95.104 198.038 95.163 L 195.347 95.221 193.954 93.775 C 189.099 88.734,180.455 89.390,177.597 95.016 C 175.556 99.034,175.560 108.882,177.603 112.915 C 178.823 115.322,181.455 117.154,184.165 117.482 C 187.018 117.828,190.822 116.955,190.842 115.951 C 190.909 112.417,190.848 106.650,190.740 106.476 C 190.658 106.343,189.884 106.250,188.849 106.250 C 187.331 106.250,187.069 106.196,186.882 105.847 C 186.649 105.411,186.594 103.106,186.799 102.341 L 186.925 101.869 193.827 101.924 L 200.729 101.979 200.784 110.018 C 200.848 119.483,201.243 118.366,197.369 119.675 C 186.829 123.238,176.471 122.639,170.900 118.145 C 169.845 117.293,168.661 115.986,167.099 113.944 C 166.559 113.239,166.042 113.468,166.042 114.412 C 166.042 114.999,164.805 117.209,163.979 118.097 C 160.992 121.311,154.851 122.672,147.396 121.773 C 145.356 121.527,140.621 121.470,121.654 121.465 C 103.378 121.460,98.345 121.403,98.094 121.198 C 97.755 120.921,97.222 120.030,95.884 117.500 C 95.430 116.641,94.778 115.422,94.436 114.792 C 94.094 114.161,93.270 112.615,92.605 111.354 C 90.722 107.787,90.119 107.046,88.690 106.541 C 86.823 105.883,86.875 105.736,86.875 111.669 C 86.875 117.300,86.790 117.083,88.987 117.083 C 91.155 117.083,91.250 117.174,91.250 119.236 C 91.250 120.298,91.154 121.054,91.000 121.208 C 90.703 121.505,52.376 121.571,51.909 121.276 C 51.721 121.156,51.615 120.545,51.583 119.389 C 51.523 117.242,51.687 117.083,53.963 117.083 C 56.241 117.083,56.042 118.345,56.042 103.912 L 56.042 91.240 55.507 91.037 C 54.699 90.729,49.323 90.776,48.900 91.094 C 48.630 91.296,48.540 91.771,48.495 93.229 L 48.438 95.104 46.489 95.164 C 43.814 95.247,43.958 95.489,43.958 90.919 C 43.958 87.314,43.982 87.085,44.374 86.875 C 44.665 86.720,52.620 86.673,70.781 86.720 L 96.771 86.787 98.333 87.323 C 106.636 90.173,108.140 99.790,100.888 103.649 C 100.218 104.005,99.555 104.368,99.413 104.456 C 99.230 104.569,99.454 104.944,100.175 105.732 C 101.170 106.821,101.752 107.741,103.338 110.729 C 103.763 111.531,104.554 113.024,105.096 114.045 C 106.741 117.149,106.664 117.083,108.663 117.083 C 110.079 117.083,110.395 117.023,110.508 116.730 C 110.730 116.151,110.641 91.391,110.416 91.166 C 110.307 91.057,109.478 90.950,108.575 90.930 C 107.672 90.910,106.826 90.828,106.696 90.747 C 106.368 90.545,106.379 87.246,106.708 86.917 C 107.070 86.555,133.972 86.555,134.333 86.917 C 134.597 87.181,134.707 94.228,134.457 94.879 C 134.297 95.296,130.656 95.365,130.250 94.958 C 130.096 94.804,130.000 94.048,130.000 92.986 C 130.000 90.773,130.125 90.833,125.574 90.833 C 120.770 90.833,121.230 90.229,121.298 96.458 L 121.354 101.563 123.438 101.563 L 125.521 101.563 125.625 100.000 L 125.729 98.438 127.573 98.377 C 130.176 98.292,130.000 97.886,130.000 103.969 C 130.000 110.116,130.128 109.792,127.701 109.792 C 125.774 109.792,125.625 109.653,125.625 107.868 C 125.625 106.379,125.451 106.250,123.438 106.250 C 122.403 106.250,121.653 106.347,121.500 106.500 C 121.076 106.924,121.151 116.376,121.580 116.540 C 122.169 116.767,136.872 116.683,137.305 116.451 C 137.671 116.255,137.708 115.992,137.708 113.574 C 137.708 110.131,137.678 110.173,140.105 110.252 L 141.974 110.313 142.521 111.964 C 143.598 115.221,145.966 116.906,150.318 117.515 C 154.365 118.082,156.646 117.090,157.420 114.426 C 158.194 111.763,156.518 110.085,152.083 109.085 C 142.215 106.858,137.242 102.787,137.249 96.941 C 137.254 92.251,141.096 87.607,145.668 86.766 C 146.093 86.688,146.796 86.497,147.231 86.342 C 148.196 85.997,154.740 85.933,155.835 86.257 M20.833 87.596 C 26.298 88.835,26.286 89.342,20.800 88.974 C 10.894 88.309,10.419 88.213,13.789 87.555 C 16.659 86.994,18.220 87.003,20.833 87.596 M67.021 91.094 C 66.576 91.425,66.450 116.259,66.891 116.790 C 67.271 117.248,75.670 117.217,76.131 116.756 C 76.421 116.466,76.458 115.006,76.458 103.834 L 76.458 91.240 75.924 91.037 C 75.103 90.724,67.452 90.774,67.021 91.094 M87.500 91.034 L 86.979 91.164 86.923 96.245 C 86.858 102.152,86.714 101.783,89.070 101.735 C 96.467 101.584,96.753 91.517,89.375 90.999 C 88.630 90.947,87.786 90.962,87.500 91.034 M29.847 92.498 C 30.802 93.459,31.199 93.990,31.012 94.058 C 30.696 94.174,24.890 93.886,20.729 93.548 C 19.240 93.427,16.286 93.259,14.167 93.174 L 10.313 93.021 12.813 92.551 C 14.191 92.293,16.982 91.988,19.032 91.873 C 21.077 91.759,22.855 91.601,22.982 91.522 C 23.176 91.402,25.271 91.207,27.793 91.074 C 28.286 91.048,28.670 91.314,29.847 92.498 M279.174 91.445 C 278.741 92.253,278.896 101.129,279.350 101.540 C 280.138 102.253,283.866 101.605,285.222 100.521 C 287.408 98.772,287.343 94.298,285.104 92.465 C 283.533 91.180,279.672 90.515,279.174 91.445 M313.802 91.180 C 313.604 91.260,313.542 92.498,313.542 96.377 L 313.542 101.469 314.115 101.689 C 315.169 102.093,318.332 101.627,319.402 100.909 C 321.927 99.213,322.232 94.569,319.952 92.526 C 318.748 91.446,315.113 90.651,313.802 91.180 M32.292 95.885 C 33.000 96.960,33.538 98.274,33.540 98.934 C 33.541 99.321,33.740 99.959,33.983 100.352 C 35.050 102.079,34.419 108.581,33.205 108.369 C 32.704 108.281,29.947 107.996,26.875 107.713 C 25.557 107.592,22.464 107.399,20.000 107.284 C 17.536 107.169,14.724 106.989,13.750 106.885 C 12.776 106.780,10.878 106.630,9.531 106.551 C 5.969 106.343,6.528 106.113,10.990 105.950 C 13.138 105.871,16.302 105.677,18.021 105.519 C 19.740 105.361,22.927 105.172,25.104 105.100 C 30.087 104.935,32.412 104.689,33.070 104.258 C 33.987 103.657,33.307 103.486,29.229 103.294 C 27.075 103.193,23.766 102.973,21.875 102.807 C 19.984 102.640,16.844 102.452,14.896 102.390 C 12.948 102.327,10.745 102.220,10.000 102.153 L 8.646 102.029 9.734 101.654 C 10.573 101.365,12.006 101.227,15.984 101.053 C 18.823 100.929,21.849 100.737,22.708 100.625 C 23.568 100.514,26.149 100.333,28.444 100.222 C 32.592 100.023,33.333 99.922,33.333 99.556 C 33.333 98.983,30.455 98.627,22.500 98.218 C 19.120 98.044,15.417 97.821,14.271 97.723 C 13.125 97.624,10.847 97.476,9.208 97.394 C 7.569 97.311,6.270 97.202,6.322 97.151 C 6.373 97.099,8.670 96.925,11.427 96.764 C 14.184 96.603,16.655 96.423,16.918 96.365 C 17.181 96.306,19.740 96.156,22.604 96.031 C 25.469 95.906,28.516 95.730,29.375 95.639 C 31.889 95.373,31.958 95.378,32.292 95.885 M345.949 99.213 C 345.771 99.468,345.625 99.761,345.625 99.864 C 345.625 100.036,344.957 101.692,344.268 103.229 C 342.239 107.754,342.110 107.501,346.448 107.497 C 350.722 107.493,350.495 107.754,349.069 104.479 C 348.919 104.135,348.728 103.620,348.644 103.333 C 348.559 103.047,348.424 102.719,348.342 102.604 C 348.261 102.490,347.880 101.576,347.497 100.573 C 346.771 98.677,346.495 98.434,345.949 99.213 M33.542 109.349 C 33.542 109.929,32.607 111.930,32.160 112.308 C 31.830 112.586,31.437 112.611,29.583 112.471 C 28.380 112.380,25.615 112.205,23.438 112.083 C 17.829 111.767,12.375 111.462,9.583 111.306 L 7.188 111.173 9.688 110.808 C 11.063 110.607,14.203 110.345,16.667 110.224 C 20.643 110.030,23.548 109.822,30.938 109.200 C 32.083 109.104,33.138 109.010,33.281 108.992 C 33.424 108.973,33.542 109.134,33.542 109.349 M395.625 112.917 C 395.625 113.032,395.069 113.125,394.375 113.125 C 393.372 113.125,393.125 113.190,393.125 113.456 C 393.125 113.637,392.844 113.892,392.500 114.022 C 392.156 114.152,391.875 114.326,391.875 114.410 C 391.875 114.493,391.641 114.815,391.354 115.124 C 390.742 115.785,390.565 118.571,391.115 118.896 C 391.271 118.988,391.508 119.273,391.644 119.531 C 391.779 119.789,392.024 120.000,392.188 120.000 C 392.351 120.000,392.586 120.188,392.708 120.417 C 393.080 121.110,395.865 121.030,396.335 120.313 C 396.523 120.026,396.820 119.792,396.995 119.792 C 397.170 119.792,397.447 119.470,397.612 119.077 C 397.776 118.684,398.006 118.303,398.122 118.231 C 398.459 118.023,398.380 116.131,398.021 115.833 C 397.849 115.691,397.708 115.468,397.708 115.338 C 397.708 115.050,396.579 113.958,396.281 113.958 C 395.990 113.958,395.780 113.588,395.933 113.341 C 396.010 113.216,396.246 113.213,396.562 113.333 C 398.259 113.978,399.583 117.219,398.652 118.450 C 398.484 118.672,398.344 118.979,398.340 119.131 C 398.332 119.458,397.209 120.625,396.901 120.625 C 396.784 120.625,396.596 120.789,396.483 120.990 C 396.315 121.291,395.980 121.354,394.541 121.354 C 392.638 121.354,392.616 121.344,391.114 119.796 L 390.208 118.863 390.208 117.029 C 390.208 115.591,390.276 115.169,390.521 115.075 C 390.693 115.009,390.833 114.848,390.833 114.717 C 390.833 114.334,392.007 113.333,392.456 113.333 C 392.681 113.333,392.982 113.193,393.125 113.021 C 393.421 112.664,395.625 112.572,395.625 112.917 M31.025 114.298 C 31.073 114.341,30.489 114.986,29.726 115.730 C 28.238 117.182,28.065 117.240,26.312 116.875 C 25.762 116.761,23.391 116.529,21.042 116.361 C 16.706 116.051,10.153 115.471,9.583 115.348 C 9.411 115.311,10.396 115.214,11.771 115.132 C 13.146 115.050,15.583 114.883,17.188 114.760 C 24.602 114.193,30.684 113.990,31.025 114.298 M396.120 115.424 L 396.652 116.056 396.220 116.885 C 395.823 117.648,395.814 117.753,396.112 118.207 C 396.381 118.618,396.390 118.763,396.165 119.072 C 395.818 119.546,395.266 119.346,395.002 118.651 C 394.738 117.957,394.457 117.987,394.063 118.750 C 393.736 119.381,393.072 119.587,392.798 119.143 C 392.550 118.742,392.707 115.130,392.980 114.956 C 393.696 114.501,395.579 114.781,396.120 115.424 M394.190 115.910 C 394.010 116.127,394.030 116.259,394.277 116.464 C 394.675 116.794,395.120 116.446,394.930 115.952 C 394.776 115.549,394.502 115.534,394.190 115.910 M24.516 119.275 C 24.614 119.572,21.781 120.415,19.846 120.666 C 17.487 120.971,12.292 120.634,12.292 120.176 C 12.292 119.492,24.297 118.607,24.516 119.275 " stroke="none" fill="#fbfbfb" fill-rule="evenodd"></path></g></svg>